<mxfile host="Electron" modified="2023-05-24T18:50:00.634Z" agent="Mozilla/5.0 (X11; Linux x86_64) AppleWebKit/537.36 (KHTML, like Gecko) draw.io/21.2.8 Chrome/112.0.5615.165 Electron/24.2.0 Safari/537.36" etag="uwDWUGSH6SLDPZ2gUtWE" version="21.2.8" type="device">
  <diagram name="Page-1" id="hiBEFfEQFL2aIQcTi3W-">
    <mxGraphModel dx="607" dy="366" grid="1" gridSize="10" guides="1" tooltips="1" connect="1" arrows="1" fold="1" page="1" pageScale="1" pageWidth="850" pageHeight="1100" math="0" shadow="0">
      <root>
        <mxCell id="0" />
        <mxCell id="1" parent="0" />
        <mxCell id="0sxkKxFfAbdUbiCfdQnR-13" style="edgeStyle=orthogonalEdgeStyle;rounded=0;orthogonalLoop=1;jettySize=auto;html=1;entryX=0;entryY=0.5;entryDx=0;entryDy=0;" edge="1" parent="1" source="0sxkKxFfAbdUbiCfdQnR-5" target="0sxkKxFfAbdUbiCfdQnR-12">
          <mxGeometry relative="1" as="geometry" />
        </mxCell>
        <mxCell id="0sxkKxFfAbdUbiCfdQnR-5" value="" style="shape=image;aspect=fixed;image=data:image/png,iVBORw0KGgoAAAANSUhEUgAAA1wAAAK3CAYAAACREU4xAABw7klEQVR42u3dPahmaVb2ccFXFEGrA1GhmZEOBjtoh+6gx0Q7qGCKCaShYMw6sJpJZCINCjESKiiYSGhOYDAGRUcGHVUwJy4aTE4oZhVOVuEY1stV77vbXXft/Xzuj/ve+xf8wbHrfD37417XWtda67f+53/+5zUAAAAAYHp+y4cAAAAAAAQXAAAAABBcAAAAAACCCwAAAAAILgAAAAAguAAAAAAABBcAAAAAEFwAAAAAQHABAAAAAAguAAAAACC4AAAAAIDgAgAAAAAQXAAAAABAcAEAAAAAwQUAAAAAILgAAAAAgOACAAAAAIILAAAAAEBwAQAAAADBBQAAAAAEFwAAAACA4AIAAAAAggsAAAAACC4AAAAAAMEFAAAAAAQXAAAAABBcAAAAAACCCwAAAAAILgAAAAAguAAAAAAABBcAAAAAEFwAAAAAQHABAAAAAAguAAAAACC4AAAAAIDgAgAAAAAQXAAAAABAcAEAAAAAwQUAAAAAILgAAAAAgOACAKDkv/7rv14/f/789VdfffX6H//xHw+Sf/ftt9/63AAABBcAAB2//vWv34ilTjjdv3//9SeffPL6t37rty7mvffee/N9vvzyyzffM4It4s3nDQAguAAAuxBZEUEPHz68SlidS4RcBJhKGACA4AIAbM4e+OTJk4uqV48ePXr99OnTg5z7PT/44IM34uvrr792fQAABBcAoD1SSYqoibg5JoAeP378Rjh98803r29vb98ItJcvX77+zW9+czKvXr1683UvXrx4832ePXv25ns+ePDgqAUx9sNU3VJ9c+0AAAQXAKBaThVZNzc3b8RRRM45wuoS7u7u3giwVMuO/V4RX3q+AAAEFwCgKlIhOiS0UmmK6In4STVqbpE1RipnqYClqnZIeEU4qngBAAguAMCqZMrgWG9WKkoRNxFZawmsQ0RQxcI4Jr5iNyS8AAAEFwBgFaGV8etDQiW9U7Hl1SiyDvWARRyOCa9U8Fx3AADBBQCYlQip9DmNVbRaE1pDVa9YH8emG5psCAAguAAAkxMhEnvdmNDKAIyWhdaQ8BobOZ/Knn1eAACCCwAwCREXQ31aGYQRG96WhFZJKnZjwovNEABAcAEAru7VSg9TKTYitNacNrg0qeANjZWPvdJ9AgAguAAAZ5MKztD+rCV2Z9VKphoOWQxNMgQAEFwAgJMZGoyxdfvgOTbD2Cn7n00sl/q6AAAEFwDg6HCMoX6trQ3FmGKoRrm/K9ZLUwwBAAQXAGB0OEZGn5eDMV6+fElkjezuisWyFKdPnjxxPwEACC4AwP+Sykw5HCMVnD33a53K0MJkwzQAAAQXAGB0OEaW/+5pCuEUUwzLvq6HDx+6vwCA4PIhAMDebYRlZctwjMuI9bIUXVkW7T4DAIILALDTARllz5bhGNf3dZXDNCxIBgCCCwCwQ8pphCpb81W6jIwHAIILALAjyj1b6dkilqbd1VWOjLccGQAILgDADsjY8nIaoQEZ03N7e/vOcmSiCwAILgDAhnn+/Pk7e7aIrflI5dC4eAAguAAAO2BoIqGlxvNTDtEwuRAACC4AwMaIla0ckmEi4XKTCx89evTWZ59F0+5LACC4AAAbHZJhIuG6kwsN0QAAggsAsBHKiXk3NzdE0AqkoshaCAAEFwBgY9y/f9+QjEqHaEQMu0cBgOACADRKOZWQlXBdYiM0tRAACC4AgOoWZiKiV5ULAAguAEDjZBKeqYR1Ti3sD9CIKHa/AgDBBQBojA8++OC7oD5jyYmdeqtcsX66ZwGA4AIANMJXX32luqXKBQAguAAAU5PBDNnz1AXzT58+JXIaGBMfkez+BQCCCwBQOdnvVA5lIHDqJFbP7jrFAur+BQCCCwBQOapb7XB3d6fKBQAEFwCgFcrJhLEXEjZ18/jx4++u18OHD93HAEBwAQBqJYt0u+A9gTxBUz+3t7ffXbNUJ93HAEBwAQAqpT8KPqPHCZr6SRWyX5VMldK9DAAEFwCgMr799tu3AveXL18SNA3aClOldD8DAMEFAKiM/nRCi47bXYTMVggABBcAoEI++eQTdsJGSTWyX51MtdI9DQAEFwCgErJrqx+wZ9w4IdPuTq5UK93XAEBwAQAq4cmTJ98F6w8ePCBgGrcVWoIMAAQXAKBSO+GzZ88ImA0sQU7V0r0NAAQXAGBlyrHiL168IGAaJdXJ7jqmaun+BgCCCwCwMl999dVbguvVq1fES6OkOtldx/v377u/AYDgAgCsTX8c/NOnTwmXjdgKjYcHAIILAFABDx8+NA5+I5TTJt3fAEBwAQBWJtYzgmsbxA7aF1zPnz93jwMAwQUAWPVlbv/WpiC4AIDgAgBUKrhiSSNa2iZ9eBYgAwDBBQCogFRA+oKLYGmfm5sbggsACC4AQA18/fXXBNfGSB+e0fAAQHABACrASPjtcXt7+901/eSTT9znAEBwAQBqEFyxohEsRsMDAAguAMAMgstIeIILAEBwAQAILhBcAEBwAQAILhBcAACCCwAILoKL4AIAEFwAAIILBBcAEFwAAIILBBcAgOACAILLHq4tcXd3R3ABAMEFAKiBJ0+efBeYP378mGDZAKlUdtf0/v377nMAILgAAGvx/Pnzt6ohBMu2BNfDhw/d5wBAcAEA1uLbb799S3D9+te/JloaJ9bQ7nrGMuo+BwCCCwCw5su8J7gycIFoaZtHjx59dz1jGXWPAwDBBQBYkQ8++OC7AP3FixdES+P0BXQso+5xACC4AAArksEKRsNvg1hCy4qlexwACC4AwIr0R8Pf3NwQLnZwAQAILgDAHIIr/T+ES7vc3t5+dy1jFXV/AwDBBQBYma+//tqkwo2QXWrddfzyyy/d3wBAcAEAauC99977LlBPlYR4aY9Xr169JZy/+uor9zYAEFwAgBpINaQL1FMlIWDaIxMmy0qlexsACC4AAFshJiADT7rr9/DhQ/c1ABBcAIBaKMeJ28fFTggAILgAABOSqojx8G1yd3dn/xYAEFwAgJpJVaQftKdqQsy0wbNnz767bp988on7GQAILgBATf1bGZrx0UcfvSW4UjUhZtrgwYMH3123/N8RXU+ePDE4AwAILgDAGnz77bdvFh5nOW5fZH344Yff/d+pmhAz9RP7YP8avv/++2/971hFI6rd9wBAcAEAZh6MkapHqh/9gLzPp59++lalhKCpn2+++WZUbPXJrrVUMiO2PQ8AQHABzfL8+fM32eRUDw6Rf5N/6zPDEr1Z/YEYQ6TSFTGWpcemFbY1nbBvJ+zeLadc7/xbwzWwRDU9Z13eL4fOxLyn8u/ckwDBBXx3gORwyCGRwOb+/ftvsseHApxj5Hvke+V75mCShca1wj/VjEP3Zf5b7rfyXutXwB49emR4RiPVrdC/lqdUNLt3T95n+r1wKRFJ/URj7qnSrnwuuW/zfbrvmXeaexQEF7CTwQLXHiLnkJ+Vn6n/AqcGPUN9WSXHenoS2PT/fYJ64qY+yt1peVdce2943+CcxOMpgn5q8v5KgkAlDAQXsJF+l7zUj1UJxnj69OlBzv1++R26g0aWD+V9eizoyX8/595JZrnfy6XKVfco+HN2b11T/QSRdYpwH+Lx48cHz8RU0y+pgkX0EV8guIDGKgR5eR/rf+isVjkkkv0PGaGdr79kwli+tvs+px48+R0dNPuuuM7Zp5PASpWrXl6+fPnW9cl1vlSsn9rf512zb3fHKYnHnF9Zmp73Rfo/c8/kPjv33s7XpZ+0OxMj1k5xhEgSgOACKu936Wf0D2XocgDkQFgioMrPOuWgye9uAMc+ssunVCammkSX79P/3ucGTpiPfpU81/zaqneXbDpWKVVl30/ysXz+h0j1O5XWJXb25Z6LiIugO8UREvHlPgXBBVRyqBwTWhE8ybStGWzmZ+d3OGZFJLy2W3U9pS8rgfDUP7v/M+zlqnPv1iXVrVNsY6cIe/1e27MoH7v2cWAkGXiJo2PK6ZwReXkn9ad0DlW9pn4vAgQXMFH2Lhm0ZNJq7FvJ79Rl+cYOmvxt7D/t92UdSwZ0/QtzZnETfPV/5hLVXZxe3UpAOef17+xkRsxvn7xLxoRWl3is9fnvbPljdvzco5KRILiAhbN3Y1m7FncO5XceO2RYKtrslagpuM390w/CEuwTPes+7/37YansfU1JAExLrutYBT0VpNasxHk3jrlBuEBAcAEzM2aTSJUombHWp7DlbxiqePGytzH1q2b7VpmkWNNKtPclx/3kSoLkvdlcMW3v8ljPXhwUrfds5j4d64HOvakiC4ILWCh7twWhVQZk5SJUXvZ6+7JaGVCQn99/hiLsDdBYfwx8Df1TSw9ywTTXbKxSmcrQ1hIqh1wguS8lI0FwARNPWWvZJnHukI0yOHPA1NGX1eoI7gT3ZU+H3VzLVrBLa1SNltg5VxVgmgTkkDiOINl65To9aEMukNyTkgEguIALg9uh6sEWs3fHRssPednz2RBdy9l2trJktkxgxHZEDC0zEKAMEGt+fudaxo1prcEt9y5f6wIphVfewSZuguACzrRLlBbCvFz33HeSv720VOSAkdWbzzKY4OZYj0uLY7VLK5KFyPMnTfrBYWvP7anPQipjAt75BPCQ22NrlvpzXSBD+7ziLnDPgOACLrBLsD79b2ZvqIFYX9d0Qc0pfVkRLC1n9Yeqx3vKkK85JKP153VL1d6WBG/5vEbAL7GouEWrLts9CC7gArtE+piIrcON93MsTt2byN9b30qC4X7QnADOfq7pKRMkW3pOW+5nbPU57SyEntV3h2qUFkO2exBcwBl2CYfJePPwkKXHAWMy26VDNBKwSG7MlxjJvaQyrN/rHEE7tLzYM3qadZftHgQXcMTexC5xeiP+UFZPNlkvyqkkUBbQzZ8Q2Uu2vdtJd+gZW3snXctuD8/W+bb73G9s9yC4sHuxxS5xfVZv6IAhus6fthbxscfse1ldzlRMous6e1P5PO7xvoqgOlZF7qy6qhDjz6Mey2ls90QXCC7sljIIll2/PKtXjo7fu3+9C/bsE7r8WZT4mCbQ27uY6JIeY4t6y6THnp/HsuK89+m8U9vuCXsQXNh9Fo9dQs/IVHamU/qyMm3Nc3jc2ivYM0F0altvRMUptt69fXZDPZWSHtNXmyXYQHBht1k8lS1T0QRw6wuuH/7wh6///M///J3PLpliz9ZhW285+v0P//APX7///vsy6hIkpoZWJrpMLwTBhd1m8Ygte39YlNalP947wkvD/uWDa37wgx+8vnfvnilpLMAnv8/KhJGeLe4PEFyALF5j43G3EvRpwl/G3huhaiT15asZfvGLXxhNvcCQm62MmC8TR9ahcH+A4AIm7RGRxZs3876FSWmnjJnuMpbGTE8jtrr7xNLV8SryseXj5Vjv3L9sTNY4HHv+bm5unF/cHyC4AFm81ncBtSLOLVKdn1NEwdgwjTy/e6x2RQSUQdvYnp9DYhbnJ162tqi8rCKrIHN/gOACZPF41xcJQPq9RGOWQX1Z0wd7hwKPiISh/poELnsZqJH7rVy9cErARnSt956oud8rQ0DKZyn3hTNrefeH6jMILmyC8mCRxVt/XHVN9pvcH6dkrvVlrSO2DlXE+jbDrdqDE4gN2QfPEU9ldT9iwX2430r40JAMvczLkgq9IRoguLAp+oehLN56oqtvo8hhrzfDlNBLloHm2o1VF1IB2srerrE+re75Oaf3Y8iWKcBb551SQ69nmbjQy1yH+8NuRhBc2Ewm3cFSzy6SpZuF9zh9rPYpodfcBwlOPv3001Hh1WpiJUIr2e9y1HvIqPef/exnkw0NIrrWm2a6VtU890H/98qz4nyqIxGZSqjnBwQXmqSfbYztyEt+Xfo9KEtNLUzw03q/BbE1nkxJkPK9731v8Lomg5x+iVaa6ceEVj63zz777I3guiYoK4Nto6mXSfIce/8sua+vrG6xEtZlLVTlAsGF5iegbcVq1Hrj/xLB3jkTxRxwy9itphRbZQ9KV5U8dL0zKCdV1pr6N/O5JOAqpw6WVah/+Zd/mawHcmrhi9OfgVP6vSLO5qqwl+9fy8TroP/8r223B8EFsE2ocp0U0JzSlyXAXPZZnNrKViZTOtGcn5X/dkh4de+DTDdc2nYYsZeKWwLdoUpWOWihX/Ho39fXBmVE1/rV3mP36RwJoXJipX5mdnsQXIDq1kbJIT9Vlauz7JRT2MYsO/qy2hdbZTJlyGJ36vS4bmppqkx5R8xR/cr3TUCVCtux3+VQkF0OG8nfd23QX/58A2LW6/ea2/JcXm97KOuiP8nXmHgQXGjSvsQ2Uf90pnMDiaWCFNQltoay9Meub1f5PNZHU4qwVMESlHZibKzXJSKtE1X5txFW+dpjFazyPj1leEI/sTBFdfjS8fyYr99rruRR//vm3rQaZZ92exBcANvEjqtcpwTi59hwZOrrew4TKE7dg3KugOsPMThmO5yTLmg+V9yUOwWnCMqIrnZHzJ9qjy7vG9UtQ6VAcAGagk1nqqrRHNOIrSmuzdQVnq5SeiywnYLuHr224npuhe9S0aUyXE+/16kDgMaEcv/9mQENqlv1TipV5QLBheYCPbaJtnaQJCA9Z5RyguSlRiljfbE1R3VnKLjNz8n3DhF4p/SBdfdj/n3+/nxtxFy+19RJgGurfEtfN6y74qLs/bOLsi27vWcQBBeqpJ8FZJtor8pV67JQnEYE8FyVkr7w2XtT+diURqJrX/1epyxx/9u//Vu7KBu225tYCIILVWb/9G61fbj85V/+5eguIn1ZdTNnL1D5vfcehJwyqZHo0u8VsixbErLdiYVTVbABgguzZH1l8to8XP7qr/7qrSBSXxaxVS45thh0uJo4VUJirumSmJ9UOvsugU8//fSt6zg2aRN1kR2B/XepexsEF6qiH5TJ5LV5uCQbqy+rvab+Mqs+5bLWuexzW3vnTSlEia5tJEF++tOfSkJuwPnB3QGCC9UGfTJ57U5mElC39dyVPXdT2v3mtM5tsbJ47TJkoksSEmyFILgAdsKNkmtmFC6xdayfyLCUd5l6VH7ZH1Re4ylFHebt7epft7u7O2dNowOl2KhBcKEa+plYu7ccLlh2aMMcgfhc48+32Lcz57j8JYQ15u3xy/oN50zbzg/JJhBckMnD1ZTX0OFSt9hawmpWVm709Y1T7maa+rMiuiQhwfkBggsyeTJ5G6C/BJltad9ia4klx1tOOi1xTSRGJCGx3BLkvHfd2yC4UE0Pw83NjRe1wwULZM1DKiut9SXtoY91ruEzc47/x3zX6dWrV86YBolQnrNyDYILOO8m6r2QXrx44UXtcMEMLLUQ15Ljuic6El1tWUwlITk/AIILk9tcZPLaxnj4fYutcpS1ASr1VbmGfo4qZL2V6Ow5dLa0SwQzazUILqxOFgL2D34v6O00Cats1BnEzym2LDluR7AuKcJxuesjTgFnyzYm+NpDCIILVQSDT58+9YJunFxD2bx6e0HmtI9ZctyeJZPoqn9gRsaLO1vaJRVKFX8QXKhKcPGqb2twxlwDGVBnr05Z3dIX1MbQkXIkvYE3ddnsnSvbWpniHgfBhdUDi5TevaDZJ9Ce2LLkeN6ge85q8VKrAnD+sxuLtnOlbfJ8GSYFggtV9StoDt7WpMIE+e7x5RlacpteyaWmqlly3N5nSnSx2cMwKRBc0BwM9glcKLbmHl5iyfE2qoZDosu1XFdoc31sb5iU0fAguLB6QJED38tZNg/tiK2l+432PmFy7r64te4hsNkbJgUQXNAcDIKraiJy+vbcpQ52S47nv65LT34kutal/9nHou1M2VZvs2FSILhAcGHybB7BtUxQvlb/jSXHy1e5lnimiC42exgmBYILBBcILqwstkohMPdgDtXLZYXt0pMuQXARXADBBYILBFfVDfZLHuaWHK83KnzJahPRRXCB4ALBBYILBNduSSWrXFi71MCKNWxue6dfyVxyOAnRRXCB4ALBBYILBBextaDYsuS4jvflktPOSoEdW6NplAQXCC4QXCC4sBKPHz8muDYc/JY2RkuO1xkZvvSC6TVFPsEFggsElw8BBBeMhd+FvcuS43VZu7pIdC07+fPFixfOlA1wc3PDEQCCC+tO35LN2xZD19S9vp1eGkuO67OTrnkP2Cs07+dr8bHFxwDBBfYJvEOZgXePT0NGrvc/1zUC7fJ3ePLkiWuzUqJqzQmRa64i2JtlOJUR50r7PHjwwPoMEFyQzcN03N7eWoQ7MbUsobXkuN4+vqWtu0TXMtc2lRHnCps9QHCB4ILm4B2IrVSzLDmuq8rVF8ARP2tX2til5qkkO1e25fpgwwbBBdk8TNocLPi6fkBCDWLLkuM2evrWuDdqSQgYJgU2exBcwImZ84wT94LWHIy6LFuWHNdL/x5ZazcW0aW3GVwfILggm4eVvOpsZ+2LLUuO23p/rpXkiOgqh7p4/qcRXHd3d86WjQguEz1BcGHVHpX+4fLy5Usv6Y2MhFcJaX8YQTmC3Jj/uvtg1xzVX8PaAr3NqI04d7g+QHChCvp2lEy585Juf0Jhrql7+3qBs8YwhNqqJ2inCkl0Tf8eYLXfThJS1RcEFxwumLR/i3ViGrG15kQrS47bvXfWrEQOiS6V0esmFebZc8a0x4sXL0woBMEFhwum49WrV5rmNyS2ymdSdat+K2pNkyRru585P7D21F5JSBBcqK5JOFkhL2uZvD1O6qylImDJcXvUNk2S6OL8kISUhATBhcpI9qd7MSUr5IXdbibP6Nu2e15KAShQaLPKtWb/H9E1/bshAbyzph0yXdLAIRBccLhgUh48ePDdtUvA7p5uU2xZcryte2ptsVzb1M3WBDTnR7s8e/asquQHCC7A4SKTtzuG9hbVMEbfkuP2Ke2ga1eUiC7OD0lISUgQXKiI/qGc7JCXtkzeVsVWv4pUi22vHC+uybtNahznT3RNY+913khCguACJj1ckh3y4m4vk2eaXZtia6jfRpDQLjWO9M/9VN77Mv/nJUESyDtz6ifLqg0dAsEFhwsm4+XLl29dM0tOT++PqingLC2OhPO2LKu1VJNqTjhwfmAqHj165F0KggvtHC5ZpOvl3Y6dUCavXUuVJcfbo9aKJdF1nfPDnsq27ISSkCC4UCVl036CBC/xOikrkjJ5bYqtGnt+ML2Fr6aevPKeE5ie7vxQ5WqnuiUJCYILzdiuVLnqJddGVeS8qm2NwygsOd5PAqumqZM1rkVopVqpylUnma6scguCC81QHsRGxKtubSVQqm3xa217mzBvAqu2vWpE12XX0Yj4+sju0P4AKTsMQXChCfpZ95TovdDZJoitfQXj2IeoLqtwquXs9q1PJrTDEAQXmuHrr79+6+V1e3vrpc420WxwVJvYqt1uhn3ZRmtPTrDbQ3ULBBc2S39yWl5meal5uddV3bLouE2bVM0DFbDPwShE13kTC61Oqbe6ZYchCC40HSTkpeblzjZBbE0f3AoQ9pXAqtW2F+Ffii7Xjt2+ZvIc1TqBFgQXcNEBrMrFNkFsXY8lx/ukhete+woFQ6VwaBel5BUILjSLHSSqW60Es+Uy1/QhqnRAZZPoYrc3rRcguNBckCCjt/6gDAHQYbFV6yARS44lsFro3RsSXe7V8efYmPh1HB/9fmbJKxBc2FyQEF6+fOmlvxD5rPtWwnv37r3+z//8T/dmY2JraFqdAMEEzVor1a09W0vz2Wef6XFekcePH0sIgODC9jN6EQAJFr34l83ihb/8y798E6zvfUFp7r++gKn90LXkGN1928r+NaJr+PrFYZDE10cffcT9UUHfFscHCC5sulk4GSbe9WWzeGVWda9Zvdb6TMog2/S3fVOOF69ZxBBdb38W/STPhx9+yP2xMNkJan0BCC7srp/LEI1ls3jl2OYuQ76nA6fFpn5LjnHMXmoCaFtW0O5z+OUvf/mO+0Mich6y96z8/IktEFzYLGWwy7u+bBavzI53B0+tU/mmphSdtY/HL3sgjfNHyPPaUrV6r6Ir793+VMKhRFf5Tub+mL+XeY+iHwQX9M7wri+cxctBUwrfLmjbcsavrLC2YCex5BhjtLYiYG+iK6K4tAyGCCzuj2V7mUt7vR5YEFzY5XS4ZJ5415fN4iU4G7K5RIRsMQhqUWyVe2I0d+PQMKIWejLLd84Wp21e+m7l/piHp0+f6l0GwQWWGKJrOrFVTiQ8JYt3ThZ2K/0TrQR5lhxjixXQFpMf5yQTL3UPDLk/Yg93vl1e2Sp7mWvdXQeCC1g0EI7oYi+8zEbYr2ydm8VLkDbUZ5DDqfVAqFUbkyXH2HIVdIuia4r+2KGpjuyF55N7qbQRmkgIggsytMUhxUpxOvmsys/v0qBrbJJWq1PxWu4Z6WfJLTnGFqdYlkmeVqsPeTbHJsBeUnEcch0YpHG5tb57h+p/BcGF3TOUGby5uXHAnGmXmKISUu6KabXCUlpWQytiy5JjnBvwtzjJssUVDUOV6CFL9hTv4fL7st0fJw6Zod45CSsQXMCRrF5elA6S41OX8tlNFZjnMx+qPLYyUKPlZatlH4clx7gkadXKmoeWRdeQIyDP7lTvyKHPhu1+GbcHQHBh89MLhw6YWAEcKIftEnMIoSERnP9d80CNlsVWy/YwrE9Ly5APVehqr6iPDcZIcD91JWUs+cV2/3YCMo6Y8jPiDADBBRw5YIYGOMjqrWOXiNgdCi5qHKhRLglu7dBt1RqGOm20LU0abSVRks90KAk1d0WR7X48ATnk9pCoAsEFXDFMIwfMHi2G+ZuH+rWWtEuM2WdqOdi20A9iyTGmHETR2iqBmkXX2GCMvHOWek6HHAdZBZIptXu1EJZuj63ukQTBBSw6PKA/JncPmb38jUO+9LWy1xFXNQ7U2ILYsuQYUz2jLQ+7SbBcvl/W7ker6b03NtQoy333Yr2P06PcOdk5AgzHAMEFTDwFKpmtiJEtCq9OaJXZuxrsEjVkercmtlqvTECldM5E25rrHGqs7I/Z7jvhtVUXSO7jIaFlTyEILmDCAyYv1DHhtaX+rrHsXXeo1BKIJyga6mVY2gI0tEBVVQJ7ZgvV0rVFVwu9q/mMhqpdnQtkK8Ir1yJCcujvjPDUrwWCC5jhEBzq7eq87C0Lr/jwx4TW559/XmWWeslpXaeKrRYrQ/3PUHULc1RmWgxKh0TXEu/BWpJJp/KLX/zi9b179zbnAhnrXe7e9YQWCC5gAeF1yFIR4dXCIZPfMb/rWPbu448/fv3pp59Wbwuaex/NlsWWJceYyxWwhYmXSz7nre4fzLWN4PrRj3500H7fytLkJB/HhFbOFe9IEFzAClasMeHVLU6+vb2tylqR3yW/UznKtrRJ/PKXv2zKFjTWazeHPa4ckbxU5nuOAK/V3Ulor8rVyjLkNUTX2DCK2u29pR35n//5n0ddIJ0TJOKrpsmGXeIxImuob7l7x7Nag+ACViaBxJiXvTxo1sjy5WfmZx8SWUPZu9ZsQWMDNSIgpxJENTXUs32hdrYi6OcUXUMV+lZ2OY3ZkfO+HXoXl5WviJyIr6UdIfk9I7KGFhbX3LsMEFzA/w/Gjx0ynfjqDpo5ql/5np0tYqwvq2zEHrJJtGoLmms56JbEliXHWMOy2tIy5PJ5mXoa6Zg1vcal7pfakSMa8zkNuQ+G9lxGBM0xXj6CLt/3mLujL6gjtOwiBMEFVH44J7g/9aDpRFh6qVKJ6iwXhw6e/LfQ/ft87SkHSScU8rvlgDx2sLdqC5p6oMbQfp6WK0Jlxt6yTszZ47OFoSxTiq6hJcL5360I0kvsyHnH5Dw55gbpV8ByriVxmDOuE2Nj1bD8Tp2oyr+PgBvrTx4TWfn8iSwQXEDDlsNzDpo5yM9OcHCJYGrVFtSN87+2CT3/tgyOWm6ctuQYa/b5tNwLc63oanUwxtR25LyDIm6GkmJL0rk7WAZBcAEbo8vyLXHQdLaIaw/y1m1BQ9nkU/+OrYmt0Le9tjrwA+65NRMW5Tvh1HfJ0Hu/tR6hqe3I+TxPteNfS+fuaHWAC0BwAVccNskO5sDOwZtD59Dkw6GBEPmafG2+R77XHMFM67ag/L5Dn2v+f2N/SxlYbGEpsCXHUFWdJnF2TiKmnGw6VV9pDdWtqStzee/mPdU5Q3Kv5D19qkMkojb/Pl8b8r0MBALB5UMABOoLD9Q4JfCZo0lePw32zNyBeo2i65JED+EMgOAC2IKatwUd23mzVbFlyTG2ZEWrMRHVF5LXWJmdAQAILoAtqHkRcqh5/cMPP3ynsXoL18+SY7Q+bKGFREaEyBdffDE4uKjlqh47MkBwAWALmnSgxhwLTgW6wDaFfym6plpHwY4MgOAC2II2YQsaW0Cav/O///u/XTOAtfUon3322TvvkHv37m1iIh47MkBwAVAtmfxv6ouu1v++rVUl0T5bqpbkdx8baf7RRx9tohLEjgwQXAAcwJNmb3/7t397dKCGvjtAP1D/7zhkSd6CLZkdGSC4ALCYTN7w/qtf/WowY53AqbWpXOXfYaoYarw3W5x4N1QVT/IpgqR87vLuYEcGQHAB2J0taEhs9e12+e9l9jr/uxVxaaoYVF/n+b3LtRHdNNPuHbiV1RKqWwDBBUBAfzGnLC09NbgiiIHLKFcz1N5feE4SpnXRxY4MEFwAKg3qW7AFnSq2TrUPtVC9a3nZKrZLK5a1scEYx2zGQ6KrlcQUOzJAcAGQBV1MbB1rkK8xgDJVDGxr01Xy+8/Tuc/9Ne8c7gUABBeApmxByTaXgdO5gcRYpjuZ+VoywGUAu4U9QNh2lavWBMFQZfuSVRGtiS52ZIDgAsAWdNHvOGU/RSx6Q70ca4sbU8XQIrVNPR1bhn5N72YroosdGSC4ALAFrS62+gHU0ECNfO+1MsKmiqFV+s/SmlWVJE2GkilTCI9jk1HZkQEQXACatAWVFsCpqz5jAzWWDqRMFUPLrN03lHdYaY/uBmNM+SzXLLoiKtmRAYILAFvQVf1lCZ7myJwPZcWXtuOUf6upYmiNtXqHIniuGYyxBdHFjgwQXAAatAUlgFmz2XopsdUPWIb6PvL/m/tzMFUMW2CNKm1Z1VmqH7OsjK/9vmRHBgguAGxBVwUPS2bL1wjgTBXDVliqUrtmgmStpBA7MkBwAWAL2oxdZ2ygRoTg1J9HhJypYthSP+jc1rYaLMA1iS52ZIDgAsAW1GRvRIKmoYEaUzfhmyqGrTGXvW2pZ/KaJFU3fn5vrgQABBeABjKmZaWnliXMc2bTTRXDVqtc/URCBFFLVedL/t45VlewIwMguAC2oEktfDUvFZ1jkaqpYtgyU049XWswRu2iix0ZILgAsAVtQmwd+ky6wO+Sz8ZUMWyda6ee5t+Xe/i65ESNfUplEmVuix87MkBwAWALOqly1IrY6gvEa3f+mCqGPXBNf1G+dsjKW3uP0lIJJHZkgOACwBZUdd/DFL972ed2TvO+qWLYC5f0GA1VkpPkqKGnswbRxY4MEFwA2II2LbZKQVoGVvnfh4IrU8WwJyI+Tn3OxwZj5GtaGwZR/t1TVqHYkQGCCwBb0C7EVt8eOBQkjg3UMFUMe+OUiu4lyYvWHAJTrLko7chLjqAHQHABqMwWdGrwtcai0KUGaqQi2M8+l1PFVLewB8pezb4FbmwwRt4LW7DaTi262JEBggsAW9AuxVa/GnhooIapYtgrQza4Y8/LVnthI7ouEUrsyADBBYAtaNdi61jG/v33329qGiMw9XPRr3L9yZ/8ydGK8Jbfn5e8/9iRAYILwI5tQccoRxhfmuFtfaCGqWLYM2WlZ6ol4nsQXezIAMEFYMe2oDUax1uyYg4N1PjJT34iO43dEdHw27/92289C/fu3dtVtfdS0cWODBBcAHZqCzq2DHnPYqtfGfy93/u9pvcKAde+N4b21oUvvvhid5/FuVNa59yHCIDgAtCALWjs8B/aQ7PHfTFjgSZrEPZS5R0ajLHnXqRzRJclxwAILmCnHLO3JMgq+5f2mJUtRefPf/7zwYEaCaKMd8bWLcidwPrXf/3X3ScdThVdlhwDILiAnXJoPDGx9b+MTRUrh4h0/z09Lu4vbMFG27/3hwZj2Cf17iCikHfD2H+35BgguAAQE+/YX/ZsmTu2M2dsoEb+nYEaaHkwxtB0zr6QICZOcwMQpQAILkBvxjt2uXObwfdsu+xsRUO2q3yOBmqgNYvcufcyu9y46Hr8+LHEFQCCC8DhgRB7FlvnThU7tSoA1CoYLqnWGggxXhHf+2ARAAQXgAM9CHvvNbg0iMzXDfW95P8n2EKtXNuPaOT5+GehugWA4ALwhh/+8IdvBQc/+MEPdi0QrrVJjU12M50MtSUWpkoQWOo7LrqyKJq9GCC4fBDAQNUnwXEOzgTPQ+S/5d+03gQ9ZCn87LPPVPyutEiN7S6S6T7/c8xzNvYchlRi8m9UEc+zvw1Vti+9P48NmNl7lWsLlsJc4zxrh57F/BviEiC4gHdEVXdQJLAe6mE4lXxtvkf/4KldjA1VYvZuC5pyqlgCrCFBa6DGu6KqC+TyeeU5OrRo9xj5+lhi8/1ilyPGjj/3+byvvSfHVijs2Y5cPvc1fyb53fKs5JnJPZJnaKgCeir5HPL1eab7SUrPIAguYAeBXV781wirS4RYfmZtAXaZhc3h+P777+/aFlRObZxqaMjQQI387z0P1Mhnks93LDidgwSQ+cz3Opp7bDBGrsMUQkCV610x+5Of/KRq0ZVnIWfB0DL3ucgzn3su7wCJEBBcwIYCuxyCl2TMHz169Prp06eD5L+d+/3yO3QHTW1iq6sy7DlgmjNDf8oi2a1n/rvA7hKRlRHbY8/igwcPLkqERHztpdKYv3VI9E/9Ltrz3qkxO3IpZnLvrf175n64NPE49hyWY/DPSYTk3UB8geACGgvszsmed4fFN9988/r29vbNYfTy5cvXv/nNb04iPy9fk6/N9+i+36lZvqUPmjGxtXdb0FLZ+T0N1OgCu1NsSRFNeW6ePXv25jl68eLFm69/9erVyc9i/n3I13fP4ilBYBIhnQ14i+/DoepFrskcYijfc6/TTsfEZq7B2vsNO3fHKYnHLtHYPUd3d3dv/pZTn8M8s/n3eYbz9XmmT02MdIkQC6JBcAEV22VOsUXkMMkBkEPk1APkUvIzcuCcUg3L7z53wDe0nLPs1dqrLaicsjan0MxnvOWBGrmnTsmeRwzl+TgnwXEJCQAT/N3c3JyUCDm2e2qvgzEuTSrsoW/nmB15DdHVLbI+JfGYZyPPyDkJjkvIs57k5KmJkD2vGADBBVSXRT+0vLcTWUsEdscOmvwOxw6a/C1zZPdOEVt7tQWtsUdorPKQoKzVzzuB9TGhlcAuAVf+/rWexSRCknQ5lHFvXXiNDcZYQvzscRnyKc6AIdE1ZyX9kNDKvd8lHucWWYfcIackQnLfrm3DBwgu7No6eGjKXoTN2oHdoYMmv9sh6+GUwd45YmtvtqB8xv1q09L9FbkOQ701LWV2c3+N2QYT2C2VPb8mETJWhW4ty55nd0j0Lt0rWC5T3nKl4hxXwLnv4kveJ2O2wS7xeI49cCm6KvShREjeMaYcguACFhZaQ9m7vKhzoNQY2B06aPI7Dx0yU2TZS0FxalZ1L7agGv7OWoLkKavLCe6WsO1OLb4S8LWaZa9NvO9lGfK5duQ5RNeh6nLu6TXdHZdWoccSknkv6vECwQXMHFCMZe9aE1pjwmvM3nTJgXxN38AebEG1/Y1z7UdasrocoZVMdavPYSe8xoK9GrPstdpTy6mnW1yDcKkdeSrRdai6nHu4xmrWOeRdMlZ9nmqdAUBwAUeGDHTZuxptg9fYDafIsk/RpF3agrbmo6+xV22tQQfX9oa0WF0+Zeph7Vn2BNw1D2DZ8tTTa+3IxybGXlNdbl1olcSCP5cLBCC4gJGsf5e9a80mca7wGgv2ThFOZcb70urNVm1BZZ/a0mOaL6lYzDXK+1IBv5Xq8qVZ9jn2WF37bqxtxcCWp55OYUe+RHSNJWW2UF2+1H7f8rAhEFxAlUFnhmFsLXt3SZY9wfdYVq/MfOYwujQDuFVbUAuZ96WW1V5if9pidfnSLPvSIqK1JdpbnHo6pR35HNFV/tutVpcvcYGcUyEECC7g/wd4ZTY9h8qWs3enZNnLYC+fUXnATCm2tmoLainrPvQsLNm/MDSIIUmPLVeXL+m1XOp6RGwPifCaEyE1V5NrEZFltWxo+MaQhXBPQutUF4jdXSC4gAt7WPYc4JUHTLnHq1/xKA/tqcTR1mxBfQEz95LjOe1jQ4J77p+ZzPJeA7xTEiBz3Uv5vkMB99z3wJamgdYuIMeSZWN23j0nIPsMVbu2IOpBcAGLTXzqerUEeG9n2IcWRf7d3/3drPaKrdiC1lhyPGd1Yw6b55idN5Y6z+Db0wzL3q45bE1jVc6WEh9bmno6Z8W/fM9+/vnn7wxFidCXgHw3AXKO7R4guLBbxuwSDpNhhmxNH3744WxB3xZsQWsvOZ7qbxjq35kquBjaCZYAr7WdWksmQMqq85RCvpwUWsOwjqn+lhb/hiWq/d3znXfVvXv33nF77Klv8tx+51Ns9wDBhd0OxxgKINklLrM1ff/733/9q1/9ii1o47amOQLxoeEYqeDIpl9ma7omGJ9bWK9F61NPl7Aj53v+8Ic/ZOed0Hbf8rseBBcwy6hpdonzbU2l6JozEGjVFrTFRc6HrGbnXv8yc8/Oe9kUwyl6SZayjq5li231b1rKjsztMY/tfmt7JEFwARd54dklprU1zWWXa9UWVAYxW7GZTDFMYaiylWy6Z+t8Yr0sEyCniopcyzWGo2ypB2opO/Jc1blS1O19Ou+Utntj40FwQc+WbPokoqu0Nc3VZ9WaLWiLY6mnGhc+VGUW4E1fdT6WmFh7/P/W+qBatCPnHuD2mHeYRitTaUFwAbNk8VKdIbbmqXTNYdkpr1/ttqAyo76FxatjwvLchbjlNELWpXlE16Hsei0LrpekvO9qfiaXsCPn7y/vgfz/PEvTV7paHJYEgguYJIvHRjit6Cqz63NkY1uxBW1th9gl2fixxvHy36XK7BlaLrs+Nn4/z9ZWkwItVp3ntiOrMi8/1MaeLhBc2PwhK4u3THZ9bu96K0KmH8i00i8yVWKj3N/Tv06qzOtk17vqyNCC970kBFqaGrqEMCxFt/7Jdt0fAMGFKicSyuItl13PZz+12KjdFtTykuM5B2r8/d//vV6RBSknpn3xxRfvXJOI47019LcwOXRuO7Iq8/bcHwDBhao8+7J462XX92ILan3nz5TCswtss9+nXKaqyrx8dv3HP/7xST12e6ty1dS3NncVv0wIZeedKnP77g+A4EI1h6os3nrZ9alFUa22oC0tOZ5KHEdsffjhh299Ltkd5TlZZiFrmV3/67/+691VXVtKjMzZp1quYlBl3pb7AyC4sHqWUBZv/ez6lOKjRlvQFpcczyFCVZnXz64L9Oq0/s79O5X9ldnf5hlZz/1hiAYILjRPP0soi1fHiOqpx+LWVk0qfx+WkXftnxHhno31s+t7GpLR0tTTOatu5fJ4VeY63B9bnwwKggsbJn58B0udgd6cGds1bUF7WHI8xWhrqxjWI5ZqVa56p57OmUAqq+/s9fUM0eCEAMGFTXjzYyX0kl+XXIO5RFEttqD+cJYtLzk+t1/EcuO6+rlUuep8due2I5dizsCauqyFphaC4ELzvnwj4NenrP5MHeitbQva45LjS2y9eijrW8QqMVBHdXpOO3Ip5mJp8yyocoHgAtgm2JmaEjy19YHUaNVS3aqzysX6un7/5dyCj613n3Z7gODCYocm28R+qlxr2YL2vuR4jP6ycRNC2ZlaS9YtWXGY891VvndNCN2P3R4guKC6xc40uZ1pLVuQJcdsvexM20zYLSFE567O98VcrrnqVl1kLH//+meSpGcRBBeaOiwdLPuzMy1tC7Lk2NAaVa7t3rtLJFDmtCOz9bLbAwQXZvXAs03ss8q1pC3IkuPTdv2w9bIztVydndMiPPfPMrSG3R4guKApmJ3pDbG8tFh1Ut0ahq233ab97C90D7/dfzhnxWHOalpZ3bKLsp1lyKpcILjQRJDHNtGWnSnXrjVbkCXHpwV5qlttVbncx8tNPS0TNlOL3f73Z+ttz24v+QGCC9VRLld9+fKlF/jOD5e5rTr9RnS7jAR5LZPKx5zJj1Ype6tasz73k06SkG3w+PFjyQ8QXBDkoa3DZS5bkCXHgjzJj/31BU/5jprbjiwJKfkBEFwQ5OEdW+Ectr+5hJElx4K8LdsKJRDGe4OnmHq6hB1ZEnIbyQ99wSC4UG2Qp2ekHRKQzz3CfWpbUGlVtDNlOMjLUBT3uORH68xh/VvCjtyv7pvYK/kBgssHgUlHUAvyHC5zZ5MtORbkSX7sN5FwbdVhCTty+c7LYl33uOQHCC5AkOdwmfVwmcoWVO6X0usiyJP82EeVa6pEyxJ2ZElIyQ+A4IIgD2+Raza3vWYKW5Alx4K8PS0kTyLLfT3t1NMkaJawI/dFnSRkm/T3VEp+gOBCdYegF3X7h8tcQci1tiBLjk/vS8kCT/e15MeW3RSpcp1bnVrCjlwOXchia/e25AcILh8EBHlY5HApbUHn/BxLjgV5kh+4pv9qKTtymYR89eqV+1ryAwSXDwFX3kSCvE0eLnONWb/UFlT2gDn8BHlbJYkrttlpe7CWtCNLQkp+AAQXZs02CvLaJdduKbveubYgS47Ps1s+ffrUPd0wSVxZvDpttXtJO3L//ZYluu7pdsm71LkDggvVCS4v6O1MSLukIX0uW5Alx+dl1TXpt00pKNzf11W8l7Yj20m5zQm+qs0guCCrjuayeaeKqKWmim3JZpUgwf28nWqzkdTXWQSXtCOXvZQZL+6ebpdUKA3OAMGFqgQXr/q2BmfMnQU+NetsyfFp9INPqxnaxzTOaaaWLm1H5vpQbQYILsiqoyr7xLHMczlVbE6b45aG17AxqTbvpcp1bOrp0nbk/vCaWLTdy9tagGxYEwgurL4TRXPwtiYVLtGsf8gWZMmx4TUEF8F1zdTT0o68xOfIZq/aDBBckFVHdfaJMVuQJcdsTKrNkg2nUNqOuyrWGnZkw2sMkwIILszag5NDzsvZaPhrq1ypmpb3VoIYz5ysumZ9nDr1dC07Mpu9ajNAcEFWHVXaJ0pb0F/91V/xzRteo9qsWf8ioXPv3r03rFEhNLxm29VmyT8QXCC4MHk2b0kbX9/+Y8nx5YJLVp3g2iMZnT/0/lj6PcZmz94LEFwguHCW4Pr444/fHDBLkJ9VBkq/8zu/8/qzzz5b7HdolR/96EcE18YFl/v8OO+///4775A//uM/XvR3ILgILoDgAsGFswQX2uDP/uzPCK6NCy60B8FFcAEEFwguEFwEFwguEFwguEBwgeDCWoLrpz/96Zv+oCX48Y9/PBi0/OxnP1vsd2iV/mdHcG1TcLnPj9NPPPSTEUv+DgQXwQUQXCC4cJTHjx8v3mxejoZP75apUIZmEFyGZlx6Hq0xEt7QDIILILhAcKHasfBlZjiVNUuP7eEiuAiuS5cfr7H0uPw9Xrx44V7eAFlg3V3TL7/80vMGggvLkqpEPyB4+fKll3PjlNc0o5aXWKDdr26lolVWvGQVD9Nf8poKpXtZVn1PlHv88r+HliFbfAyLj0Fwoc0biH1CVv1KkjEcWnI8FER55lSbCS4csiP3P6u++Mm/yb9d8n1mCfk2ePDgwXfX9Ouvv/bcgeDC8nzyySeyeRsiFpglbTjlstIye7iWLaj1pa+vXr1yP8uq785OW9qPj71f2HtRq80eBBfAPiGrPsv9M5SBXssWpNqMmobXxDLqHj/NjnxqBX0uUgHpflYqI+7ltkmrRP/+WaJKCoILkM3bOLHALCVuThVTa9iCWh8aoFlfVn0PnCKmThFl7L0wvAYEFzTrY5M2plPtgmvYglSbUdPwmrmrMluw0R56LxyyHc49TEq1mesDILggm4dVmoPPHYixtC2o9Wy/Zn1Z9T0lGI5VvpeeekpwEVwAwYVZs4w52Lykt5FVnysLXAY/GbwyRa8Ge+8/qjZvhNvbW8NiJrAjj7kx5p56qtrM9QEQXJicfiCcQMFLuv0JhXNm1S+19yxpC2qRfrO+5Md2eiklF47bkU/t61xq6mm/2iz50S6Z9mo1CQguVGllcrgI8s6pVJ1j0bAMWfJDkIdr9vOVSYm5KhaSH9tMQhrYBIILVR2AdgAJ8ubqxVrSFtQiEcqmhgrytsolduS1pp5KfkhCAgQXZp3KZCS1IO+Ufr+IrzmnG0p+SH60HuSp4k5vK15qt18/+WGITfurGezCA8GF6jLrDpf2ePbs2VVZ4yUzy0vZgiQ/sPakUEHeNHbkNaaeSn60zd3dncm4ILggs462gryps8qWIUt+CPL22yt87WdTjt2fwy4m+SEJCRBcmCX72D9cEjh4aQvyOnJgXTJVbG1bUIuUfW7ucUHe1s6XS+3IS0897SeGJD8kIUFw+SAweVCdwMFLu73FjnMEeddMFVvbFiT5gSV59OiRJMJCFe0lpp72kx8J4N3jbfDy5cu33qHpP/YcguBClZl1h4sgrwtq+kMuphR0c2S9JT8gyKuLOavZZTU4/aGSH+gnIQ1mAsGF6iin0OWw8fLed5A3t23HMuTjn4vkhyBvK8mDKezIS089lfyQhAQILkxO//ByuLTVMzJ1sLGEZccy5NOSHxr269+D1+8ZEeTNa0c+NPV06n6dMvlhoFTdlFVJSTwQXGhiT4oqV72UU7SmtuQt1WM1ty1oC8mPZGzd821UtwR589uRl5x6Wgbwudbu+Xp5/PixSjMILrRxSPYrDk+fPvUSr5Rcm6WCjLn7qyxDPp65v729dd83UN1SpV3eLjz31NMy+ZR3rXu/PuIEmLuiCoILUOXasW1i6gBj6T1Zc9uCtjDdjZ2pfluvaZvrWYXnrMiX71t2+/p7tyTuQHCBnQlVV7fW2pFlGfLxa8HOtC9bb6ussfJh7qp8mYjMwCLPAFsvCC5g0mZnTfv7sU30p3ItKXwsQx7m4cOHqlwNVLfyrKhurbvuYU4bI7s9Wy8ILh8EZh/nmyqXQG/7toklporVlhlvLYBlZ9qHrXcLNtilK9VzWxnZ7VW3QHAB7Ew7rG5NOdGvnCq2hgfeMmRN+2y92zkz1hChpSia8x2ZiXiehfVtvf3qljMDBBc07aNq20QtS4gtQx4Wov3M/c3NjWdCdatqV8SaInTOxBG7vaE1ILiAySkXsKpybdM2UdMCYsuQ2ZlMQ2u/73fNkdzl7zL11NNyqJRE5DpkcAlHBAgubNbOdHd352W/ckZ9ahFSXuMI7ZrEhWXI7wpRFec6Mup2/dRhR16yl6y0TuqrXMfx0V9yzNYLggubszMl0DMSd9ksXt9KOPeOmVqyhJYhv8s//MM/vHWt9JCs20P5wx/+0H1ZqQ147n6yvqDj/li3h5KtFwQXNmsXYaNYJ4s3R0a9P3a8ptHWc9uCWiNVvlyfMtCTXV+nynzv3r3X3/ve994EenvOrNdsAe6/26ZOVJVVPe6P9ez1uc7iNBBc2GwWU3a9/Sxe7buvLEP+f4Fd/9lLoP/RRx+9dd1ub289LwtXmfv3ZoZFrG3DrcVyXtPnMHf1Pn8r98e6VeY8e6yEILiw+cNVdr3tLF7tgmbvy5AT0PUnv3X84he/eCvQk11ftso89PnvsQrbwhqHMlE4tSDk/lhvSEaewb0mOkBwYQfZ9jIANBa3zSxeTVPF1rIF1UyC9zKgT4DRDRCRXV+GjOAfEhV5Hkt7Z1f52kvGvVY78tKWR+6P5fdtWRkCggu7G6JhRHWbWbxWhlLsbRnyOYF8KZoT6Mmuz1dlHgrWy2C7e2a3Hgy2VH1eYqgH90fbvcwAwYVqrU79l5/seltZvNaWC89tC6opiB2yqh0KZsvPJn1/nqVlq8y5H8sBClu3wLbWXzl3gon7Y/kqM0BwYZeTC5OBIrquE1tLZPFaXCy8h2XIQ5WSBIaniMvSdpnsukrXdGLrlCpz7tGyyrHVgRqt2JGX/p2H3B9E17R777b47gfBBZwdJKY6o3n/spHTZWVrrixeq9Wi1qpy1w7GyPU/tWowlF1nL5zGRnjuvdaN7y8F25YGarS6I2+Jqlzp/rCjazobYe41EwlBcMHkQmOqJ8mmz7lXpPV+qK0tQ04QPhScd4Mxrs2us/qeF+CV2fRLKyG5FkN9eHmuWw8YW058LNV3VlbTOquvBMjpfcyZ9mgiIQgu4AQ7lKbh8+0S4cMPP5zNotPCVLGtWZnGKlKlDbCzy1xzTYYqXRFdbE3n23kvFb5bHqixBWvvEu/ACIM//dM/ff2Hf/iHbPdnEodM6fbIO20v02lBcAEnBcNlhp2taTybXi41Dt///vdnExNb2WnV+jLkSwZjTFF1Zms6fanxqb1zp17vrQzU2MLwmrmr/P2kRwRXEmhlAsRU32HijLnGWg0QXNjV9MIymIw1QFbv7QBvKJv+7//+7+98dlOKrtaFyhaE49hgjDkqHkN7vDLtSwLksJ13jp13YxXNljL3W1rPMJdwHKow//znPx+89mz3x+28e1t0D4ILYGtayC5RWuam8q2X37f1Bv7WrJH5/YYGY8zd0zM0wCFiPz/TcIxvBrPpS7sA8r9bsMZuaQH5HNbIoXOvfz+x3Z8+HKOVZwIEF1DFgTZka9rruOr8zUMB3lDAPYfo2tqwiZay7WsH2UNTEPecAMm9M2TnXep6rCW+2ZHnHf5RCtJc41OGaURs7NVimHdQmYA0HAMEFzCRhSov2IiPPQivTmiVh8qxoGVK0VVeg2sHAdQ6HbO2Q7omG1l+l6GpebH77kV45TMYsi2tNcTimr1r+ianeSamSkSV76JjS7KHejiTBNhL5Tnvv3IK4Vx2XoDgwm4YsjV1wmvLPvah7N051Y0yILvkMNrywuCa/7YEVTUOShiqOnfB3laz7GP9ITUsJV5igAo78rxTT88RW4fsh30XyFaF11h1ufWeQBBcQFUWsLFgb2tZ9vRpDWXvukPlnOrGJYf5nLaZrduC5qpc1DQKPL/HULVra1n2Q9XlXI9aRM1cKwKmYmt25JK+8Dm3elc+6+d+/ZDdeIsukLHqcnembe1cAsEFVCG8hoKLLWTZD2XvrgmeLhVdW5oqtoQtaIp7u6Vlt6k8D1XhtpBlP1RdTpBc4/WYcgn2XMmDrdiRp+hPm8r2nXsxP/OQ8NpidTnvHoMxQHABK2fZUyVqqaKVcdtjQmuK7F1pP0kQf65Q2+riyBqWIQ/ZZvO/W7BfHcuyt7LSIYFrhNZU1eW1rKhDVrM1dhFt2Y58rEft2H0yx2CjsUFTnQsk9vtWkiB5Z7RQXQYILuyqv2ssy97tDUoQVZO1Ir9LfqcxkTVH9u7YyOE9TBWbyxY0R5C0dm/QlFn2LuBLprq2REh+7wSi5VjpGq1519pSl76ntm5HvtQNUL5bpx7Yc8h+3001rDERkndDfq+xhEfN1WWA4MJuGMuylwfNWlm+LrAbswwuUdU4R3RtcarYHLagOaoRLQcVh7Ls/cpXxNdaiZAuez4W2E1dXa5t2NASVdM92JEvcQQMTRicq6J+yAXST4TkWVjDip9nPyIr74KhSlZr1WWA4MJuSLCXYGJsetNQlm/OgybfOz/jUPa8n33O7z53oF3afIbERQK1rU4VO8cWNOe1yGc6JLa30uOSez/31aHqc78KnWTEXBn3cwK7zm67ld6QsXH++f/NeX/vxY58joVySbFVCq+xvuehREielbkSIZ1t95C7o+/yILRAcAENBHw5zE45aLrDJtWnHAQRSTkU8j0OVcNyKOXf5N/ma/K1+R6nBHVdYJfAe+kD5djBv/WpYmtm5dcKgNfuK4r4OiUR0mXd8xzlmQoJAI8lRiLW8m8i3PI1+fpj1eS+0M21jtjd6jVYUuDvzY58io0y92b5zl0jkZXrnXv9mBukn5jsP4v5O44lRvJvOntg9yweqyb3z5t8hhYXg+ACGs08RlCcc9DMQX52lz1fO7AbE11lYLbFqWJrZebXtHjVJGrz9x6zOs1NF9jtaZz0UhbWvdmRy7Omn7DqJsKe0z+7dCLklCr0nHTuDpUsEFzABgdtLHXQdLaIGoVLDtzy9/2DP/iDXUwVW3KyWjdQovXBGHMlQk6tQk8R2O09ez73kJa92pEPTSD8/ve/X30/W679qXb8Kagl8QgQXMDCAxM6EZbDMEH2OWIs/zZfk6/N98j3yvds4TApg4O9TBVbarpaTWO6W6h+5bPOPZlrkKAsz9U5Vel81vmafH1XwWJPOq3aOsXAnr3akUvGhEsrw0PyzOTZ6Z6jPFPnirF8TZ7hfH3uq3w/VSwQXAAOHjxDbCWQGxJdn3/++a6rAKUt6NK+mdoW0baeGBlDIHeZwJ1y0fbe7ciH+tjOWTjfwvvx0LPo2QIILgAjfPrpp28FB/fu3dt1EHvNMuQEJEM2uRb3OWF/Fd0uMXBO8LynJceX9IL+n//zf17/93//t/sNILgAyMZuMyM7hS0oFa9TPot8lkMWuD1NakOblfwhG/Wp9+2elhyfK7b2tIsMAMEFYIS+reh3f/d3ia4RIXos+ByqFCSI1UOEVqxiQ5XZvAMOVWb3uOT41Mp4+T5V4QYILgA7bZ4vRUWZod2z6DplxHWCqKGG8kt7YYC1RcNQ7+GYrXaPS45PEVv5zP7jP/6D1RIAwQXsnaGpYrXujVlrsMChz+Hc4BRo5b4/JYmw5yXHx8RWV9lmtwRAcAE7ppwq1hcJRNfhDP6l9iug9YEaScx0omHPS477/W/lZ9Sf0FgOFLl06ikAggtAg/0ax6wuRNf/Zvv7n9XHH3981YABoLVexqH7/W/+5m92f/9HbJUV7qHq9jVTTwEQXAA2krkes7mUYmOvwcJQpn8o4w/saaDGnpccnyq2xuzb+jsBggvAjvqSEkhNGVhskf/8z/98/Tu/8zsGY2D3NuShtQd7q3yXDoFTKnz63QCCywcB7Lwnaeps7pZIP8ZQkPn555+7n7A7fvWrX71Z5DskuvaQfLjGaq3nDSC4AOywwfucLGs5Qj5secdUgqGxJaZsQWBH/q3d7Z27tq+1fP9ahgwQXAA2yLUZ1kPjj7cmTIcGBfz0pz9lC8Ku7cj9au9f//VfD1Z/t/pc9N+fp9ixp3IYACC4ADTCVD0EWxddQxn8/I1GYYMdeXhFQilEusmnW3o2ploIX4rWS0QbAIILQKUMLTmeSpRsQXicGjheY8sEtmpHLvf6de+F/k6qvYutsfenKacAwQVgA8yxB2bqIKTGwRgJItmCgNMquxFlZY9TJ85afTeU4miK3s1T9iACILgANFa5metwb1105XcdshDm7zhkk2QLAjvytM9UC4mqKe3TliEDBBeADTG3faVciNpKtvbabDxbENiRp6sa70lszWHzBkBwAViJJSox145KXoMp+k3YgsCOfPz9M9QXWfvC8KUGA1mGDBBcADbAUr1GrYiu/J5lRa4TS5d8NmxBYEc+v8peTv6srfK95JJ3U08BggtAwyy9ZDOBQrm7qqaMbYK7OXYGsQWBHfm099HQbrua3hFLi62h97QqF0BwAWiINTKnawQsl2bYE/xNYRNiCwI78ulJmbLqXstAjTXfXaaeAgQXgAZZUwTUJLrGBmMkwJlSgLIFgR35dIYGauR/rzVQY8gSveQ7M59t2ePmHgQILgCVU9rclhYANYiuBG9DQd0ci1hVucCOfL7IGEqGLD1Qo5b+U1NPAYILQEPUMshhqUlfpw7GSFA1p1WHLQjsyNPZfZcQHDUN+zH1FCC4ADRCeWgnmKhJ/M0tuhKkrdWYzxYEduS2ntsyMbP2+7JcV2HqKUBwAaiQGm0pS4muNTPlbEFgR26rMl1WpPNzaui9NPUUILgANFTdqsmSUgqRKYObWnpB2ILAjjzN7zDUeznl71Kr2ArpMdUPChBcACql9h6iOYKcJYIztiDsJWHTr66saa+bc7pomfypcaqoqacAwQWgQsr+obUav5cSXTXv82ELAjvyvDbhS5/xtQb5tNBHB4DgArChjGiZuT53uEQCpLUGY1xqC1prvxDQuhU24qOsYl/yvLcitlpxLAAguIBd0Vo29JpRzEMZ7wRONQ6nYAsCO/K8AzXyjJ3yu5bvyFCz2GrJtQCA4AJ2QV+8rLHkeAnRleCjL2DWHIzBFgR25PX6I89dZl7DEvYt2TwBEFzA7qhlyfEUNqYxUZJgaijIasGmxxYEduRlBmrk3VH+7i2LrdqtngAILmA3fRe1TBW7JngaC4jy9w1ZCGsZjMEWBHbk9d59x94NefbKd0uLvZTl1NND1TwABBcAdpOTRdfjx49PzmK7TsB+7MjHqt/hn//5ny/uE60RU08BggsAq8kkoqsMms7p03CtgP3Ykcvna6i/c0uVZVNPAYILgN6gSfjFL34xGCwlmGp9wh9bENiRl33GtpbgMPUUILgA6AuaxRr0+7//+830a7EFgc11XT7//PNB0bWFCaGmngIEF4AVM52tV7eGmt9LO+EWKnhsQWBxXa7q3/KwnT05GwCCC4As58x9W0ODMRJUfPHFF+8ES1uw0LAFobagfQsV5PJvyvvi3/7t35pdJ7EndwNAcAGojr5AaTlgP2WB6VAQ1bpAYQuCgH1ayuEf/Yp4iwvT92oHBQguYKck85vD7BhrBRYtThVLkJNgZ6ixfcges0XRVf79bEFgR55ObA1V7IZsy/m3LYqVNS2huV9OORNV7gGCC3jr4MrhkEM7B3KC+xxeQ8MbjpGvydfme+R75XtOefCUU8VaHLqQz2Posz1U5cnfvaV9OmxBUF1dVmz1//7+O7Tlz6EUkFNOPe1EU35GyLk2ZP0+hXxtyPeJqyHfdytDkACCCzgS7ObFP1RlmYscOPmZ12STW7eRDGWYE/yc8ndsUXSxBYEd+Tr3Qfk+OUV0jFXY89m0Vu2bKgGXzySfXd6plyQbLyG/b96B3nsguICNWQPzcr80S/f06dNBLvle+R3yu5yT5Wt5qliCmKHP/dweiq2JLsuQsWY1qNUlx937vBQG5/49+fdDPaQtfS7lNT1nGEjeP/n6SxOPjx49GjwTHzx4cJE7JO9yuwlBcAGN2mcibIYsJCU5JHJYPHv27PU333zz+sWLF2+EwqtXr17/5je/OUj+Tf7t3d3dm6/N98j3yoF0apbv2EFTVkNasWRMHdTkc7420NqLLQiYoxqyBbE1dTKopp68Q7935+44NfHYiaica7e3t2++Pt//2JkYXr58+ebf52tDvs/jx49P+rn5/HNN9YGB4AIqrqacYouIwLq5uXkjrE4RVZeS752fERF2LPPXZflKW0uL/T5z2namDLgEwtgDW7GvllXhqfqvrrE7t9CXd2riMYIowupUUXUpnRA7JSmZM0MiCgQXUNFBfGx5bgRPhE8qUXMeJofIz87vcOygiajqsnt94dLCVLElGtO3JLq2ZPUC6+qcf8ecluJLBvrUwtgZkXfJMaHVJR7nFlmHKmEReceqX7lv9XuB4AJWFlpjFa0Im2TS8lJfS2QdOmjyu40dNPmbfvazn72+d+9eM4f/kqOXk/Usf1ar068sQ8ZSz2SLz8hS/ZvnrqyoydnR/33/7u/+btQ22E88zunuuIR8/hFfEYGH7IbWaIDgAhauDIxl7yJk1srYXXrQ5Hcesh1GcP34xz+uOhBfa7nouWOhW7YFAdcG4q0OmSnfLXmvzPnzTlnKXqOw/vjjj98w1o+1prvjUjv+mBtkyH4PEFzAApa1kMxdS0JrSHjlbxgbsFHjgZ/faSg4OWdiFtHVnnUU7qklWGvxed4hQ1Wivt27tt7lMZdH/nurZ2JI1WsoGZl7OkKTIwAEFzCx0BqqonTZuxptg9cIr7Gx87V42fM7Dh3yCVKWFjylbapFW55lyFA1rUNsnTJQo4akzqHe5QitVIi2ciam4jXmAlkywQcQXNg0eZmOTVVqPXt3bJrTmPBaM4BKsDH3YIwWgzP9NtAXOM+zsObzPFTFP3fv1Rzv4KHfKYIkwmSrZ2KE15gLpMV3PgguoNos5xazd8cY87KvYW8ZEr+19De0LrosQ8YcNtvWJl/WaBPOsznksMj/b+l3zNB+w653ubZBGHO6QIaGa9RSfQQILjQ9mSrZu/i59yK0hoRXaamYYrdVawHHqX0rLYqWrexMwnq0vNut9p7MtRNOQxbCCI+We5evdYGUk35rH3ACgguohiG7RITGlvq0rhknX1a75g5KarTUnCPUW+uHsgwZexTsrQzAGRuoMecAh7GR9XtOQB6zGZr2CoILONMukQzWXqwSpx4wQ/u7prYOjTVlrzEYY0+iyzJk7M2S2toy8yXfjaniDLk9WhrzvgSxVLYwVRIEF1BddrYb9U5sDTNnVm+NLO7UAVE52KOljKdlyNhLdas1sXWs+j/l1LyhzybJNm6P82z33p8guAB2iasPmKn7qlpc/Lm1QM4yZJxbBWmxotvyM9r/7OdY/F5WursVKBKQ9dnuAYILzQ7HYJc4r3F4iqzemPBNMNHqIt6WA7qyymUZMk4dFtPCvTL07m85sTDk0Mhze0mlcczt4by7znZvCBEILuyWcpR3MlPsEpdl9coDJkHYORWVocEYW6istCq6LEPGVquhWxhuM/auuXZH4VBla09rUOa03at0geCCngPDMWbJ6p1y0A9lU7e2z6SVCWjHEhKCBbTe77dVsdX/+4b2R54yUKNMDsW5kMSL8+1y0pqgpwsEF3Y9jbCsbBFb84iusWrO2GCMrU52alF0WYaMc+7pGlc1HLM/bvWeHpq4m/899j4un/XAWj/PBMNz3B8AwYXNWLzs2JreXlj2dJXC4txggOgyfQ710drOtrLys/Vqw9BI97GBGuW/MzRqWjJwxCAiEFzY1ZCM0uMuizfPII1SWOT/NzYYI4f9XoYylAKm9qCvfGYsQ0Y3TbR/H9c+RXRvYusU23aXPCk/GwMy1nV/AAQXmqfM4qXU7zBYZmR8PvvPPvtsk4Mxth78WYaMlq2mpeDY4265iKuhgRr/8A//oJe5IvcHQHBhc0GuLN7yU5p+8pOfDGZY3Y/1i65+siLXTuO3gUMt2ExbHVgzl1DuOwzK/V0RA8TWOu4P7xUQXNik/UUWbzlKG8WPfvSjq5dybrXiWnMztWXI6PqCWpnwR2yNn4cffvjh63v37ullNrkQBBcw3ZAMWbx1veuZAmnwwnDGuaUR1a2NAMf8ldlas/NlgoB963Cyx66tdd0fElgguNA8/SBRFq8O77rx4m2KLsuQ900rVc5Wl42vVfnTy1yH+4O1EAQXNhMgOFjqGaJR+1SzNYcQ1BzMtlLhwD4rnMTWeVNHE/Q7n9Yh16KfiJTAAsGFTdgmLDden7610HjxNgNFy5D3SRIktS85jvgnts4beJLPzNlUz1JkdnsQXGjeNsGjXl+VSzDUpuiyDHl/1L6LrbV+yBqSJVnG61xav8eZ3R4EFzYTIKSy4uVeBznkDV44fchLjYKmtCUl0HXt9jPltTY7MLF1WaJEP7MqFwgugG1iJ3tITGc6Xp2tcZy1Zcj7rIrUloEnti4beGMPJbs9CC6AbUKVi+hqQHSVNjPXcfvJq9qy760tEK/lc8pn5CxitwfBBahubXw6k4z0+VauiK6apgJahryvqkhti7mJrctsyqb11j8mXgILBBeqDxD61S22iXYWPxov3mZQaRnyfu69mp5RYuuyZzQDGkzrZbcHwQWwTdhBgoaCyzJ77jpug5qrl0N2Wwkb1a0t2u3dwyC4UP1kQtWttqYzOVzaFV2WIW+7KlJT5bKF3sZaLfZ2UdZPJkfWPBEUBBfwTibPyNv2erkcLm1OYyutvHbJqG4RW/UlIVW32uvl4hgAwYXqM3le3O2Nw+VZb1d0WYa8zSC9lhHVLeynk4QE5wcILmyefiAqk9fm4WL/SLuiq/Z9TbisilTDeOoIh/69ZWz2+VNO0y/rvGnTVqiKC4IL1Y4vvru78+J2uOxmGmctAahlyO2L+dpEM7E1TRJSTzPnBwguHwRk8hwuDpeNBKI12tHQpi20FIDeD5KQnB8AwQWZPEywkyvX0j3druiyDHkbVdO1lxzX3K/YWhIyOGfa3sll8isILlRhg+m/mF68eOGF3RjJvjpcLiOTHcthAmvbMi1Dbo+aRvsTW9cTwdx9djc3N86ZBunvqYyAdl+D4EJVfSP2jDhc9v4MrD0uu5yOpsrV1jS7ta9XX7DXUG2ThATnBwguyOTJ5G2CXDsT7rYjuixDboeaKpI1L/iWhATnBwgu7PcmksnbBLl2/WspyLp+6MGawXNtPUGov+eO2Jr+c3z69KnzpVEilE3nBMGFKq0wOZy9qLdxuFhq2n7Qahly/dQyVbK8V4itaYZI2UnZNhHMrNkguFBddtYLejt9XLJ57Ysuy5Dbsp6t9czVZofdkusjlWZnyzbGw3t/guBCFVlR1gnZPAz3Nq55WFuGXO9ghb4YXqspn9iad2BGFss7W9rl9vbW4AwQXCC4MN9UJmOgtzNa2zLk+vv91rB7EltcHzhvH5d7HAQXVp+uxavOPoE6RVe5K0z1cl3KgSZrPGs1Lu3emk00Fm3nStukQmmYFAguVNUcnNK7F/R2JhUmGHOPTyO6+hWmtQSPZcj19vgtPW6a2OL6wOkYPASCC5qDwT7RyDTPtQPcmsaPm+y6XsWT2FpOTMei7Vxpn0ePHnlWQHBhXVuM5uBtj4bXz7GtQNcy5Lps2EtXGocsroQ3mz0MkwLBBc3BYJ8gumZKkliGvO47c8ngraYhLlum/3zf3d05UzY2TMo7EwQXCC5MwuPHjwmuDU+Gswy5jp7X9PUtVd0ittjsYZgUCC4QXKjUPiEY357osgy5jmu+ZGWzlp1wBBcILhBcAMEFgmsXouvJkydv/eyMjXdNlptUueQC1bJvLz/bhEqCCwQXCC4QXCC4djdCeulg2DLk9a7zUs8VsUVwgeACwQWCCwSXMdIrBcXlMuRUvVyP7Vg4S5Fn9xrBBYILBBcILhiaQXQtLLosQ17+2i4xin/twSwEF8FFcAEEFwguGAtf9QS7pcYPW4Y8L+UY/iUmAxJb69KvZr548cKZsrGx8KZ7guDCKlYZi48tPkbbo7stQ95OBbEU0J7hda+5xccWHwMEF9gn8A5lRt49vn3RtUYVZo8OgLkDtbWXauPdBEYqI86V9nnw4IFnCgQX6rFB3d7eejk3TiwwJtfVNWRhiWDdMuR5341zLzkmtuqcSJnKiHOFzR4guMA+Ac3BFbJ0AG0Z8rx9VHNeu1Qoia166E//TGXEudI2aZXoP1sGC4Hggmwerubm5oa1bKeiq6xyWYZ8uXhdasfZWn1/MEyKzR4guLCS4Mo4cS9ozcGYVnSVQxDmtLRYhtyOPZPYMkwKy7o+8ry5x0FwQTYPkzYHq3DUaU+bc8x3+bMsQ67TmklsGSYFNnsQXNhxBj6BgJf0NkbCaw7ep+iyDHmaCXVzjmRfa1E29DZzfbi/QXBhJfoZXZMKtzGhUHNwfaTaVIquOXZmWYZ8+fCKJSpOxFZbwpvVfjtJSMNoQHBhVR4+fGhwxsYGZuSaurfrr6DMFWz3n2nLkM//zOYSw8RWe5MKOT8kIQGCC7PYnZIV8rJue9eITN6+RZdlyPVVBZeqcGL6wRkJ3J0x7ZHF1fq3QHDB4YLJuLu7U9Egug5O25urH2lrPTtz9L0t2cOH6SuecQ84Z9oeImWAEAguVBdwOFzazuQZfdtGkmPuKXWWIV8mhqauDhNbnB+QhATBBbxjd0lWyAtbJg/ti66ldkq1zJy7y5bew4b5nB8J4J01kpAguIBJez4cLu1QXjvZc6JrKUHROnMK0jyH/Qqj3sr26D+bCeCdN+3w6NEjk1pBcMHhgnkWO37ve99703uQwM5EpnaSHXMG5nNb5loWu3NZLomttsn1S+Lj888/5/xokJcvX0pCguBCG9leh0ubmbzPPvvsrV6RBA0sTG0EeHMG6JYhLzdUpBRyMuztJD5ix+5XhJPA4vxoOwmpqg+CC1UGff3DJVkiL++2MnkffvjhOz0j3aGToE/j8D5Fl2XIhy3UU9k4l7CIYtoqZ56xfkKi5P333//u/04g79ypnyyr9q4DwYVmGsjZCtvK5CVYPxY8dA3EyeSqctRHuXB1ysrLEot9Dwm+Yyz5+8zxWRBbbT1n5WqGsSTVz3/+87ecH6YVttXTnGvtngfBheptNgkivMTrpJyi1Q/ucujkWvYF9BBdv5d7v95x1FONEZ9zGXK+d0RThHzuu9xXx4T/oYRAvjbfJ3SCbErxN0e1r/x78xm4n+uqIB97J3Y27H6QXjo/VLnq5unTp29dT/c+CC400Uiel5eXeP1jbw/tGekawEu72lCgobl426Jryr6lLoAtqzpz0Q+Gr6nOztHPtsQia1zel3XsHj02aKhfEU2VSyKyjd1bVqSA4EJTVa4cWl7mddsmTs3SJ1jtBw/6vdp5DqcQB9dO5uusWMcqp0MkUE0Cp6Q/9OUcuiD5nPu0FLJTBGTEVp19Wae853L9T7l/yvctu339A6QMywDBBVUuTG6bODfA64KSY5nf/Hcj5tdjjmD+nN1T3X1yrELakYAn92ZsVyEZ51MTNvlZ+be3t7dvvrYTZKfaEE8JnqfeSVZ+lsTWeuQ+PqWSn2t2SWW3fBZVuerixYsX1jCA4EL7lqa8zLzU265uHcrentLvVfY2oE3Rla89JjwSvB6rEHQCqxNWc/crRoj1p48dq9CWn1Epjq69l+eyfaLOd1eZiLy5uXEeVUIGmaSCPsdOPYDgwqITCxNYebFv3zYxd5YY10/VmyKgGFuGnGt6bNhFRE9E1lprIxJcJQGUgPeY8Or+rqmXHBNb6zowTunLmqM6z25f/7TeY1V7gOBC9SOqk2H2ct+PbWLqPgjUNXK8//0++uijg2OyI7Ly/Ndmo4r4SnUtPTX9DHd5j/7TP/3TZAEZsbXeebR2/ym7veoWCC5gFvrZbjtI6qpuJWCuadJX7hX9Xu2IroiOe/fuvf7ss89G7YIR+C098xFfY31fH3/88Ruu+czmXE6NNias5l3Y//lz22lxXnVL8g8EF5ptRLaDhG2iHAV+7i4bTCe6ys/+kh6+fJ983VAgm8RK7rWWkysJusaEV6oklwRlxFZdfVm5jmu9Y9jt699FCRBcaL5/hG99edIvM2UPz1QWn2PZ587iw3I1rei9JvDPvx0LZlsXWkMW3LGx87l3T63GElvLjHI/1j/YTaNcu4pe2kqNiV/HSlgO0VHdAsGF5jOOZQZ8rYZ5HvX6moJbC5b2KrryuY/1wCRg3PKY6/SfDfV4ndJ/NVVVEeNJmxb3ApbvO5N8lyXvLM8kCC5sfkx8Mkv6udbJ4k2xrHXufq9T7EAqBMuJrvzboR682O72kjzJs5QK3pDwGvvc5hhW4r79dtTOWtqSa542l3dd+Tdwf6xjr1+qnxkElw8Ci1COxLWHZPksXkvB3lYCq5YSIUMVm3y25TWIiN9rcBgRNTRSvny2iK31EjGtVMHzrJXuDwuRl53Um3uKawIEFzY9tdAQDVm8lkY671F0lf+tq2qpTr8buHW9kV3wNvXus732ZR177jurcavPPffHsr3M/Qq1lQwguLCr0dS867J45wZhaywt3ZvoGuqNkSB5d5phaTHMvffFF1+88/9zLxqmM0b5rHF/zGMJLgfgmIQLggu76x0xREMWb4vjn1u1/H7/+99/53OUGBm3GJZ9ktlP9oMf/IDYmvhZ3vK6CO6PeSmfUUMyQHBhF5T7uSxFlsW79n6qbcFpi6Qy80d/9Eemil7w3A31df3FX/wFsXWgWm0hOveHXmYQXMDM5LDlXZ93IuEes3in9H0kk95y38dSlefcT5r4L++blEn3fF77DN7d3Xm2Ju5llgQBwYXdUXrXZdOnsRHK4smgn/tZlYFeKjYSINMM09j7CgMV6MvdH+yF01Wdc48RWyC4sFuGAmJWivMCvKHGfQeLHpFLrUwCvOkTIHsTEnospxti0y0XlwC5vK/SREIQXMBApUvQd7mFKZ8lsXXdFLT8ty1NQTvn2Utg59maZoJheU9t3SJniui0omvI4kt0nZ/siOgntkBwASM9XWxNh+0SZSNwyGfoXjovONz6np9z+yg9X/PZC7daebYnb76errJCyHZ/+W48gOACev71oayeA+a4XYIt5zr7U8THKfanrWTmc7+YFLr8hLTcQ1sRAxFQp/Rl5b3uPTOd5TfPKtv94edMHzMILuCEg3zogElQzC7BLiGQnH4amqy5HUBzJCa8T9jul3B7PH361KAaEFzApVm9chFkd8DsMQufv3moX8twjGX6vbZklcr9UgbMsuXL78drJSDsrLdD7+Mh66330bK2+4iNva5uyDu3fK6SSFJRBcEFnEkC2fKASTb+9vZ211MI2SUEnZdS/g2y5OtUp2ufmnZOskGFfdnrMlR9j6VuL8IrQmuoqpX3rx5BEFzAhCNyQzJbW87MZ+Flmb1jlzDuesoERobSEEPLPtOlYKnRTnvo3u7stHpG67Ldd8nILbtAIijL3Vr9963qKgguYIIgd2wKVjJdW+rvGsvedROXZPDqCnxaWehaLjc2YnodUp2vabJo15d1bJT7lgbGbKXqPtZr2gmvrU/l7ZIWEpAguIAZphiO2boiUlpu/D+UvcvfzJduNPaUTfd77fuogX5CJQHzGiLmlJUIuV+3uhJhS8JrzPrZuguk610estTnubEGBQQXsEBwO2Z7SSasJeGV31X2blsB0CkVgyWXv5ZLeC03rmsp8lJTC5O0sfR7uy6QMeGVanaEVysV7bwTUwkeE1q5P1VaQXABC2dpx4RXXtYJLNM3UWMvR363sR4t2bt99XvN3RPTr2TkuVDdWp9+NTvP+1xVpFruQazvAun6NiO+ansHJPEYkVWuUCjvUdVWEFxAhV72oYNmjSxffmZ+dn6Hoayd7N0+AqE1qgv5uaYS1pnFn2vqaI1VViz/vjkmsiNuInLWcoREPOV9NJZ41LsMgguoWHgdO2S6fq8cNHNm+TpbxFhf1lBvj8BnP5XZpfpn+tnuiH2DMuqhtBJfe61r7yPEOu+aY8K76/eK+JlbfHXujkOJx/6gFr3LILiAyqfHJag45aDpMn0RYTlwQoKRUw6e/JsuSxfyPQ5ZIsrssl4JlsM5J8QlAO9/nz3tr2tlKEA/8Iw43vKkTKybkDwl0dMXYDnPIo5ytkUo5X11LGGTn5N/F0dHvi4Jx3yfUwSWlQMguIANBLWnHjRzkoDK1C8cShJMuQOp/70SQBE59ZGgtH+NT8not7wLDvUMnjom1JfA8mwQXMDGs3xLHDT5GfbX4NJg6JpApVwYvuUl4XuocnXvrkMDEbrKeZI63jc4p9/rVDv+FHT3KJEFggvYUVUhh01e/jlwEsycakMsD5B8bb5HyPd0mGCqBMElQXY/eIqlh7ipl4jhsSrXOeJb5RxTOEJy/+W9k3sqCcO8f85NUOaezNfl3s33yX2sHwsEF4DBYDcHxCFkkbG0NfYUG1n+XTmMgbCpm/6kti+++OLo5NXOXiqIxdLVsENINAIEFwBspjJ7qP/iRz/6kd6txshAk+6a3bt3b/IBKgAAggsAcGG/VzkQ5nvf+569W42Riaf9a/jpp5++YxllGQQAggsAsHK/19/+7d+yE27AVvg3f/M3prcBAMEFAKiNfv9Wpt8RMm2OiE+vnvsZAAguAEBl9KdsZmkpIdMOqUb2q5OqWwBAcAEAKqIM2O/u7giZxujv5Eq10n0NAAQXAKASymXHWapLxLRFqpL9YRnuawAguAAAldCfVnhzc0PANEiqkuXQE/c2ABBcAICVyZTCfqD+4sULAqZR+tcxVUv3NwAQXACAlck+LnbCbZDqZH/RsfsbAAguAMDKZGdTF6Q/fvyYcGmYVCeNhwcAggsAUBFffvmlcfAbHQ/v/gYAggsAsDL379//LkDPAl3CpV1iB7WPCwAILgBARbz33nv2b210cMbz58/d4wBAcAEAVn2ZF6PEiZa2SR9edz3Tn+ceBwCCCwCwErGcmVC4LZ4+fUpwAQDBBQCogVjO+oKLYGmf9OF11zP9ee5zACC4AAAr0R8Jn8oIwbItwfXJJ5+4zwGA4AIAEFwwGh4AQHABwIYFl5HwBBcAgOACABBcILgAgOACABBcILgAAAQXABBcBBfBBQAguAAABBcILgAguAAABBcILgAAwQUABJex8AQXAIDgAgDMKrgeP35MsFh8DAAguAAAU/H8+fO3qiEEy7YE1/37993nAEBwAQDW4ttvv31LcL169YpoaZxYQ7vrmQqm+xwACC4AwJov857gSv8P0dI2sYZ21/PJkyfucQAguAAAa/Lee+99F6C/ePGCaGmcvoCOZdQ9DgAEFwBgRdLnYzT8NogltC+4Yhl1jwMAwQUAWJEvv/zyuwD92bNnhIuR8AAAggsAMBVGw2+HWEK7a/nBBx+4vwGA4AIArM3XX3/9VlXk17/+NfHSKDc3N99dx4cPH7q/AYDgAgBU8ULvCS6DM7bRv/XVV1+5twGA4AIA1ECqIV2gnioJAdMed3d371Qq3dsAQHABACog1RALkNsmA0+66/fJJ5+4rwGA4AIA1EKqIWyFbfPgwQMLjwGA4AIA1EqqIsbDb8NOmPHw7mkAILgAABWRqkgXsKdaQsi0QxZWGwcPAAQXAKBiyqW5qZoQM23w6NGj765b9qq5nwGA4AIAVG4rTNWEmKmfly9fviWUv/32W/cyABBcAIAaSXWkC9xTNSFo2AkBAAQXAGAiUh0phy8QNe3YCb/88kv3MQAQXACAmkmVRJWrvepWeP78uXsYAAguAEDNlEuQ7eSqkyyn7u/eun//vvsXAAguAEBrwzNUuVS3AAAEFwBgQhK894N5Ewvr4te//vVb1S29WwBAcAEAGiMWtf4i5FjYiJ06ePbs2TvDTdyzAEBwAQBUuTBBdat/XVS3AIDgAgA0SoL5fnCfYJ/oWZenT59+dz3ee++9N9fEvQoABBcAoEFiVesLrljZiJ71KK9HFlW7TwGA4AIANEyC+n6Q//LlS+JHdQsAQHABAKYgQX2C+y7Qf/z4sQEaFYyBz7409ycAEFwAgA1WuW5uboigBcny6f7n/8EHH7gvAYDgAgBsif6YeFMLlyMWzv7OrVQbv/32W/ckABBcAICtWQs/+eSTt0RXKi9E0XzEutkXW+Hrr792PwIAwQUA2CKprPT7uQzRmJf0y/U/6ydPnrgPAYDgAgBsmXIhciow9nNNT0bwW3AMAASXDwIAdkgm5PXFgMmF03J7e/vW5xsrpxHwAEBwAQB2RCouliJPz93d3Vufq31bAEBwAQB2SjlEg+i6jv/6r/8ykRAAQHABAP4fqbxkJ1RfdD19+pS9cIJdW5YbAwAILgDA4OTC9HSZXnj5gIyQZdPuLwAguHwQAIA3oqu0F8YaF4scQXV4z1YqgipbAACCCwBw1F748OHDd8RDJu4RV++SCuCjR4/eGZChZwsAQHABAEaJFa4UXYZpvDuJsD8coxv9noqgewgAQHABAA5S7umyq2t8x1ZIZdDodwAAwQUAuGqYRix0qe7sUWhFUN3c3BiOAQAguAAA0xCLXDlMoxsdv5eBGqnqffPNN+98BhGjhmMAAAguAMDVwzS+/PLLdwRHJ7zy37cstMpeLcMxAAAEFwBglr6ucklyf6jGloRXlhgPCa3OQqhfCwBAcAEAZhNeZW9Xt7crFaGWB2ukP60c9d6RKp8phAAAggsAsIjNMJWeQ8KrpYpXhNbQAuNw//59QgsAQHABAOrq7+pGyUd8ZUlwbf1ZsQ0OTR3sC63nz5+7zgAAggsAsC6pAGUX1Zh46UbKR3ytNd0w4jA7tMYqWR3pUzN9EABAcAEAqiMVoQivIathaTvMoI1Y+ebs+UplLSIvlbZDv0/I+HtCCwBAcAEAmuDrr79+Yzc8Jr46AZbKUyx+EUix+6USdkofWP5dhFu+LuT7jA2+KIk4fPLkiR4tAADBBQBol+ysypCNsbHySxHxFxGYSpbR7gAAggsAsMl+r1SVYuFbQmRF5EVkpeLm8wcAEFwAgN2QKlP6viKGUgGLMMp0wEsqYfm6WATzfSLo8n1ZBQEABBcAAAesiBFOh/A5AQAILgAAAAAguAAAAAAABBcAAAAAEFwAAAAAQHABAAAAAAguAAAAACC4AAAAAIDgAgAAAAAQXAAAAABAcAEAAAAAwQUAAAAAILgAAAAAgOACAAAAAIILAAAAAEBwAQAAAADBBQAAAAAElw8CAAAAAAguAAAAACC4AAAAAIDg8iEAAAAAAMEFAAAAAAQXAAAAAIDgAgAAAACCCwAAAAAILgAAAAAAwQUAAAAABBcAAAAAEFwAAAAAAIILAAAAAAguAAAAACC4AAAAAAAEFwAAAAAQXAAAAABAcAEAAAAACC4AAAAAILgAAAAAgOACAAAAABBcAAAAAEBwAQAAAADBBQAAAAAY4v8CErKT16ZLtdIAAAAASUVORK5CYII=;" vertex="1" parent="1">
          <mxGeometry x="150" y="110" width="140" height="113.15" as="geometry" />
        </mxCell>
        <mxCell id="0sxkKxFfAbdUbiCfdQnR-8" value="&lt;b&gt;&lt;font style=&quot;font-size: 16px;&quot;&gt;Log&amp;nbsp; and NotLog&lt;/font&gt;&lt;/b&gt;" style="rounded=0;whiteSpace=wrap;html=1;strokeColor=none;fillColor=none;" vertex="1" parent="1">
          <mxGeometry x="155" y="70" width="130" height="50" as="geometry" />
        </mxCell>
        <mxCell id="0sxkKxFfAbdUbiCfdQnR-9" value="&lt;span style=&quot;font-size: 16px;&quot;&gt;&lt;b&gt;Log level&lt;/b&gt;&lt;/span&gt;" style="rounded=0;whiteSpace=wrap;html=1;strokeColor=none;fillColor=none;" vertex="1" parent="1">
          <mxGeometry x="347.51" y="70" width="130" height="50" as="geometry" />
        </mxCell>
        <mxCell id="0sxkKxFfAbdUbiCfdQnR-10" value="&lt;span style=&quot;font-size: 16px;&quot;&gt;&lt;b&gt;VS&lt;/b&gt;&lt;/span&gt;" style="rounded=0;whiteSpace=wrap;html=1;strokeColor=none;fillColor=none;" vertex="1" parent="1">
          <mxGeometry x="480" y="144.45" width="80" height="30" as="geometry" />
        </mxCell>
        <mxCell id="0sxkKxFfAbdUbiCfdQnR-11" value="&lt;span style=&quot;font-size: 16px;&quot;&gt;&lt;b&gt;Combined&lt;/b&gt;&lt;/span&gt;" style="rounded=0;whiteSpace=wrap;html=1;strokeColor=none;fillColor=none;" vertex="1" parent="1">
          <mxGeometry x="556.18" y="66.06" width="130" height="50" as="geometry" />
        </mxCell>
        <mxCell id="0sxkKxFfAbdUbiCfdQnR-12" value="" style="shape=image;aspect=fixed;image=data:image/png,iVBORw0KGgoAAAANSUhEUgAAA1wAAAK3CAYAAACREU4xAABw7klEQVR42u3dPahmaVb2ccFXFEGrA1GhmZEOBjtoh+6gx0Q7qGCKCaShYMw6sJpJZCINCjESKiiYSGhOYDAGRUcGHVUwJy4aTE4oZhVOVuEY1stV77vbXXft/Xzuj/ve+xf8wbHrfD37417XWtda67f+53/+5zUAAAAAYHp+y4cAAAAAAAQXAAAAABBcAAAAAACCCwAAAAAILgAAAAAguAAAAAAABBcAAAAAEFwAAAAAQHABAAAAAAguAAAAACC4AAAAAIDgAgAAAAAQXAAAAABAcAEAAAAAwQUAAAAAILgAAAAAgOACAAAAAIILAAAAAEBwAQAAAADBBQAAAAAEFwAAAACA4AIAAAAAggsAAAAACC4AAAAAAMEFAAAAAAQXAAAAABBcAAAAAACCCwAAAAAILgAAAAAguAAAAAAABBcAAAAAEFwAAAAAQHABAAAAAAguAAAAACC4AAAAAIDgAgAAAAAQXAAAAABAcAEAAAAAwQUAAAAAILgAAAAAgOACAKDkv/7rv14/f/789VdfffX6H//xHw+Sf/ftt9/63AAABBcAAB2//vWv34ilTjjdv3//9SeffPL6t37rty7mvffee/N9vvzyyzffM4It4s3nDQAguAAAuxBZEUEPHz68SlidS4RcBJhKGACA4AIAbM4e+OTJk4uqV48ePXr99OnTg5z7PT/44IM34uvrr792fQAABBcAoD1SSYqoibg5JoAeP378Rjh98803r29vb98ItJcvX77+zW9+czKvXr1683UvXrx4832ePXv25ns+ePDgqAUx9sNU3VJ9c+0AAAQXAKBaThVZNzc3b8RRRM45wuoS7u7u3giwVMuO/V4RX3q+AAAEFwCgKlIhOiS0UmmK6In4STVqbpE1RipnqYClqnZIeEU4qngBAAguAMCqZMrgWG9WKkoRNxFZawmsQ0RQxcI4Jr5iNyS8AAAEFwBgFaGV8etDQiW9U7Hl1SiyDvWARRyOCa9U8Fx3AADBBQCYlQip9DmNVbRaE1pDVa9YH8emG5psCAAguAAAkxMhEnvdmNDKAIyWhdaQ8BobOZ/Knn1eAACCCwAwCREXQ31aGYQRG96WhFZJKnZjwovNEABAcAEAru7VSg9TKTYitNacNrg0qeANjZWPvdJ9AgAguAAAZ5MKztD+rCV2Z9VKphoOWQxNMgQAEFwAgJMZGoyxdfvgOTbD2Cn7n00sl/q6AAAEFwDg6HCMoX6trQ3FmGKoRrm/K9ZLUwwBAAQXAGB0OEZGn5eDMV6+fElkjezuisWyFKdPnjxxPwEACC4AwP+Sykw5HCMVnD33a53K0MJkwzQAAAQXAGB0OEaW/+5pCuEUUwzLvq6HDx+6vwCA4PIhAMDebYRlZctwjMuI9bIUXVkW7T4DAIILALDTARllz5bhGNf3dZXDNCxIBgCCCwCwQ8pphCpb81W6jIwHAIILALAjyj1b6dkilqbd1VWOjLccGQAILgDADsjY8nIaoQEZ03N7e/vOcmSiCwAILgDAhnn+/Pk7e7aIrflI5dC4eAAguAAAO2BoIqGlxvNTDtEwuRAACC4AwMaIla0ckmEi4XKTCx89evTWZ59F0+5LACC4AAAbHZJhIuG6kwsN0QAAggsAsBHKiXk3NzdE0AqkoshaCAAEFwBgY9y/f9+QjEqHaEQMu0cBgOACADRKOZWQlXBdYiM0tRAACC4AgOoWZiKiV5ULAAguAEDjZBKeqYR1Ti3sD9CIKHa/AgDBBQBojA8++OC7oD5jyYmdeqtcsX66ZwGA4AIANMJXX32luqXKBQAguAAAU5PBDNnz1AXzT58+JXIaGBMfkez+BQCCCwBQOdnvVA5lIHDqJFbP7jrFAur+BQCCCwBQOapb7XB3d6fKBQAEFwCgFcrJhLEXEjZ18/jx4++u18OHD93HAEBwAQBqJYt0u+A9gTxBUz+3t7ffXbNUJ93HAEBwAQAqpT8KPqPHCZr6SRWyX5VMldK9DAAEFwCgMr799tu3AveXL18SNA3aClOldD8DAMEFAKiM/nRCi47bXYTMVggABBcAoEI++eQTdsJGSTWyX51MtdI9DQAEFwCgErJrqx+wZ9w4IdPuTq5UK93XAEBwAQAq4cmTJ98F6w8ePCBgGrcVWoIMAAQXAKBSO+GzZ88ImA0sQU7V0r0NAAQXAGBlyrHiL168IGAaJdXJ7jqmaun+BgCCCwCwMl999dVbguvVq1fES6OkOtldx/v377u/AYDgAgCsTX8c/NOnTwmXjdgKjYcHAIILAFABDx8+NA5+I5TTJt3fAEBwAQBWJtYzgmsbxA7aF1zPnz93jwMAwQUAWPVlbv/WpiC4AIDgAgBUKrhiSSNa2iZ9eBYgAwDBBQCogFRA+oKLYGmfm5sbggsACC4AQA18/fXXBNfGSB+e0fAAQHABACrASPjtcXt7+901/eSTT9znAEBwAQBqEFyxohEsRsMDAAguAMAMgstIeIILAEBwAQAILhBcAEBwAQAILhBcAACCCwAILoKL4AIAEFwAAIILBBcAEFwAAIILBBcAgOACAILLHq4tcXd3R3ABAMEFAKiBJ0+efBeYP378mGDZAKlUdtf0/v377nMAILgAAGvx/Pnzt6ohBMu2BNfDhw/d5wBAcAEA1uLbb799S3D9+te/JloaJ9bQ7nrGMuo+BwCCCwCw5su8J7gycIFoaZtHjx59dz1jGXWPAwDBBQBYkQ8++OC7AP3FixdES+P0BXQso+5xACC4AAArksEKRsNvg1hCy4qlexwACC4AwIr0R8Pf3NwQLnZwAQAILgDAHIIr/T+ES7vc3t5+dy1jFXV/AwDBBQBYma+//tqkwo2QXWrddfzyyy/d3wBAcAEAauC99977LlBPlYR4aY9Xr169JZy/+uor9zYAEFwAgBpINaQL1FMlIWDaIxMmy0qlexsACC4AAFshJiADT7rr9/DhQ/c1ABBcAIBaKMeJ28fFTggAILgAABOSqojx8G1yd3dn/xYAEFwAgJpJVaQftKdqQsy0wbNnz767bp988on7GQAILgBATf1bGZrx0UcfvSW4UjUhZtrgwYMH3123/N8RXU+ePDE4AwAILgDAGnz77bdvFh5nOW5fZH344Yff/d+pmhAz9RP7YP8avv/++2/971hFI6rd9wBAcAEAZh6MkapHqh/9gLzPp59++lalhKCpn2+++WZUbPXJrrVUMiO2PQ8AQHABzfL8+fM32eRUDw6Rf5N/6zPDEr1Z/YEYQ6TSFTGWpcemFbY1nbBvJ+zeLadc7/xbwzWwRDU9Z13eL4fOxLyn8u/ckwDBBXx3gORwyCGRwOb+/ftvsseHApxj5Hvke+V75mCShca1wj/VjEP3Zf5b7rfyXutXwB49emR4RiPVrdC/lqdUNLt3T95n+r1wKRFJ/URj7qnSrnwuuW/zfbrvmXeaexQEF7CTwQLXHiLnkJ+Vn6n/AqcGPUN9WSXHenoS2PT/fYJ64qY+yt1peVdce2943+CcxOMpgn5q8v5KgkAlDAQXsJF+l7zUj1UJxnj69OlBzv1++R26g0aWD+V9eizoyX8/595JZrnfy6XKVfco+HN2b11T/QSRdYpwH+Lx48cHz8RU0y+pgkX0EV8guIDGKgR5eR/rf+isVjkkkv0PGaGdr79kwli+tvs+px48+R0dNPuuuM7Zp5PASpWrXl6+fPnW9cl1vlSsn9rf512zb3fHKYnHnF9Zmp73Rfo/c8/kPjv33s7XpZ+0OxMj1k5xhEgSgOACKu936Wf0D2XocgDkQFgioMrPOuWgye9uAMc+ssunVCammkSX79P/3ucGTpiPfpU81/zaqneXbDpWKVVl30/ysXz+h0j1O5XWJXb25Z6LiIugO8UREvHlPgXBBVRyqBwTWhE8ybStGWzmZ+d3OGZFJLy2W3U9pS8rgfDUP7v/M+zlqnPv1iXVrVNsY6cIe/1e27MoH7v2cWAkGXiJo2PK6ZwReXkn9ad0DlW9pn4vAgQXMFH2Lhm0ZNJq7FvJ79Rl+cYOmvxt7D/t92UdSwZ0/QtzZnETfPV/5hLVXZxe3UpAOef17+xkRsxvn7xLxoRWl3is9fnvbPljdvzco5KRILiAhbN3Y1m7FncO5XceO2RYKtrslagpuM390w/CEuwTPes+7/37YansfU1JAExLrutYBT0VpNasxHk3jrlBuEBAcAEzM2aTSJUombHWp7DlbxiqePGytzH1q2b7VpmkWNNKtPclx/3kSoLkvdlcMW3v8ljPXhwUrfds5j4d64HOvakiC4ILWCh7twWhVQZk5SJUXvZ6+7JaGVCQn99/hiLsDdBYfwx8Df1TSw9ywTTXbKxSmcrQ1hIqh1wguS8lI0FwARNPWWvZJnHukI0yOHPA1NGX1eoI7gT3ZU+H3VzLVrBLa1SNltg5VxVgmgTkkDiOINl65To9aEMukNyTkgEguIALg9uh6sEWs3fHRssPednz2RBdy9l2trJktkxgxHZEDC0zEKAMEGt+fudaxo1prcEt9y5f6wIphVfewSZuguACzrRLlBbCvFz33HeSv720VOSAkdWbzzKY4OZYj0uLY7VLK5KFyPMnTfrBYWvP7anPQipjAt75BPCQ22NrlvpzXSBD+7ziLnDPgOACLrBLsD79b2ZvqIFYX9d0Qc0pfVkRLC1n9Yeqx3vKkK85JKP153VL1d6WBG/5vEbAL7GouEWrLts9CC7gArtE+piIrcON93MsTt2byN9b30qC4X7QnADOfq7pKRMkW3pOW+5nbPU57SyEntV3h2qUFkO2exBcwBl2CYfJePPwkKXHAWMy26VDNBKwSG7MlxjJvaQyrN/rHEE7tLzYM3qadZftHgQXcMTexC5xeiP+UFZPNlkvyqkkUBbQzZ8Q2Uu2vdtJd+gZW3snXctuD8/W+bb73G9s9yC4sHuxxS5xfVZv6IAhus6fthbxscfse1ldzlRMous6e1P5PO7xvoqgOlZF7qy6qhDjz6Mey2ls90QXCC7sljIIll2/PKtXjo7fu3+9C/bsE7r8WZT4mCbQ27uY6JIeY4t6y6THnp/HsuK89+m8U9vuCXsQXNh9Fo9dQs/IVHamU/qyMm3Nc3jc2ivYM0F0altvRMUptt69fXZDPZWSHtNXmyXYQHBht1k8lS1T0QRw6wuuH/7wh6///M///J3PLpliz9ZhW285+v0P//APX7///vsy6hIkpoZWJrpMLwTBhd1m8Ygte39YlNalP947wkvD/uWDa37wgx+8vnfvnilpLMAnv8/KhJGeLe4PEFyALF5j43G3EvRpwl/G3huhaiT15asZfvGLXxhNvcCQm62MmC8TR9ahcH+A4AIm7RGRxZs3876FSWmnjJnuMpbGTE8jtrr7xNLV8SryseXj5Vjv3L9sTNY4HHv+bm5unF/cHyC4AFm81ncBtSLOLVKdn1NEwdgwjTy/e6x2RQSUQdvYnp9DYhbnJ162tqi8rCKrIHN/gOACZPF41xcJQPq9RGOWQX1Z0wd7hwKPiISh/poELnsZqJH7rVy9cErARnSt956oud8rQ0DKZyn3hTNrefeH6jMILmyC8mCRxVt/XHVN9pvcH6dkrvVlrSO2DlXE+jbDrdqDE4gN2QfPEU9ldT9iwX2430r40JAMvczLkgq9IRoguLAp+oehLN56oqtvo8hhrzfDlNBLloHm2o1VF1IB2srerrE+re75Oaf3Y8iWKcBb551SQ69nmbjQy1yH+8NuRhBc2Ewm3cFSzy6SpZuF9zh9rPYpodfcBwlOPv3001Hh1WpiJUIr2e9y1HvIqPef/exnkw0NIrrWm2a6VtU890H/98qz4nyqIxGZSqjnBwQXmqSfbYztyEt+Xfo9KEtNLUzw03q/BbE1nkxJkPK9731v8Lomg5x+iVaa6ceEVj63zz777I3guiYoK4Nto6mXSfIce/8sua+vrG6xEtZlLVTlAsGF5iegbcVq1Hrj/xLB3jkTxRxwy9itphRbZQ9KV5U8dL0zKCdV1pr6N/O5JOAqpw6WVah/+Zd/mawHcmrhi9OfgVP6vSLO5qqwl+9fy8TroP/8r223B8EFsE2ocp0U0JzSlyXAXPZZnNrKViZTOtGcn5X/dkh4de+DTDdc2nYYsZeKWwLdoUpWOWihX/Ho39fXBmVE1/rV3mP36RwJoXJipX5mdnsQXIDq1kbJIT9Vlauz7JRT2MYsO/qy2hdbZTJlyGJ36vS4bmppqkx5R8xR/cr3TUCVCtux3+VQkF0OG8nfd23QX/58A2LW6/ea2/JcXm97KOuiP8nXmHgQXGjSvsQ2Uf90pnMDiaWCFNQltoay9Meub1f5PNZHU4qwVMESlHZibKzXJSKtE1X5txFW+dpjFazyPj1leEI/sTBFdfjS8fyYr99rruRR//vm3rQaZZ92exBcANvEjqtcpwTi59hwZOrrew4TKE7dg3KugOsPMThmO5yTLmg+V9yUOwWnCMqIrnZHzJ9qjy7vG9UtQ6VAcAGagk1nqqrRHNOIrSmuzdQVnq5SeiywnYLuHr224npuhe9S0aUyXE+/16kDgMaEcv/9mQENqlv1TipV5QLBheYCPbaJtnaQJCA9Z5RyguSlRiljfbE1R3VnKLjNz8n3DhF4p/SBdfdj/n3+/nxtxFy+19RJgGurfEtfN6y74qLs/bOLsi27vWcQBBeqpJ8FZJtor8pV67JQnEYE8FyVkr7w2XtT+diURqJrX/1epyxx/9u//Vu7KBu225tYCIILVWb/9G61fbj85V/+5eguIn1ZdTNnL1D5vfcehJwyqZHo0u8VsixbErLdiYVTVbABgguzZH1l8to8XP7qr/7qrSBSXxaxVS45thh0uJo4VUJirumSmJ9UOvsugU8//fSt6zg2aRN1kR2B/XepexsEF6qiH5TJ5LV5uCQbqy+rvab+Mqs+5bLWuexzW3vnTSlEia5tJEF++tOfSkJuwPnB3QGCC9UGfTJ57U5mElC39dyVPXdT2v3mtM5tsbJ47TJkoksSEmyFILgAdsKNkmtmFC6xdayfyLCUd5l6VH7ZH1Re4ylFHebt7epft7u7O2dNowOl2KhBcKEa+plYu7ccLlh2aMMcgfhc48+32Lcz57j8JYQ15u3xy/oN50zbzg/JJhBckMnD1ZTX0OFSt9hawmpWVm709Y1T7maa+rMiuiQhwfkBggsyeTJ5G6C/BJltad9ia4klx1tOOi1xTSRGJCGx3BLkvHfd2yC4UE0Pw83NjRe1wwULZM1DKiut9SXtoY91ruEzc47/x3zX6dWrV86YBolQnrNyDYILOO8m6r2QXrx44UXtcMEMLLUQ15Ljuic6El1tWUwlITk/AIILk9tcZPLaxnj4fYutcpS1ASr1VbmGfo4qZL2V6Ow5dLa0SwQzazUILqxOFgL2D34v6O00Cats1BnEzym2LDluR7AuKcJxuesjTgFnyzYm+NpDCIILVQSDT58+9YJunFxD2bx6e0HmtI9ZctyeJZPoqn9gRsaLO1vaJRVKFX8QXKhKcPGqb2twxlwDGVBnr05Z3dIX1MbQkXIkvYE3ddnsnSvbWpniHgfBhdUDi5TevaDZJ9Ce2LLkeN6ge85q8VKrAnD+sxuLtnOlbfJ8GSYFggtV9StoDt7WpMIE+e7x5RlacpteyaWmqlly3N5nSnSx2cMwKRBc0BwM9glcKLbmHl5iyfE2qoZDosu1XFdoc31sb5iU0fAguLB6QJED38tZNg/tiK2l+432PmFy7r64te4hsNkbJgUQXNAcDIKraiJy+vbcpQ52S47nv65LT34kutal/9nHou1M2VZvs2FSILhAcGHybB7BtUxQvlb/jSXHy1e5lnimiC42exgmBYILBBcILqwstkohMPdgDtXLZYXt0pMuQXARXADBBYILBFfVDfZLHuaWHK83KnzJahPRRXCB4ALBBYILBNduSSWrXFi71MCKNWxue6dfyVxyOAnRRXCB4ALBBYILBBextaDYsuS4jvflktPOSoEdW6NplAQXCC4QXCC4sBKPHz8muDYc/JY2RkuO1xkZvvSC6TVFPsEFggsElw8BBBeMhd+FvcuS43VZu7pIdC07+fPFixfOlA1wc3PDEQCCC+tO35LN2xZD19S9vp1eGkuO67OTrnkP2Cs07+dr8bHFxwDBBfYJvEOZgXePT0NGrvc/1zUC7fJ3ePLkiWuzUqJqzQmRa64i2JtlOJUR50r7PHjwwPoMEFyQzcN03N7eWoQ7MbUsobXkuN4+vqWtu0TXMtc2lRHnCps9QHCB4ILm4B2IrVSzLDmuq8rVF8ARP2tX2til5qkkO1e25fpgwwbBBdk8TNocLPi6fkBCDWLLkuM2evrWuDdqSQgYJgU2exBcwImZ84wT94LWHIy6LFuWHNdL/x5ZazcW0aW3GVwfILggm4eVvOpsZ+2LLUuO23p/rpXkiOgqh7p4/qcRXHd3d86WjQguEz1BcGHVHpX+4fLy5Usv6Y2MhFcJaX8YQTmC3Jj/uvtg1xzVX8PaAr3NqI04d7g+QHChCvp2lEy585Juf0Jhrql7+3qBs8YwhNqqJ2inCkl0Tf8eYLXfThJS1RcEFxwumLR/i3ViGrG15kQrS47bvXfWrEQOiS6V0esmFebZc8a0x4sXL0woBMEFhwum49WrV5rmNyS2ymdSdat+K2pNkyRru585P7D21F5JSBBcqK5JOFkhL2uZvD1O6qylImDJcXvUNk2S6OL8kISUhATBhcpI9qd7MSUr5IXdbibP6Nu2e15KAShQaLPKtWb/H9E1/bshAbyzph0yXdLAIRBccLhgUh48ePDdtUvA7p5uU2xZcryte2ptsVzb1M3WBDTnR7s8e/asquQHCC7A4SKTtzuG9hbVMEbfkuP2Ke2ga1eUiC7OD0lISUgQXKiI/qGc7JCXtkzeVsVWv4pUi22vHC+uybtNahznT3RNY+913khCguACJj1ckh3y4m4vk2eaXZtia6jfRpDQLjWO9M/9VN77Mv/nJUESyDtz6ifLqg0dAsEFhwsm4+XLl29dM0tOT++PqingLC2OhPO2LKu1VJNqTjhwfmAqHj165F0KggvtHC5ZpOvl3Y6dUCavXUuVJcfbo9aKJdF1nfPDnsq27ISSkCC4UCVl036CBC/xOikrkjJ5bYqtGnt+ML2Fr6aevPKeE5ie7vxQ5WqnuiUJCYILzdiuVLnqJddGVeS8qm2NwygsOd5PAqumqZM1rkVopVqpylUnma6scguCC81QHsRGxKtubSVQqm3xa217mzBvAqu2vWpE12XX0Yj4+sju0P4AKTsMQXChCfpZ95TovdDZJoitfQXj2IeoLqtwquXs9q1PJrTDEAQXmuHrr79+6+V1e3vrpc420WxwVJvYqt1uhn3ZRmtPTrDbQ3ULBBc2S39yWl5meal5uddV3bLouE2bVM0DFbDPwShE13kTC61Oqbe6ZYchCC40HSTkpeblzjZBbE0f3AoQ9pXAqtW2F+Ffii7Xjt2+ZvIc1TqBFgQXcNEBrMrFNkFsXY8lx/ukhete+woFQ6VwaBel5BUILjSLHSSqW60Es+Uy1/QhqnRAZZPoYrc3rRcguNBckCCjt/6gDAHQYbFV6yARS44lsFro3RsSXe7V8efYmPh1HB/9fmbJKxBc2FyQEF6+fOmlvxD5rPtWwnv37r3+z//8T/dmY2JraFqdAMEEzVor1a09W0vz2Wef6XFekcePH0sIgODC9jN6EQAJFr34l83ihb/8y798E6zvfUFp7r++gKn90LXkGN1928r+NaJr+PrFYZDE10cffcT9UUHfFscHCC5sulk4GSbe9WWzeGVWda9Zvdb6TMog2/S3fVOOF69ZxBBdb38W/STPhx9+yP2xMNkJan0BCC7srp/LEI1ls3jl2OYuQ76nA6fFpn5LjnHMXmoCaFtW0O5z+OUvf/mO+0Mich6y96z8/IktEFzYLGWwy7u+bBavzI53B0+tU/mmphSdtY/HL3sgjfNHyPPaUrV6r6Ir793+VMKhRFf5Tub+mL+XeY+iHwQX9M7wri+cxctBUwrfLmjbcsavrLC2YCex5BhjtLYiYG+iK6K4tAyGCCzuj2V7mUt7vR5YEFzY5XS4ZJ5415fN4iU4G7K5RIRsMQhqUWyVe2I0d+PQMKIWejLLd84Wp21e+m7l/piHp0+f6l0GwQWWGKJrOrFVTiQ8JYt3ThZ2K/0TrQR5lhxjixXQFpMf5yQTL3UPDLk/Yg93vl1e2Sp7mWvdXQeCC1g0EI7oYi+8zEbYr2ydm8VLkDbUZ5DDqfVAqFUbkyXH2HIVdIuia4r+2KGpjuyF55N7qbQRmkgIggsytMUhxUpxOvmsys/v0qBrbJJWq1PxWu4Z6WfJLTnGFqdYlkmeVqsPeTbHJsBeUnEcch0YpHG5tb57h+p/BcGF3TOUGby5uXHAnGmXmKISUu6KabXCUlpWQytiy5JjnBvwtzjJssUVDUOV6CFL9hTv4fL7st0fJw6Zod45CSsQXMCRrF5elA6S41OX8tlNFZjnMx+qPLYyUKPlZatlH4clx7gkadXKmoeWRdeQIyDP7lTvyKHPhu1+GbcHQHBh89MLhw6YWAEcKIftEnMIoSERnP9d80CNlsVWy/YwrE9Ly5APVehqr6iPDcZIcD91JWUs+cV2/3YCMo6Y8jPiDADBBRw5YIYGOMjqrWOXiNgdCi5qHKhRLglu7dBt1RqGOm20LU0abSVRks90KAk1d0WR7X48ATnk9pCoAsEFXDFMIwfMHi2G+ZuH+rWWtEuM2WdqOdi20A9iyTGmHETR2iqBmkXX2GCMvHOWek6HHAdZBZIptXu1EJZuj63ukQTBBSw6PKA/JncPmb38jUO+9LWy1xFXNQ7U2ILYsuQYUz2jLQ+7SbBcvl/W7ker6b03NtQoy333Yr2P06PcOdk5AgzHAMEFTDwFKpmtiJEtCq9OaJXZuxrsEjVkercmtlqvTECldM5E25rrHGqs7I/Z7jvhtVUXSO7jIaFlTyEILmDCAyYv1DHhtaX+rrHsXXeo1BKIJyga6mVY2gI0tEBVVQJ7ZgvV0rVFVwu9q/mMhqpdnQtkK8Ir1yJCcujvjPDUrwWCC5jhEBzq7eq87C0Lr/jwx4TW559/XmWWeslpXaeKrRYrQ/3PUHULc1RmWgxKh0TXEu/BWpJJp/KLX/zi9b179zbnAhnrXe7e9YQWCC5gAeF1yFIR4dXCIZPfMb/rWPbu448/fv3pp59Wbwuaex/NlsWWJceYyxWwhYmXSz7nre4fzLWN4PrRj3500H7fytLkJB/HhFbOFe9IEFzAClasMeHVLU6+vb2tylqR3yW/UznKtrRJ/PKXv2zKFjTWazeHPa4ckbxU5nuOAK/V3Ulor8rVyjLkNUTX2DCK2u29pR35n//5n0ddIJ0TJOKrpsmGXeIxImuob7l7x7Nag+ACViaBxJiXvTxo1sjy5WfmZx8SWUPZu9ZsQWMDNSIgpxJENTXUs32hdrYi6OcUXUMV+lZ2OY3ZkfO+HXoXl5WviJyIr6UdIfk9I7KGFhbX3LsMEFzA/w/Gjx0ynfjqDpo5ql/5np0tYqwvq2zEHrJJtGoLmms56JbEliXHWMOy2tIy5PJ5mXoa6Zg1vcal7pfakSMa8zkNuQ+G9lxGBM0xXj6CLt/3mLujL6gjtOwiBMEFVH44J7g/9aDpRFh6qVKJ6iwXhw6e/LfQ/ft87SkHSScU8rvlgDx2sLdqC5p6oMbQfp6WK0Jlxt6yTszZ47OFoSxTiq6hJcL5360I0kvsyHnH5Dw55gbpV8ByriVxmDOuE2Nj1bD8Tp2oyr+PgBvrTx4TWfn8iSwQXEDDlsNzDpo5yM9OcHCJYGrVFtSN87+2CT3/tgyOWm6ctuQYa/b5tNwLc63oanUwxtR25LyDIm6GkmJL0rk7WAZBcAEbo8vyLXHQdLaIaw/y1m1BQ9nkU/+OrYmt0Le9tjrwA+65NRMW5Tvh1HfJ0Hu/tR6hqe3I+TxPteNfS+fuaHWAC0BwAVccNskO5sDOwZtD59Dkw6GBEPmafG2+R77XHMFM67ag/L5Dn2v+f2N/SxlYbGEpsCXHUFWdJnF2TiKmnGw6VV9pDdWtqStzee/mPdU5Q3Kv5D19qkMkojb/Pl8b8r0MBALB5UMABOoLD9Q4JfCZo0lePw32zNyBeo2i65JED+EMgOAC2IKatwUd23mzVbFlyTG2ZEWrMRHVF5LXWJmdAQAILoAtqHkRcqh5/cMPP3ynsXoL18+SY7Q+bKGFREaEyBdffDE4uKjlqh47MkBwAWALmnSgxhwLTgW6wDaFfym6plpHwY4MgOAC2II2YQsaW0Cav/O///u/XTOAtfUon3322TvvkHv37m1iIh47MkBwAVAtmfxv6ouu1v++rVUl0T5bqpbkdx8baf7RRx9tohLEjgwQXAAcwJNmb3/7t397dKCGvjtAP1D/7zhkSd6CLZkdGSC4ALCYTN7w/qtf/WowY53AqbWpXOXfYaoYarw3W5x4N1QVT/IpgqR87vLuYEcGQHAB2J0taEhs9e12+e9l9jr/uxVxaaoYVF/n+b3LtRHdNNPuHbiV1RKqWwDBBUBAfzGnLC09NbgiiIHLKFcz1N5feE4SpnXRxY4MEFwAKg3qW7AFnSq2TrUPtVC9a3nZKrZLK5a1scEYx2zGQ6KrlcQUOzJAcAGQBV1MbB1rkK8xgDJVDGxr01Xy+8/Tuc/9Ne8c7gUABBeApmxByTaXgdO5gcRYpjuZ+VoywGUAu4U9QNh2lavWBMFQZfuSVRGtiS52ZIDgAsAWdNHvOGU/RSx6Q70ca4sbU8XQIrVNPR1bhn5N72YroosdGSC4ALAFrS62+gHU0ECNfO+1MsKmiqFV+s/SmlWVJE2GkilTCI9jk1HZkQEQXACatAWVFsCpqz5jAzWWDqRMFUPLrN03lHdYaY/uBmNM+SzXLLoiKtmRAYILAFvQVf1lCZ7myJwPZcWXtuOUf6upYmiNtXqHIniuGYyxBdHFjgwQXAAatAUlgFmz2XopsdUPWIb6PvL/m/tzMFUMW2CNKm1Z1VmqH7OsjK/9vmRHBgguAGxBVwUPS2bL1wjgTBXDVliqUrtmgmStpBA7MkBwAWAL2oxdZ2ygRoTg1J9HhJypYthSP+jc1rYaLMA1iS52ZIDgAsAW1GRvRIKmoYEaUzfhmyqGrTGXvW2pZ/KaJFU3fn5vrgQABBeABjKmZaWnliXMc2bTTRXDVqtc/URCBFFLVedL/t45VlewIwMguAC2oEktfDUvFZ1jkaqpYtgyU049XWswRu2iix0ZILgAsAVtQmwd+ky6wO+Sz8ZUMWyda6ee5t+Xe/i65ESNfUplEmVuix87MkBwAWALOqly1IrY6gvEa3f+mCqGPXBNf1G+dsjKW3uP0lIJJHZkgOACwBZUdd/DFL972ed2TvO+qWLYC5f0GA1VkpPkqKGnswbRxY4MEFwA2II2LbZKQVoGVvnfh4IrU8WwJyI+Tn3OxwZj5GtaGwZR/t1TVqHYkQGCCwBb0C7EVt8eOBQkjg3UMFUMe+OUiu4lyYvWHAJTrLko7chLjqAHQHABqMwWdGrwtcai0KUGaqQi2M8+l1PFVLewB8pezb4FbmwwRt4LW7DaTi262JEBggsAW9AuxVa/GnhooIapYtgrQza4Y8/LVnthI7ouEUrsyADBBYAtaNdi61jG/v33329qGiMw9XPRr3L9yZ/8ydGK8Jbfn5e8/9iRAYILwI5tQccoRxhfmuFtfaCGqWLYM2WlZ6ol4nsQXezIAMEFYMe2oDUax1uyYg4N1PjJT34iO43dEdHw27/92289C/fu3dtVtfdS0cWODBBcAHZqCzq2DHnPYqtfGfy93/u9pvcKAde+N4b21oUvvvhid5/FuVNa59yHCIDgAtCALWjs8B/aQ7PHfTFjgSZrEPZS5R0ajLHnXqRzRJclxwAILmCnHLO3JMgq+5f2mJUtRefPf/7zwYEaCaKMd8bWLcidwPrXf/3X3ScdThVdlhwDILiAnXJoPDGx9b+MTRUrh4h0/z09Lu4vbMFG27/3hwZj2Cf17iCikHfD2H+35BgguAAQE+/YX/ZsmTu2M2dsoEb+nYEaaHkwxtB0zr6QICZOcwMQpQAILkBvxjt2uXObwfdsu+xsRUO2q3yOBmqgNYvcufcyu9y46Hr8+LHEFQCCC8DhgRB7FlvnThU7tSoA1CoYLqnWGggxXhHf+2ARAAQXgAM9CHvvNbg0iMzXDfW95P8n2EKtXNuPaOT5+GehugWA4ALwhh/+8IdvBQc/+MEPdi0QrrVJjU12M50MtSUWpkoQWOo7LrqyKJq9GCC4fBDAQNUnwXEOzgTPQ+S/5d+03gQ9ZCn87LPPVPyutEiN7S6S6T7/c8xzNvYchlRi8m9UEc+zvw1Vti+9P48NmNl7lWsLlsJc4zxrh57F/BviEiC4gHdEVXdQJLAe6mE4lXxtvkf/4KldjA1VYvZuC5pyqlgCrCFBa6DGu6KqC+TyeeU5OrRo9xj5+lhi8/1ilyPGjj/3+byvvSfHVijs2Y5cPvc1fyb53fKs5JnJPZJnaKgCeir5HPL1eab7SUrPIAguYAeBXV781wirS4RYfmZtAXaZhc3h+P777+/aFlRObZxqaMjQQI387z0P1Mhnks93LDidgwSQ+cz3Opp7bDBGrsMUQkCV610x+5Of/KRq0ZVnIWfB0DL3ucgzn3su7wCJEBBcwIYCuxyCl2TMHz169Prp06eD5L+d+/3yO3QHTW1iq6sy7DlgmjNDf8oi2a1n/rvA7hKRlRHbY8/igwcPLkqERHztpdKYv3VI9E/9Ltrz3qkxO3IpZnLvrf175n64NPE49hyWY/DPSYTk3UB8geACGgvszsmed4fFN9988/r29vbNYfTy5cvXv/nNb04iPy9fk6/N9+i+36lZvqUPmjGxtXdb0FLZ+T0N1OgCu1NsSRFNeW6ePXv25jl68eLFm69/9erVyc9i/n3I13fP4ilBYBIhnQ14i+/DoepFrskcYijfc6/TTsfEZq7B2vsNO3fHKYnHLtHYPUd3d3dv/pZTn8M8s/n3eYbz9XmmT02MdIkQC6JBcAEV22VOsUXkMMkBkEPk1APkUvIzcuCcUg3L7z53wDe0nLPs1dqrLaicsjan0MxnvOWBGrmnTsmeRwzl+TgnwXEJCQAT/N3c3JyUCDm2e2qvgzEuTSrsoW/nmB15DdHVLbI+JfGYZyPPyDkJjkvIs57k5KmJkD2vGADBBVSXRT+0vLcTWUsEdscOmvwOxw6a/C1zZPdOEVt7tQWtsUdorPKQoKzVzzuB9TGhlcAuAVf+/rWexSRCknQ5lHFvXXiNDcZYQvzscRnyKc6AIdE1ZyX9kNDKvd8lHucWWYfcIackQnLfrm3DBwgu7No6eGjKXoTN2oHdoYMmv9sh6+GUwd45YmtvtqB8xv1q09L9FbkOQ701LWV2c3+N2QYT2C2VPb8mETJWhW4ty55nd0j0Lt0rWC5T3nKl4hxXwLnv4kveJ2O2wS7xeI49cCm6KvShREjeMaYcguACFhZaQ9m7vKhzoNQY2B06aPI7Dx0yU2TZS0FxalZ1L7agGv7OWoLkKavLCe6WsO1OLb4S8LWaZa9NvO9lGfK5duQ5RNeh6nLu6TXdHZdWoccSknkv6vECwQXMHFCMZe9aE1pjwmvM3nTJgXxN38AebEG1/Y1z7UdasrocoZVMdavPYSe8xoK9GrPstdpTy6mnW1yDcKkdeSrRdai6nHu4xmrWOeRdMlZ9nmqdAUBwAUeGDHTZuxptg9fYDafIsk/RpF3agrbmo6+xV22tQQfX9oa0WF0+Zeph7Vn2BNw1D2DZ8tTTa+3IxybGXlNdbl1olcSCP5cLBCC4gJGsf5e9a80mca7wGgv2ThFOZcb70urNVm1BZZ/a0mOaL6lYzDXK+1IBv5Xq8qVZ9jn2WF37bqxtxcCWp55OYUe+RHSNJWW2UF2+1H7f8rAhEFxAlUFnhmFsLXt3SZY9wfdYVq/MfOYwujQDuFVbUAuZ96WW1V5if9pidfnSLPvSIqK1JdpbnHo6pR35HNFV/tutVpcvcYGcUyEECC7g/wd4ZTY9h8qWs3enZNnLYC+fUXnATCm2tmoLainrPvQsLNm/MDSIIUmPLVeXL+m1XOp6RGwPifCaEyE1V5NrEZFltWxo+MaQhXBPQutUF4jdXSC4gAt7WPYc4JUHTLnHq1/xKA/tqcTR1mxBfQEz95LjOe1jQ4J77p+ZzPJeA7xTEiBz3Uv5vkMB99z3wJamgdYuIMeSZWN23j0nIPsMVbu2IOpBcAGLTXzqerUEeG9n2IcWRf7d3/3drPaKrdiC1lhyPGd1Yw6b55idN5Y6z+Db0wzL3q45bE1jVc6WEh9bmno6Z8W/fM9+/vnn7wxFidCXgHw3AXKO7R4guLBbxuwSDpNhhmxNH3744WxB3xZsQWsvOZ7qbxjq35kquBjaCZYAr7WdWksmQMqq85RCvpwUWsOwjqn+lhb/hiWq/d3znXfVvXv33nF77Klv8tx+51Ns9wDBhd0OxxgKINklLrM1ff/733/9q1/9ii1o47amOQLxoeEYqeDIpl9ma7omGJ9bWK9F61NPl7Aj53v+8Ic/ZOed0Hbf8rseBBcwy6hpdonzbU2l6JozEGjVFrTFRc6HrGbnXv8yc8/Oe9kUwyl6SZayjq5li231b1rKjsztMY/tfmt7JEFwARd54dklprU1zWWXa9UWVAYxW7GZTDFMYaiylWy6Z+t8Yr0sEyCniopcyzWGo2ypB2opO/Jc1blS1O19Ou+Utntj40FwQc+WbPokoqu0Nc3VZ9WaLWiLY6mnGhc+VGUW4E1fdT6WmFh7/P/W+qBatCPnHuD2mHeYRitTaUFwAbNk8VKdIbbmqXTNYdkpr1/ttqAyo76FxatjwvLchbjlNELWpXlE16Hsei0LrpekvO9qfiaXsCPn7y/vgfz/PEvTV7paHJYEgguYJIvHRjit6Cqz63NkY1uxBW1th9gl2fixxvHy36XK7BlaLrs+Nn4/z9ZWkwItVp3ntiOrMi8/1MaeLhBc2PwhK4u3THZ9bu96K0KmH8i00i8yVWKj3N/Tv06qzOtk17vqyNCC970kBFqaGrqEMCxFt/7Jdt0fAMGFKicSyuItl13PZz+12KjdFtTykuM5B2r8/d//vV6RBSknpn3xxRfvXJOI47019LcwOXRuO7Iq8/bcHwDBhao8+7J462XX92ILan3nz5TCswtss9+nXKaqyrx8dv3HP/7xST12e6ty1dS3NncVv0wIZeedKnP77g+A4EI1h6os3nrZ9alFUa22oC0tOZ5KHEdsffjhh299Ltkd5TlZZiFrmV3/67/+691VXVtKjMzZp1quYlBl3pb7AyC4sHqWUBZv/ez6lOKjRlvQFpcczyFCVZnXz64L9Oq0/s79O5X9ldnf5hlZz/1hiAYILjRPP0soi1fHiOqpx+LWVk0qfx+WkXftnxHhno31s+t7GpLR0tTTOatu5fJ4VeY63B9bnwwKggsbJn58B0udgd6cGds1bUF7WHI8xWhrqxjWI5ZqVa56p57OmUAqq+/s9fUM0eCEAMGFTXjzYyX0kl+XXIO5RFEttqD+cJYtLzk+t1/EcuO6+rlUuep8due2I5dizsCauqyFphaC4ELzvnwj4NenrP5MHeitbQva45LjS2y9eijrW8QqMVBHdXpOO3Ip5mJp8yyocoHgAtgm2JmaEjy19YHUaNVS3aqzysX6un7/5dyCj613n3Z7gODCYocm28R+qlxr2YL2vuR4jP6ycRNC2ZlaS9YtWXGY891VvndNCN2P3R4guKC6xc40uZ1pLVuQJcdsvexM20zYLSFE567O98VcrrnqVl1kLH//+meSpGcRBBeaOiwdLPuzMy1tC7Lk2NAaVa7t3rtLJFDmtCOz9bLbAwQXZvXAs03ss8q1pC3IkuPTdv2w9bIztVydndMiPPfPMrSG3R4guKApmJ3pDbG8tFh1Ut0ahq233ab97C90D7/dfzhnxWHOalpZ3bKLsp1lyKpcILjQRJDHNtGWnSnXrjVbkCXHpwV5qlttVbncx8tNPS0TNlOL3f73Z+ttz24v+QGCC9VRLld9+fKlF/jOD5e5rTr9RnS7jAR5LZPKx5zJj1Ype6tasz73k06SkG3w+PFjyQ8QXBDkoa3DZS5bkCXHgjzJj/31BU/5jprbjiwJKfkBEFwQ5OEdW+Ectr+5hJElx4K8LdsKJRDGe4OnmHq6hB1ZEnIbyQ99wSC4UG2Qp2ekHRKQzz3CfWpbUGlVtDNlOMjLUBT3uORH68xh/VvCjtyv7pvYK/kBgssHgUlHUAvyHC5zZ5MtORbkSX7sN5FwbdVhCTty+c7LYl33uOQHCC5AkOdwmfVwmcoWVO6X0usiyJP82EeVa6pEyxJ2ZElIyQ+A4IIgD2+Raza3vWYKW5Alx4K8PS0kTyLLfT3t1NMkaJawI/dFnSRkm/T3VEp+gOBCdYegF3X7h8tcQci1tiBLjk/vS8kCT/e15MeW3RSpcp1bnVrCjlwOXchia/e25AcILh8EBHlY5HApbUHn/BxLjgV5kh+4pv9qKTtymYR89eqV+1ryAwSXDwFX3kSCvE0eLnONWb/UFlT2gDn8BHlbJYkrttlpe7CWtCNLQkp+AAQXZs02CvLaJdduKbveubYgS47Ps1s+ffrUPd0wSVxZvDpttXtJO3L//ZYluu7pdsm71LkDggvVCS4v6O1MSLukIX0uW5Alx+dl1TXpt00pKNzf11W8l7Yj20m5zQm+qs0guCCrjuayeaeKqKWmim3JZpUgwf28nWqzkdTXWQSXtCOXvZQZL+6ebpdUKA3OAMGFqgQXr/q2BmfMnQU+NetsyfFp9INPqxnaxzTOaaaWLm1H5vpQbQYILsiqoyr7xLHMczlVbE6b45aG17AxqTbvpcp1bOrp0nbk/vCaWLTdy9tagGxYEwgurL4TRXPwtiYVLtGsf8gWZMmx4TUEF8F1zdTT0o68xOfIZq/aDBBckFVHdfaJMVuQJcdsTKrNkg2nUNqOuyrWGnZkw2sMkwIILszag5NDzsvZaPhrq1ypmpb3VoIYz5ysumZ9nDr1dC07Mpu9ajNAcEFWHVXaJ0pb0F/91V/xzRteo9qsWf8ioXPv3r03rFEhNLxm29VmyT8QXCC4MHk2b0kbX9/+Y8nx5YJLVp3g2iMZnT/0/lj6PcZmz94LEFwguHCW4Pr444/fHDBLkJ9VBkq/8zu/8/qzzz5b7HdolR/96EcE18YFl/v8OO+///4775A//uM/XvR3ILgILoDgAsGFswQX2uDP/uzPCK6NCy60B8FFcAEEFwguEFwEFwguEFwguEBwgeDCWoLrpz/96Zv+oCX48Y9/PBi0/OxnP1vsd2iV/mdHcG1TcLnPj9NPPPSTEUv+DgQXwQUQXCC4cJTHjx8v3mxejoZP75apUIZmEFyGZlx6Hq0xEt7QDIILILhAcKHasfBlZjiVNUuP7eEiuAiuS5cfr7H0uPw9Xrx44V7eAFlg3V3TL7/80vMGggvLkqpEPyB4+fKll3PjlNc0o5aXWKDdr26lolVWvGQVD9Nf8poKpXtZVn1PlHv88r+HliFbfAyLj0Fwoc0biH1CVv1KkjEcWnI8FER55lSbCS4csiP3P6u++Mm/yb9d8n1mCfk2ePDgwXfX9Ouvv/bcgeDC8nzyySeyeRsiFpglbTjlstIye7iWLaj1pa+vXr1yP8uq785OW9qPj71f2HtRq80eBBfAPiGrPsv9M5SBXssWpNqMmobXxDLqHj/NjnxqBX0uUgHpflYqI+7ltkmrRP/+WaJKCoILkM3bOLHALCVuThVTa9iCWh8aoFlfVn0PnCKmThFl7L0wvAYEFzTrY5M2plPtgmvYglSbUdPwmrmrMluw0R56LxyyHc49TEq1mesDILggm4dVmoPPHYixtC2o9Wy/Zn1Z9T0lGI5VvpeeekpwEVwAwYVZs4w52Lykt5FVnysLXAY/GbwyRa8Ge+8/qjZvhNvbW8NiJrAjj7kx5p56qtrM9QEQXJicfiCcQMFLuv0JhXNm1S+19yxpC2qRfrO+5Md2eiklF47bkU/t61xq6mm/2iz50S6Z9mo1CQguVGllcrgI8s6pVJ1j0bAMWfJDkIdr9vOVSYm5KhaSH9tMQhrYBIILVR2AdgAJ8ubqxVrSFtQiEcqmhgrytsolduS1pp5KfkhCAgQXZp3KZCS1IO+Ufr+IrzmnG0p+SH60HuSp4k5vK15qt18/+WGITfurGezCA8GF6jLrDpf2ePbs2VVZ4yUzy0vZgiQ/sPakUEHeNHbkNaaeSn60zd3dncm4ILggs462gryps8qWIUt+CPL22yt87WdTjt2fwy4m+SEJCRBcmCX72D9cEjh4aQvyOnJgXTJVbG1bUIuUfW7ucUHe1s6XS+3IS0897SeGJD8kIUFw+SAweVCdwMFLu73FjnMEeddMFVvbFiT5gSV59OiRJMJCFe0lpp72kx8J4N3jbfDy5cu33qHpP/YcguBClZl1h4sgrwtq+kMuphR0c2S9JT8gyKuLOavZZTU4/aGSH+gnIQ1mAsGF6iin0OWw8fLed5A3t23HMuTjn4vkhyBvK8mDKezIS089lfyQhAQILkxO//ByuLTVMzJ1sLGEZccy5NOSHxr269+D1+8ZEeTNa0c+NPV06n6dMvlhoFTdlFVJSTwQXGhiT4oqV72UU7SmtuQt1WM1ty1oC8mPZGzd821UtwR589uRl5x6Wgbwudbu+Xp5/PixSjMILrRxSPYrDk+fPvUSr5Rcm6WCjLn7qyxDPp65v729dd83UN1SpV3eLjz31NMy+ZR3rXu/PuIEmLuiCoILUOXasW1i6gBj6T1Zc9uCtjDdjZ2pfluvaZvrWYXnrMiX71t2+/p7tyTuQHCBnQlVV7fW2pFlGfLxa8HOtC9bb6ussfJh7qp8mYjMwCLPAFsvCC5g0mZnTfv7sU30p3ItKXwsQx7m4cOHqlwNVLfyrKhurbvuYU4bI7s9Wy8ILh8EZh/nmyqXQG/7toklporVlhlvLYBlZ9qHrXcLNtilK9VzWxnZ7VW3QHAB7Ew7rG5NOdGvnCq2hgfeMmRN+2y92zkz1hChpSia8x2ZiXiehfVtvf3qljMDBBc07aNq20QtS4gtQx4Wov3M/c3NjWdCdatqV8SaInTOxBG7vaE1ILiAySkXsKpybdM2UdMCYsuQ2ZlMQ2u/73fNkdzl7zL11NNyqJRE5DpkcAlHBAgubNbOdHd352W/ckZ9ahFSXuMI7ZrEhWXI7wpRFec6Mup2/dRhR16yl6y0TuqrXMfx0V9yzNYLggubszMl0DMSd9ksXt9KOPeOmVqyhJYhv8s//MM/vHWt9JCs20P5wx/+0H1ZqQ147n6yvqDj/li3h5KtFwQXNmsXYaNYJ4s3R0a9P3a8ptHWc9uCWiNVvlyfMtCTXV+nynzv3r3X3/ve994EenvOrNdsAe6/26ZOVJVVPe6P9ez1uc7iNBBc2GwWU3a9/Sxe7buvLEP+f4Fd/9lLoP/RRx+9dd1ub289LwtXmfv3ZoZFrG3DrcVyXtPnMHf1Pn8r98e6VeY8e6yEILiw+cNVdr3tLF7tgmbvy5AT0PUnv3X84he/eCvQk11ftso89PnvsQrbwhqHMlE4tSDk/lhvSEaewb0mOkBwYQfZ9jIANBa3zSxeTVPF1rIF1UyC9zKgT4DRDRCRXV+GjOAfEhV5Hkt7Z1f52kvGvVY78tKWR+6P5fdtWRkCggu7G6JhRHWbWbxWhlLsbRnyOYF8KZoT6Mmuz1dlHgrWy2C7e2a3Hgy2VH1eYqgH90fbvcwAwYVqrU79l5/seltZvNaWC89tC6opiB2yqh0KZsvPJn1/nqVlq8y5H8sBClu3wLbWXzl3gon7Y/kqM0BwYZeTC5OBIrquE1tLZPFaXCy8h2XIQ5WSBIaniMvSdpnsukrXdGLrlCpz7tGyyrHVgRqt2JGX/p2H3B9E17R777b47gfBBZwdJKY6o3n/spHTZWVrrixeq9Wi1qpy1w7GyPU/tWowlF1nL5zGRnjuvdaN7y8F25YGarS6I2+Jqlzp/rCjazobYe41EwlBcMHkQmOqJ8mmz7lXpPV+qK0tQ04QPhScd4Mxrs2us/qeF+CV2fRLKyG5FkN9eHmuWw8YW058LNV3VlbTOquvBMjpfcyZ9mgiIQgu4AQ7lKbh8+0S4cMPP5zNotPCVLGtWZnGKlKlDbCzy1xzTYYqXRFdbE3n23kvFb5bHqixBWvvEu/ACIM//dM/ff2Hf/iHbPdnEodM6fbIO20v02lBcAEnBcNlhp2taTybXi41Dt///vdnExNb2WnV+jLkSwZjTFF1Zms6fanxqb1zp17vrQzU2MLwmrmr/P2kRwRXEmhlAsRU32HijLnGWg0QXNjV9MIymIw1QFbv7QBvKJv+7//+7+98dlOKrtaFyhaE49hgjDkqHkN7vDLtSwLksJ13jp13YxXNljL3W1rPMJdwHKow//znPx+89mz3x+28e1t0D4ILYGtayC5RWuam8q2X37f1Bv7WrJH5/YYGY8zd0zM0wCFiPz/TcIxvBrPpS7sA8r9bsMZuaQH5HNbIoXOvfz+x3Z8+HKOVZwIEF1DFgTZka9rruOr8zUMB3lDAPYfo2tqwiZay7WsH2UNTEPecAMm9M2TnXep6rCW+2ZHnHf5RCtJc41OGaURs7NVimHdQmYA0HAMEFzCRhSov2IiPPQivTmiVh8qxoGVK0VVeg2sHAdQ6HbO2Q7omG1l+l6GpebH77kV45TMYsi2tNcTimr1r+ianeSamSkSV76JjS7KHejiTBNhL5Tnvv3IK4Vx2XoDgwm4YsjV1wmvLPvah7N051Y0yILvkMNrywuCa/7YEVTUOShiqOnfB3laz7GP9ITUsJV5igAo78rxTT88RW4fsh30XyFaF11h1ufWeQBBcQFUWsLFgb2tZ9vRpDWXvukPlnOrGJYf5nLaZrduC5qpc1DQKPL/HULVra1n2Q9XlXI9aRM1cKwKmYmt25JK+8Dm3elc+6+d+/ZDdeIsukLHqcnembe1cAsEFVCG8hoKLLWTZD2XvrgmeLhVdW5oqtoQtaIp7u6Vlt6k8D1XhtpBlP1RdTpBc4/WYcgn2XMmDrdiRp+hPm8r2nXsxP/OQ8NpidTnvHoMxQHABK2fZUyVqqaKVcdtjQmuK7F1pP0kQf65Q2+riyBqWIQ/ZZvO/W7BfHcuyt7LSIYFrhNZU1eW1rKhDVrM1dhFt2Y58rEft2H0yx2CjsUFTnQsk9vtWkiB5Z7RQXQYILuyqv2ssy97tDUoQVZO1Ir9LfqcxkTVH9u7YyOE9TBWbyxY0R5C0dm/QlFn2LuBLprq2REh+7wSi5VjpGq1519pSl76ntm5HvtQNUL5bpx7Yc8h+3001rDERkndDfq+xhEfN1WWA4MJuGMuylwfNWlm+LrAbswwuUdU4R3RtcarYHLagOaoRLQcVh7Ls/cpXxNdaiZAuez4W2E1dXa5t2NASVdM92JEvcQQMTRicq6J+yAXST4TkWVjDip9nPyIr74KhSlZr1WWA4MJuSLCXYGJsetNQlm/OgybfOz/jUPa8n33O7z53oF3afIbERQK1rU4VO8cWNOe1yGc6JLa30uOSez/31aHqc78KnWTEXBn3cwK7zm67ld6QsXH++f/NeX/vxY58joVySbFVCq+xvuehREielbkSIZ1t95C7o+/yILRAcAENBHw5zE45aLrDJtWnHAQRSTkU8j0OVcNyKOXf5N/ma/K1+R6nBHVdYJfAe+kD5djBv/WpYmtm5dcKgNfuK4r4OiUR0mXd8xzlmQoJAI8lRiLW8m8i3PI1+fpj1eS+0M21jtjd6jVYUuDvzY58io0y92b5zl0jkZXrnXv9mBukn5jsP4v5O44lRvJvOntg9yweqyb3z5t8hhYXg+ACGs08RlCcc9DMQX52lz1fO7AbE11lYLbFqWJrZebXtHjVJGrz9x6zOs1NF9jtaZz0UhbWvdmRy7Omn7DqJsKe0z+7dCLklCr0nHTuDpUsEFzABgdtLHXQdLaIGoVLDtzy9/2DP/iDXUwVW3KyWjdQovXBGHMlQk6tQk8R2O09ez73kJa92pEPTSD8/ve/X30/W679qXb8Kagl8QgQXMDCAxM6EZbDMEH2OWIs/zZfk6/N98j3yvds4TApg4O9TBVbarpaTWO6W6h+5bPOPZlrkKAsz9U5Vel81vmafH1XwWJPOq3aOsXAnr3akUvGhEsrw0PyzOTZ6Z6jPFPnirF8TZ7hfH3uq3w/VSwQXAAOHjxDbCWQGxJdn3/++a6rAKUt6NK+mdoW0baeGBlDIHeZwJ1y0fbe7ciH+tjOWTjfwvvx0LPo2QIILgAjfPrpp28FB/fu3dt1EHvNMuQEJEM2uRb3OWF/Fd0uMXBO8LynJceX9IL+n//zf17/93//t/sNILgAyMZuMyM7hS0oFa9TPot8lkMWuD1NakOblfwhG/Wp9+2elhyfK7b2tIsMAMEFYIS+reh3f/d3ia4RIXos+ByqFCSI1UOEVqxiQ5XZvAMOVWb3uOT41Mp4+T5V4QYILgA7bZ4vRUWZod2z6DplxHWCqKGG8kt7YYC1RcNQ7+GYrXaPS45PEVv5zP7jP/6D1RIAwQXsnaGpYrXujVlrsMChz+Hc4BRo5b4/JYmw5yXHx8RWV9lmtwRAcAE7ppwq1hcJRNfhDP6l9iug9YEaScx0omHPS477/W/lZ9Sf0FgOFLl06ikAggtAg/0ax6wuRNf/Zvv7n9XHH3981YABoLVexqH7/W/+5m92f/9HbJUV7qHq9jVTTwEQXAA2krkes7mUYmOvwcJQpn8o4w/saaDGnpccnyq2xuzb+jsBggvAjvqSEkhNGVhskf/8z/98/Tu/8zsGY2D3NuShtQd7q3yXDoFTKnz63QCCywcB7Lwnaeps7pZIP8ZQkPn555+7n7A7fvWrX71Z5DskuvaQfLjGaq3nDSC4AOywwfucLGs5Qj5secdUgqGxJaZsQWBH/q3d7Z27tq+1fP9ahgwQXAA2yLUZ1kPjj7cmTIcGBfz0pz9lC8Ku7cj9au9f//VfD1Z/t/pc9N+fp9ixp3IYACC4ADTCVD0EWxddQxn8/I1GYYMdeXhFQilEusmnW3o2ploIX4rWS0QbAIILQKUMLTmeSpRsQXicGjheY8sEtmpHLvf6de+F/k6qvYutsfenKacAwQVgA8yxB2bqIKTGwRgJItmCgNMquxFlZY9TJ85afTeU4miK3s1T9iACILgANFa5metwb1105XcdshDm7zhkk2QLAjvytM9UC4mqKe3TliEDBBeADTG3faVciNpKtvbabDxbENiRp6sa70lszWHzBkBwAViJJSox145KXoMp+k3YgsCOfPz9M9QXWfvC8KUGA1mGDBBcADbAUr1GrYiu/J5lRa4TS5d8NmxBYEc+v8peTv6srfK95JJ3U08BggtAwyy9ZDOBQrm7qqaMbYK7OXYGsQWBHfm099HQbrua3hFLi62h97QqF0BwAWiINTKnawQsl2bYE/xNYRNiCwI78ulJmbLqXstAjTXfXaaeAgQXgAZZUwTUJLrGBmMkwJlSgLIFgR35dIYGauR/rzVQY8gSveQ7M59t2ePmHgQILgCVU9rclhYANYiuBG9DQd0ci1hVucCOfL7IGEqGLD1Qo5b+U1NPAYILQEPUMshhqUlfpw7GSFA1p1WHLQjsyNPZfZcQHDUN+zH1FCC4ADRCeWgnmKhJ/M0tuhKkrdWYzxYEduS2ntsyMbP2+7JcV2HqKUBwAaiQGm0pS4muNTPlbEFgR26rMl1WpPNzaui9NPUUILgANFTdqsmSUgqRKYObWnpB2ILAjjzN7zDUeznl71Kr2ArpMdUPChBcACql9h6iOYKcJYIztiDsJWHTr66saa+bc7pomfypcaqoqacAwQWgQsr+obUav5cSXTXv82ELAjvyvDbhS5/xtQb5tNBHB4DgArChjGiZuT53uEQCpLUGY1xqC1prvxDQuhU24qOsYl/yvLcitlpxLAAguIBd0Vo29JpRzEMZ7wRONQ6nYAsCO/K8AzXyjJ3yu5bvyFCz2GrJtQCA4AJ2QV+8rLHkeAnRleCjL2DWHIzBFgR25PX6I89dZl7DEvYt2TwBEFzA7qhlyfEUNqYxUZJgaijIasGmxxYEduRlBmrk3VH+7i2LrdqtngAILmA3fRe1TBW7JngaC4jy9w1ZCGsZjMEWBHbk9d59x94NefbKd0uLvZTl1NND1TwABBcAdpOTRdfjx49PzmK7TsB+7MjHqt/hn//5ny/uE60RU08BggsAq8kkoqsMms7p03CtgP3Ykcvna6i/c0uVZVNPAYILgN6gSfjFL34xGCwlmGp9wh9bENiRl33GtpbgMPUUILgA6AuaxRr0+7//+830a7EFgc11XT7//PNB0bWFCaGmngIEF4AVM52tV7eGmt9LO+EWKnhsQWBxXa7q3/KwnT05GwCCC4As58x9W0ODMRJUfPHFF+8ES1uw0LAFobagfQsV5PJvyvvi3/7t35pdJ7EndwNAcAGojr5AaTlgP2WB6VAQ1bpAYQuCgH1ayuEf/Yp4iwvT92oHBQguYKck85vD7BhrBRYtThVLkJNgZ6ixfcges0XRVf79bEFgR55ObA1V7IZsy/m3LYqVNS2huV9OORNV7gGCC3jr4MrhkEM7B3KC+xxeQ8MbjpGvydfme+R75XtOefCUU8VaHLqQz2Posz1U5cnfvaV9OmxBUF1dVmz1//7+O7Tlz6EUkFNOPe1EU35GyLk2ZP0+hXxtyPeJqyHfdytDkACCCzgS7ObFP1RlmYscOPmZ12STW7eRDGWYE/yc8ndsUXSxBYEd+Tr3Qfk+OUV0jFXY89m0Vu2bKgGXzySfXd6plyQbLyG/b96B3nsguICNWQPzcr80S/f06dNBLvle+R3yu5yT5Wt5qliCmKHP/dweiq2JLsuQsWY1qNUlx937vBQG5/49+fdDPaQtfS7lNT1nGEjeP/n6SxOPjx49GjwTHzx4cJE7JO9yuwlBcAGN2mcibIYsJCU5JHJYPHv27PU333zz+sWLF2+EwqtXr17/5je/OUj+Tf7t3d3dm6/N98j3yoF0apbv2EFTVkNasWRMHdTkc7420NqLLQiYoxqyBbE1dTKopp68Q7935+44NfHYiaica7e3t2++Pt//2JkYXr58+ebf52tDvs/jx49P+rn5/HNN9YGB4AIqrqacYouIwLq5uXkjrE4RVZeS752fERF2LPPXZflKW0uL/T5z2namDLgEwtgDW7GvllXhqfqvrrE7t9CXd2riMYIowupUUXUpnRA7JSmZM0MiCgQXUNFBfGx5bgRPhE8qUXMeJofIz87vcOygiajqsnt94dLCVLElGtO3JLq2ZPUC6+qcf8ecluJLBvrUwtgZkXfJMaHVJR7nFlmHKmEReceqX7lv9XuB4AJWFlpjFa0Im2TS8lJfS2QdOmjyu40dNPmbfvazn72+d+9eM4f/kqOXk/Usf1ar068sQ8ZSz2SLz8hS/ZvnrqyoydnR/33/7u/+btQ22E88zunuuIR8/hFfEYGH7IbWaIDgAhauDIxl7yJk1srYXXrQ5Hcesh1GcP34xz+uOhBfa7nouWOhW7YFAdcG4q0OmSnfLXmvzPnzTlnKXqOw/vjjj98w1o+1prvjUjv+mBtkyH4PEFzAApa1kMxdS0JrSHjlbxgbsFHjgZ/faSg4OWdiFtHVnnUU7qklWGvxed4hQ1Wivt27tt7lMZdH/nurZ2JI1WsoGZl7OkKTIwAEFzCx0BqqonTZuxptg9cIr7Gx87V42fM7Dh3yCVKWFjylbapFW55lyFA1rUNsnTJQo4akzqHe5QitVIi2ciam4jXmAlkywQcQXNg0eZmOTVVqPXt3bJrTmPBaM4BKsDH3YIwWgzP9NtAXOM+zsObzPFTFP3fv1Rzv4KHfKYIkwmSrZ2KE15gLpMV3PgguoNos5xazd8cY87KvYW8ZEr+19De0LrosQ8YcNtvWJl/WaBPOsznksMj/b+l3zNB+w653ubZBGHO6QIaGa9RSfQQILjQ9mSrZu/i59yK0hoRXaamYYrdVawHHqX0rLYqWrexMwnq0vNut9p7MtRNOQxbCCI+We5evdYGUk35rH3ACgguohiG7RITGlvq0rhknX1a75g5KarTUnCPUW+uHsgwZexTsrQzAGRuoMecAh7GR9XtOQB6zGZr2CoILONMukQzWXqwSpx4wQ/u7prYOjTVlrzEYY0+iyzJk7M2S2toy8yXfjaniDLk9WhrzvgSxVLYwVRIEF1BddrYb9U5sDTNnVm+NLO7UAVE52KOljKdlyNhLdas1sXWs+j/l1LyhzybJNm6P82z33p8guAB2iasPmKn7qlpc/Lm1QM4yZJxbBWmxotvyM9r/7OdY/F5WursVKBKQ9dnuAYILzQ7HYJc4r3F4iqzemPBNMNHqIt6WA7qyymUZMk4dFtPCvTL07m85sTDk0Mhze0mlcczt4by7znZvCBEILuyWcpR3MlPsEpdl9coDJkHYORWVocEYW6istCq6LEPGVquhWxhuM/auuXZH4VBla09rUOa03at0geCCngPDMWbJ6p1y0A9lU7e2z6SVCWjHEhKCBbTe77dVsdX/+4b2R54yUKNMDsW5kMSL8+1y0pqgpwsEF3Y9jbCsbBFb84iusWrO2GCMrU52alF0WYaMc+7pGlc1HLM/bvWeHpq4m/899j4un/XAWj/PBMNz3B8AwYXNWLzs2JreXlj2dJXC4txggOgyfQ710drOtrLys/Vqw9BI97GBGuW/MzRqWjJwxCAiEFzY1ZCM0uMuizfPII1SWOT/NzYYI4f9XoYylAKm9qCvfGYsQ0Y3TbR/H9c+RXRvYusU23aXPCk/GwMy1nV/AAQXmqfM4qXU7zBYZmR8PvvPPvtsk4Mxth78WYaMlq2mpeDY4265iKuhgRr/8A//oJe5IvcHQHBhc0GuLN7yU5p+8pOfDGZY3Y/1i65+siLXTuO3gUMt2ExbHVgzl1DuOwzK/V0RA8TWOu4P7xUQXNik/UUWbzlKG8WPfvSjq5dybrXiWnMztWXI6PqCWpnwR2yNn4cffvjh63v37ullNrkQBBcw3ZAMWbx1veuZAmnwwnDGuaUR1a2NAMf8ldlas/NlgoB963Cyx66tdd0fElgguNA8/SBRFq8O77rx4m2KLsuQ900rVc5Wl42vVfnTy1yH+4O1EAQXNhMgOFjqGaJR+1SzNYcQ1BzMtlLhwD4rnMTWeVNHE/Q7n9Yh16KfiJTAAsGFTdgmLDden7610HjxNgNFy5D3SRIktS85jvgnts4beJLPzNlUz1JkdnsQXGjeNsGjXl+VSzDUpuiyDHl/1L6LrbV+yBqSJVnG61xav8eZ3R4EFzYTIKSy4uVeBznkDV44fchLjYKmtCUl0HXt9jPltTY7MLF1WaJEP7MqFwgugG1iJ3tITGc6Xp2tcZy1Zcj7rIrUloEnti4beGMPJbs9CC6AbUKVi+hqQHSVNjPXcfvJq9qy760tEK/lc8pn5CxitwfBBahubXw6k4z0+VauiK6apgJahryvqkhti7mJrctsyqb11j8mXgILBBeqDxD61S22iXYWPxov3mZQaRnyfu69mp5RYuuyZzQDGkzrZbcHwQWwTdhBgoaCyzJ77jpug5qrl0N2Wwkb1a0t2u3dwyC4UP1kQtWttqYzOVzaFV2WIW+7KlJT5bKF3sZaLfZ2UdZPJkfWPBEUBBfwTibPyNv2erkcLm1OYyutvHbJqG4RW/UlIVW32uvl4hgAwYXqM3le3O2Nw+VZb1d0WYa8zSC9lhHVLeynk4QE5wcILmyefiAqk9fm4WL/SLuiq/Z9TbisilTDeOoIh/69ZWz2+VNO0y/rvGnTVqiKC4IL1Y4vvru78+J2uOxmGmctAahlyO2L+dpEM7E1TRJSTzPnBwguHwRk8hwuDpeNBKI12tHQpi20FIDeD5KQnB8AwQWZPEywkyvX0j3druiyDHkbVdO1lxzX3K/YWhIyOGfa3sll8isILlRhg+m/mF68eOGF3RjJvjpcLiOTHcthAmvbMi1Dbo+aRvsTW9cTwdx9djc3N86ZBunvqYyAdl+D4EJVfSP2jDhc9v4MrD0uu5yOpsrV1jS7ta9XX7DXUG2ThATnBwguyOTJ5G2CXDsT7rYjuixDboeaKpI1L/iWhATnBwgu7PcmksnbBLl2/WspyLp+6MGawXNtPUGov+eO2Jr+c3z69KnzpVEilE3nBMGFKq0wOZy9qLdxuFhq2n7Qahly/dQyVbK8V4itaYZI2UnZNhHMrNkguFBddtYLejt9XLJ57Ysuy5Dbsp6t9czVZofdkusjlWZnyzbGw3t/guBCFVlR1gnZPAz3Nq55WFuGXO9ghb4YXqspn9iad2BGFss7W9rl9vbW4AwQXCC4MN9UJmOgtzNa2zLk+vv91rB7EltcHzhvH5d7HAQXVp+uxavOPoE6RVe5K0z1cl3KgSZrPGs1Lu3emk00Fm3nStukQmmYFAguVNUcnNK7F/R2JhUmGHOPTyO6+hWmtQSPZcj19vgtPW6a2OL6wOkYPASCC5qDwT7RyDTPtQPcmsaPm+y6XsWT2FpOTMei7Vxpn0ePHnlWQHBhXVuM5uBtj4bXz7GtQNcy5Lps2EtXGocsroQ3mz0MkwLBBc3BYJ8gumZKkliGvO47c8ngraYhLlum/3zf3d05UzY2TMo7EwQXCC5MwuPHjwmuDU+Gswy5jp7X9PUtVd0ittjsYZgUCC4QXKjUPiEY357osgy5jmu+ZGWzlp1wBBcILhBcAMEFgmsXouvJkydv/eyMjXdNlptUueQC1bJvLz/bhEqCCwQXCC4QXCC4djdCeulg2DLk9a7zUs8VsUVwgeACwQWCCwSXMdIrBcXlMuRUvVyP7Vg4S5Fn9xrBBYILBBcILhiaQXQtLLosQ17+2i4xin/twSwEF8FFcAEEFwguGAtf9QS7pcYPW4Y8L+UY/iUmAxJb69KvZr548cKZsrGx8KZ7guDCKlYZi48tPkbbo7stQ95OBbEU0J7hda+5xccWHwMEF9gn8A5lRt49vn3RtUYVZo8OgLkDtbWXauPdBEYqI86V9nnw4IFnCgQX6rFB3d7eejk3TiwwJtfVNWRhiWDdMuR5341zLzkmtuqcSJnKiHOFzR4guMA+Ac3BFbJ0AG0Z8rx9VHNeu1Qoia166E//TGXEudI2aZXoP1sGC4Hggmwerubm5oa1bKeiq6xyWYZ8uXhdasfZWn1/MEyKzR4guLCS4Mo4cS9ozcGYVnSVQxDmtLRYhtyOPZPYMkwKy7o+8ry5x0FwQTYPkzYHq3DUaU+bc8x3+bMsQ67TmklsGSYFNnsQXNhxBj6BgJf0NkbCaw7ep+iyDHmaCXVzjmRfa1E29DZzfbi/QXBhJfoZXZMKtzGhUHNwfaTaVIquOXZmWYZ8+fCKJSpOxFZbwpvVfjtJSMNoQHBhVR4+fGhwxsYGZuSaurfrr6DMFWz3n2nLkM//zOYSw8RWe5MKOT8kIQGCC7PYnZIV8rJue9eITN6+RZdlyPVVBZeqcGL6wRkJ3J0x7ZHF1fq3QHDB4YLJuLu7U9Egug5O25urH2lrPTtz9L0t2cOH6SuecQ84Z9oeImWAEAguVBdwOFzazuQZfdtGkmPuKXWWIV8mhqauDhNbnB+QhATBBbxjd0lWyAtbJg/ti66ldkq1zJy7y5bew4b5nB8J4J01kpAguIBJez4cLu1QXjvZc6JrKUHROnMK0jyH/Qqj3sr26D+bCeCdN+3w6NEjk1pBcMHhgnkWO37ve99703uQwM5EpnaSHXMG5nNb5loWu3NZLomttsn1S+Lj888/5/xokJcvX0pCguBCG9leh0ubmbzPPvvsrV6RBA0sTG0EeHMG6JYhLzdUpBRyMuztJD5ix+5XhJPA4vxoOwmpqg+CC1UGff3DJVkiL++2MnkffvjhOz0j3aGToE/j8D5Fl2XIhy3UU9k4l7CIYtoqZ56xfkKi5P333//u/04g79ypnyyr9q4DwYVmGsjZCtvK5CVYPxY8dA3EyeSqctRHuXB1ysrLEot9Dwm+Yyz5+8zxWRBbbT1n5WqGsSTVz3/+87ecH6YVttXTnGvtngfBheptNgkivMTrpJyi1Q/ucujkWvYF9BBdv5d7v95x1FONEZ9zGXK+d0RThHzuu9xXx4T/oYRAvjbfJ3SCbErxN0e1r/x78xm4n+uqIB97J3Y27H6QXjo/VLnq5unTp29dT/c+CC400Uiel5eXeP1jbw/tGekawEu72lCgobl426Jryr6lLoAtqzpz0Q+Gr6nOztHPtsQia1zel3XsHj02aKhfEU2VSyKyjd1bVqSA4EJTVa4cWl7mddsmTs3SJ1jtBw/6vdp5DqcQB9dO5uusWMcqp0MkUE0Cp6Q/9OUcuiD5nPu0FLJTBGTEVp19Wae853L9T7l/yvctu339A6QMywDBBVUuTG6bODfA64KSY5nf/Hcj5tdjjmD+nN1T3X1yrELakYAn92ZsVyEZ51MTNvlZ+be3t7dvvrYTZKfaEE8JnqfeSVZ+lsTWeuQ+PqWSn2t2SWW3fBZVuerixYsX1jCA4EL7lqa8zLzU265uHcrentLvVfY2oE3Rla89JjwSvB6rEHQCqxNWc/crRoj1p48dq9CWn1Epjq69l+eyfaLOd1eZiLy5uXEeVUIGmaSCPsdOPYDgwqITCxNYebFv3zYxd5YY10/VmyKgGFuGnGt6bNhFRE9E1lprIxJcJQGUgPeY8Or+rqmXHBNb6zowTunLmqM6z25f/7TeY1V7gOBC9SOqk2H2ct+PbWLqPgjUNXK8//0++uijg2OyI7Ly/Ndmo4r4SnUtPTX9DHd5j/7TP/3TZAEZsbXeebR2/ym7veoWCC5gFvrZbjtI6qpuJWCuadJX7hX9Xu2IroiOe/fuvf7ss89G7YIR+C098xFfY31fH3/88Ruu+czmXE6NNias5l3Y//lz22lxXnVL8g8EF5ptRLaDhG2iHAV+7i4bTCe6ys/+kh6+fJ983VAgm8RK7rWWkysJusaEV6oklwRlxFZdfVm5jmu9Y9jt699FCRBcaL5/hG99edIvM2UPz1QWn2PZ587iw3I1rei9JvDPvx0LZlsXWkMW3LGx87l3T63GElvLjHI/1j/YTaNcu4pe2kqNiV/HSlgO0VHdAsGF5jOOZQZ8rYZ5HvX6moJbC5b2KrryuY/1wCRg3PKY6/SfDfV4ndJ/NVVVEeNJmxb3ApbvO5N8lyXvLM8kCC5sfkx8Mkv6udbJ4k2xrHXufq9T7EAqBMuJrvzboR682O72kjzJs5QK3pDwGvvc5hhW4r79dtTOWtqSa542l3dd+Tdwf6xjr1+qnxkElw8Ci1COxLWHZPksXkvB3lYCq5YSIUMVm3y25TWIiN9rcBgRNTRSvny2iK31EjGtVMHzrJXuDwuRl53Um3uKawIEFzY9tdAQDVm8lkY671F0lf+tq2qpTr8buHW9kV3wNvXus732ZR177jurcavPPffHsr3M/Qq1lQwguLCr0dS867J45wZhaywt3ZvoGuqNkSB5d5phaTHMvffFF1+88/9zLxqmM0b5rHF/zGMJLgfgmIQLggu76x0xREMWb4vjn1u1/H7/+99/53OUGBm3GJZ9ktlP9oMf/IDYmvhZ3vK6CO6PeSmfUUMyQHBhF5T7uSxFlsW79n6qbcFpi6Qy80d/9Eemil7w3A31df3FX/wFsXWgWm0hOveHXmYQXMDM5LDlXZ93IuEes3in9H0kk95y38dSlefcT5r4L++blEn3fF77DN7d3Xm2Ju5llgQBwYXdUXrXZdOnsRHK4smgn/tZlYFeKjYSINMM09j7CgMV6MvdH+yF01Wdc48RWyC4sFuGAmJWivMCvKHGfQeLHpFLrUwCvOkTIHsTEnospxti0y0XlwC5vK/SREIQXMBApUvQd7mFKZ8lsXXdFLT8ty1NQTvn2Utg59maZoJheU9t3SJniui0omvI4kt0nZ/siOgntkBwASM9XWxNh+0SZSNwyGfoXjovONz6np9z+yg9X/PZC7daebYnb76errJCyHZ/+W48gOACev71oayeA+a4XYIt5zr7U8THKfanrWTmc7+YFLr8hLTcQ1sRAxFQp/Rl5b3uPTOd5TfPKtv94edMHzMILuCEg3zogElQzC7BLiGQnH4amqy5HUBzJCa8T9jul3B7PH361KAaEFzApVm9chFkd8DsMQufv3moX8twjGX6vbZklcr9UgbMsuXL78drJSDsrLdD7+Mh66330bK2+4iNva5uyDu3fK6SSFJRBcEFnEkC2fKASTb+9vZ211MI2SUEnZdS/g2y5OtUp2ufmnZOskGFfdnrMlR9j6VuL8IrQmuoqpX3rx5BEFzAhCNyQzJbW87MZ+Flmb1jlzDuesoERobSEEPLPtOlYKnRTnvo3u7stHpG67Ldd8nILbtAIijL3Vr9963qKgguYIIgd2wKVjJdW+rvGsvedROXZPDqCnxaWehaLjc2YnodUp2vabJo15d1bJT7lgbGbKXqPtZr2gmvrU/l7ZIWEpAguIAZphiO2boiUlpu/D+UvcvfzJduNPaUTfd77fuogX5CJQHzGiLmlJUIuV+3uhJhS8JrzPrZuguk610estTnubEGBQQXsEBwO2Z7SSasJeGV31X2blsB0CkVgyWXv5ZLeC03rmsp8lJTC5O0sfR7uy6QMeGVanaEVysV7bwTUwkeE1q5P1VaQXABC2dpx4RXXtYJLNM3UWMvR363sR4t2bt99XvN3RPTr2TkuVDdWp9+NTvP+1xVpFruQazvAun6NiO+ansHJPEYkVWuUCjvUdVWEFxAhV72oYNmjSxffmZ+dn6Hoayd7N0+AqE1qgv5uaYS1pnFn2vqaI1VViz/vjkmsiNuInLWcoREPOV9NJZ41LsMgguoWHgdO2S6fq8cNHNm+TpbxFhf1lBvj8BnP5XZpfpn+tnuiH2DMuqhtBJfe61r7yPEOu+aY8K76/eK+JlbfHXujkOJx/6gFr3LILiAyqfHJag45aDpMn0RYTlwQoKRUw6e/JsuSxfyPQ5ZIsrssl4JlsM5J8QlAO9/nz3tr2tlKEA/8Iw43vKkTKybkDwl0dMXYDnPIo5ytkUo5X11LGGTn5N/F0dHvi4Jx3yfUwSWlQMguIANBLWnHjRzkoDK1C8cShJMuQOp/70SQBE59ZGgtH+NT8not7wLDvUMnjom1JfA8mwQXMDGs3xLHDT5GfbX4NJg6JpApVwYvuUl4XuocnXvrkMDEbrKeZI63jc4p9/rVDv+FHT3KJEFggvYUVUhh01e/jlwEsycakMsD5B8bb5HyPd0mGCqBMElQXY/eIqlh7ipl4jhsSrXOeJb5RxTOEJy/+W9k3sqCcO8f85NUOaezNfl3s33yX2sHwsEF4DBYDcHxCFkkbG0NfYUG1n+XTmMgbCpm/6kti+++OLo5NXOXiqIxdLVsENINAIEFwBspjJ7qP/iRz/6kd6txshAk+6a3bt3b/IBKgAAggsAcGG/VzkQ5nvf+569W42Riaf9a/jpp5++YxllGQQAggsAsHK/19/+7d+yE27AVvg3f/M3prcBAMEFAKiNfv9Wpt8RMm2OiE+vnvsZAAguAEBl9KdsZmkpIdMOqUb2q5OqWwBAcAEAKqIM2O/u7giZxujv5Eq10n0NAAQXAKASymXHWapLxLRFqpL9YRnuawAguAAAldCfVnhzc0PANEiqkuXQE/c2ABBcAICVyZTCfqD+4sULAqZR+tcxVUv3NwAQXACAlck+LnbCbZDqZH/RsfsbAAguAMDKZGdTF6Q/fvyYcGmYVCeNhwcAggsAUBFffvmlcfAbHQ/v/gYAggsAsDL379//LkDPAl3CpV1iB7WPCwAILgBARbz33nv2b210cMbz58/d4wBAcAEAVn2ZF6PEiZa2SR9edz3Tn+ceBwCCCwCwErGcmVC4LZ4+fUpwAQDBBQCogVjO+oKLYGmf9OF11zP9ee5zACC4AAAr0R8Jn8oIwbItwfXJJ5+4zwGA4AIAEFwwGh4AQHABwIYFl5HwBBcAgOACABBcILgAgOACABBcILgAAAQXABBcBBfBBQAguAAABBcILgAguAAABBcILgAAwQUABJex8AQXAIDgAgDMKrgeP35MsFh8DAAguAAAU/H8+fO3qiEEy7YE1/37993nAEBwAQDW4ttvv31LcL169YpoaZxYQ7vrmQqm+xwACC4AwJov857gSv8P0dI2sYZ21/PJkyfucQAguAAAa/Lee+99F6C/ePGCaGmcvoCOZdQ9DgAEFwBgRdLnYzT8NogltC+4Yhl1jwMAwQUAWJEvv/zyuwD92bNnhIuR8AAAggsAMBVGw2+HWEK7a/nBBx+4vwGA4AIArM3XX3/9VlXk17/+NfHSKDc3N99dx4cPH7q/AYDgAgBU8ULvCS6DM7bRv/XVV1+5twGA4AIA1ECqIV2gnioJAdMed3d371Qq3dsAQHABACog1RALkNsmA0+66/fJJ5+4rwGA4AIA1EKqIWyFbfPgwQMLjwGA4AIA1EqqIsbDb8NOmPHw7mkAILgAABWRqkgXsKdaQsi0QxZWGwcPAAQXAKBiyqW5qZoQM23w6NGj765b9qq5nwGA4AIAVG4rTNWEmKmfly9fviWUv/32W/cyABBcAIAaSXWkC9xTNSFo2AkBAAQXAGAiUh0phy8QNe3YCb/88kv3MQAQXACAmkmVRJWrvepWeP78uXsYAAguAEDNlEuQ7eSqkyyn7u/eun//vvsXAAguAEBrwzNUuVS3AAAEFwBgQhK894N5Ewvr4te//vVb1S29WwBAcAEAGiMWtf4i5FjYiJ06ePbs2TvDTdyzAEBwAQBUuTBBdat/XVS3AIDgAgA0SoL5fnCfYJ/oWZenT59+dz3ee++9N9fEvQoABBcAoEFiVesLrljZiJ71KK9HFlW7TwGA4AIANEyC+n6Q//LlS+JHdQsAQHABAKYgQX2C+y7Qf/z4sQEaFYyBz7409ycAEFwAgA1WuW5uboigBcny6f7n/8EHH7gvAYDgAgBsif6YeFMLlyMWzv7OrVQbv/32W/ckABBcAICtWQs/+eSTt0RXKi9E0XzEutkXW+Hrr792PwIAwQUA2CKprPT7uQzRmJf0y/U/6ydPnrgPAYDgAgBsmXIhciow9nNNT0bwW3AMAASXDwIAdkgm5PXFgMmF03J7e/vW5xsrpxHwAEBwAQB2RCouliJPz93d3Vufq31bAEBwAQB2SjlEg+i6jv/6r/8ykRAAQHABAP4fqbxkJ1RfdD19+pS9cIJdW5YbAwAILgDA4OTC9HSZXnj5gIyQZdPuLwAguHwQAIA3oqu0F8YaF4scQXV4z1YqgipbAACCCwBw1F748OHDd8RDJu4RV++SCuCjR4/eGZChZwsAQHABAEaJFa4UXYZpvDuJsD8coxv9noqgewgAQHABAA5S7umyq2t8x1ZIZdDodwAAwQUAuGqYRix0qe7sUWhFUN3c3BiOAQAguAAA0xCLXDlMoxsdv5eBGqnqffPNN+98BhGjhmMAAAguAMDVwzS+/PLLdwRHJ7zy37cstMpeLcMxAAAEFwBglr6ucklyf6jGloRXlhgPCa3OQqhfCwBAcAEAZhNeZW9Xt7crFaGWB2ukP60c9d6RKp8phAAAggsAsIjNMJWeQ8KrpYpXhNbQAuNw//59QgsAQHABAOrq7+pGyUd8ZUlwbf1ZsQ0OTR3sC63nz5+7zgAAggsAsC6pAGUX1Zh46UbKR3ytNd0w4jA7tMYqWR3pUzN9EABAcAEAqiMVoQivIathaTvMoI1Y+ebs+UplLSIvlbZDv0/I+HtCCwBAcAEAmuDrr79+Yzc8Jr46AZbKUyx+EUix+6USdkofWP5dhFu+LuT7jA2+KIk4fPLkiR4tAADBBQBol+ysypCNsbHySxHxFxGYSpbR7gAAggsAsMl+r1SVYuFbQmRF5EVkpeLm8wcAEFwAgN2QKlP6viKGUgGLMMp0wEsqYfm6WATzfSLo8n1ZBQEABBcAAAesiBFOh/A5AQAILgAAAAAguAAAAAAABBcAAAAAEFwAAAAAQHABAAAAAAguAAAAACC4AAAAAIDgAgAAAAAQXAAAAABAcAEAAAAAwQUAAAAAILgAAAAAgOACAAAAAIILAAAAAEBwAQAAAADBBQAAAAAElw8CAAAAAAguAAAAACC4AAAAAIDg8iEAAAAAAMEFAAAAAAQXAAAAAIDgAgAAAACCCwAAAAAILgAAAAAAwQUAAAAABBcAAAAAEFwAAAAAAIILAAAAAAguAAAAACC4AAAAAAAEFwAAAAAQXAAAAABAcAEAAAAACC4AAAAAILgAAAAAgOACAAAAABBcAAAAAEBwAQAAAADBBQAAAAAY4v8CErKT16ZLtdIAAAAASUVORK5CYII=;" vertex="1" parent="1">
          <mxGeometry x="355" y="110" width="140" height="113.15" as="geometry" />
        </mxCell>
        <mxCell id="0sxkKxFfAbdUbiCfdQnR-14" value="" style="shape=image;aspect=fixed;image=data:image/png,iVBORw0KGgoAAAANSUhEUgAAA1wAAAK3CAYAAACREU4xAABw7klEQVR42u3dPahmaVb2ccFXFEGrA1GhmZEOBjtoh+6gx0Q7qGCKCaShYMw6sJpJZCINCjESKiiYSGhOYDAGRUcGHVUwJy4aTE4oZhVOVuEY1stV77vbXXft/Xzuj/ve+xf8wbHrfD37417XWtda67f+53/+5zUAAAAAYHp+y4cAAAAAAAQXAAAAABBcAAAAAACCCwAAAAAILgAAAAAguAAAAAAABBcAAAAAEFwAAAAAQHABAAAAAAguAAAAACC4AAAAAIDgAgAAAAAQXAAAAABAcAEAAAAAwQUAAAAAILgAAAAAgOACAAAAAIILAAAAAEBwAQAAAADBBQAAAAAEFwAAAACA4AIAAAAAggsAAAAACC4AAAAAAMEFAAAAAAQXAAAAABBcAAAAAACCCwAAAAAILgAAAAAguAAAAAAABBcAAAAAEFwAAAAAQHABAAAAAAguAAAAACC4AAAAAIDgAgAAAAAQXAAAAABAcAEAAAAAwQUAAAAAILgAAAAAgOACAKDkv/7rv14/f/789VdfffX6H//xHw+Sf/ftt9/63AAABBcAAB2//vWv34ilTjjdv3//9SeffPL6t37rty7mvffee/N9vvzyyzffM4It4s3nDQAguAAAuxBZEUEPHz68SlidS4RcBJhKGACA4AIAbM4e+OTJk4uqV48ePXr99OnTg5z7PT/44IM34uvrr792fQAABBcAoD1SSYqoibg5JoAeP378Rjh98803r29vb98ItJcvX77+zW9+czKvXr1683UvXrx4832ePXv25ns+ePDgqAUx9sNU3VJ9c+0AAAQXAKBaThVZNzc3b8RRRM45wuoS7u7u3giwVMuO/V4RX3q+AAAEFwCgKlIhOiS0UmmK6In4STVqbpE1RipnqYClqnZIeEU4qngBAAguAMCqZMrgWG9WKkoRNxFZawmsQ0RQxcI4Jr5iNyS8AAAEFwBgFaGV8etDQiW9U7Hl1SiyDvWARRyOCa9U8Fx3AADBBQCYlQip9DmNVbRaE1pDVa9YH8emG5psCAAguAAAkxMhEnvdmNDKAIyWhdaQ8BobOZ/Knn1eAACCCwAwCREXQ31aGYQRG96WhFZJKnZjwovNEABAcAEAru7VSg9TKTYitNacNrg0qeANjZWPvdJ9AgAguAAAZ5MKztD+rCV2Z9VKphoOWQxNMgQAEFwAgJMZGoyxdfvgOTbD2Cn7n00sl/q6AAAEFwDg6HCMoX6trQ3FmGKoRrm/K9ZLUwwBAAQXAGB0OEZGn5eDMV6+fElkjezuisWyFKdPnjxxPwEACC4AwP+Sykw5HCMVnD33a53K0MJkwzQAAAQXAGB0OEaW/+5pCuEUUwzLvq6HDx+6vwCA4PIhAMDebYRlZctwjMuI9bIUXVkW7T4DAIILALDTARllz5bhGNf3dZXDNCxIBgCCCwCwQ8pphCpb81W6jIwHAIILALAjyj1b6dkilqbd1VWOjLccGQAILgDADsjY8nIaoQEZ03N7e/vOcmSiCwAILgDAhnn+/Pk7e7aIrflI5dC4eAAguAAAO2BoIqGlxvNTDtEwuRAACC4AwMaIla0ckmEi4XKTCx89evTWZ59F0+5LACC4AAAbHZJhIuG6kwsN0QAAggsAsBHKiXk3NzdE0AqkoshaCAAEFwBgY9y/f9+QjEqHaEQMu0cBgOACADRKOZWQlXBdYiM0tRAACC4AgOoWZiKiV5ULAAguAEDjZBKeqYR1Ti3sD9CIKHa/AgDBBQBojA8++OC7oD5jyYmdeqtcsX66ZwGA4AIANMJXX32luqXKBQAguAAAU5PBDNnz1AXzT58+JXIaGBMfkez+BQCCCwBQOdnvVA5lIHDqJFbP7jrFAur+BQCCCwBQOapb7XB3d6fKBQAEFwCgFcrJhLEXEjZ18/jx4++u18OHD93HAEBwAQBqJYt0u+A9gTxBUz+3t7ffXbNUJ93HAEBwAQAqpT8KPqPHCZr6SRWyX5VMldK9DAAEFwCgMr799tu3AveXL18SNA3aClOldD8DAMEFAKiM/nRCi47bXYTMVggABBcAoEI++eQTdsJGSTWyX51MtdI9DQAEFwCgErJrqx+wZ9w4IdPuTq5UK93XAEBwAQAq4cmTJ98F6w8ePCBgGrcVWoIMAAQXAKBSO+GzZ88ImA0sQU7V0r0NAAQXAGBlyrHiL168IGAaJdXJ7jqmaun+BgCCCwCwMl999dVbguvVq1fES6OkOtldx/v377u/AYDgAgCsTX8c/NOnTwmXjdgKjYcHAIILAFABDx8+NA5+I5TTJt3fAEBwAQBWJtYzgmsbxA7aF1zPnz93jwMAwQUAWPVlbv/WpiC4AIDgAgBUKrhiSSNa2iZ9eBYgAwDBBQCogFRA+oKLYGmfm5sbggsACC4AQA18/fXXBNfGSB+e0fAAQHABACrASPjtcXt7+901/eSTT9znAEBwAQBqEFyxohEsRsMDAAguAMAMgstIeIILAEBwAQAILhBcAEBwAQAILhBcAACCCwAILoKL4AIAEFwAAIILBBcAEFwAAIILBBcAgOACAILLHq4tcXd3R3ABAMEFAKiBJ0+efBeYP378mGDZAKlUdtf0/v377nMAILgAAGvx/Pnzt6ohBMu2BNfDhw/d5wBAcAEA1uLbb799S3D9+te/JloaJ9bQ7nrGMuo+BwCCCwCw5su8J7gycIFoaZtHjx59dz1jGXWPAwDBBQBYkQ8++OC7AP3FixdES+P0BXQso+5xACC4AAArksEKRsNvg1hCy4qlexwACC4AwIr0R8Pf3NwQLnZwAQAILgDAHIIr/T+ES7vc3t5+dy1jFXV/AwDBBQBYma+//tqkwo2QXWrddfzyyy/d3wBAcAEAauC99977LlBPlYR4aY9Xr169JZy/+uor9zYAEFwAgBpINaQL1FMlIWDaIxMmy0qlexsACC4AAFshJiADT7rr9/DhQ/c1ABBcAIBaKMeJ28fFTggAILgAABOSqojx8G1yd3dn/xYAEFwAgJpJVaQftKdqQsy0wbNnz767bp988on7GQAILgBATf1bGZrx0UcfvSW4UjUhZtrgwYMH3123/N8RXU+ePDE4AwAILgDAGnz77bdvFh5nOW5fZH344Yff/d+pmhAz9RP7YP8avv/++2/971hFI6rd9wBAcAEAZh6MkapHqh/9gLzPp59++lalhKCpn2+++WZUbPXJrrVUMiO2PQ8AQHABzfL8+fM32eRUDw6Rf5N/6zPDEr1Z/YEYQ6TSFTGWpcemFbY1nbBvJ+zeLadc7/xbwzWwRDU9Z13eL4fOxLyn8u/ckwDBBXx3gORwyCGRwOb+/ftvsseHApxj5Hvke+V75mCShca1wj/VjEP3Zf5b7rfyXutXwB49emR4RiPVrdC/lqdUNLt3T95n+r1wKRFJ/URj7qnSrnwuuW/zfbrvmXeaexQEF7CTwQLXHiLnkJ+Vn6n/AqcGPUN9WSXHenoS2PT/fYJ64qY+yt1peVdce2943+CcxOMpgn5q8v5KgkAlDAQXsJF+l7zUj1UJxnj69OlBzv1++R26g0aWD+V9eizoyX8/595JZrnfy6XKVfco+HN2b11T/QSRdYpwH+Lx48cHz8RU0y+pgkX0EV8guIDGKgR5eR/rf+isVjkkkv0PGaGdr79kwli+tvs+px48+R0dNPuuuM7Zp5PASpWrXl6+fPnW9cl1vlSsn9rf512zb3fHKYnHnF9Zmp73Rfo/c8/kPjv33s7XpZ+0OxMj1k5xhEgSgOACKu936Wf0D2XocgDkQFgioMrPOuWgye9uAMc+ssunVCammkSX79P/3ucGTpiPfpU81/zaqneXbDpWKVVl30/ysXz+h0j1O5XWJXb25Z6LiIugO8UREvHlPgXBBVRyqBwTWhE8ybStGWzmZ+d3OGZFJLy2W3U9pS8rgfDUP7v/M+zlqnPv1iXVrVNsY6cIe/1e27MoH7v2cWAkGXiJo2PK6ZwReXkn9ad0DlW9pn4vAgQXMFH2Lhm0ZNJq7FvJ79Rl+cYOmvxt7D/t92UdSwZ0/QtzZnETfPV/5hLVXZxe3UpAOef17+xkRsxvn7xLxoRWl3is9fnvbPljdvzco5KRILiAhbN3Y1m7FncO5XceO2RYKtrslagpuM390w/CEuwTPes+7/37YansfU1JAExLrutYBT0VpNasxHk3jrlBuEBAcAEzM2aTSJUombHWp7DlbxiqePGytzH1q2b7VpmkWNNKtPclx/3kSoLkvdlcMW3v8ljPXhwUrfds5j4d64HOvakiC4ILWCh7twWhVQZk5SJUXvZ6+7JaGVCQn99/hiLsDdBYfwx8Df1TSw9ywTTXbKxSmcrQ1hIqh1wguS8lI0FwARNPWWvZJnHukI0yOHPA1NGX1eoI7gT3ZU+H3VzLVrBLa1SNltg5VxVgmgTkkDiOINl65To9aEMukNyTkgEguIALg9uh6sEWs3fHRssPednz2RBdy9l2trJktkxgxHZEDC0zEKAMEGt+fudaxo1prcEt9y5f6wIphVfewSZuguACzrRLlBbCvFz33HeSv720VOSAkdWbzzKY4OZYj0uLY7VLK5KFyPMnTfrBYWvP7anPQipjAt75BPCQ22NrlvpzXSBD+7ziLnDPgOACLrBLsD79b2ZvqIFYX9d0Qc0pfVkRLC1n9Yeqx3vKkK85JKP153VL1d6WBG/5vEbAL7GouEWrLts9CC7gArtE+piIrcON93MsTt2byN9b30qC4X7QnADOfq7pKRMkW3pOW+5nbPU57SyEntV3h2qUFkO2exBcwBl2CYfJePPwkKXHAWMy26VDNBKwSG7MlxjJvaQyrN/rHEE7tLzYM3qadZftHgQXcMTexC5xeiP+UFZPNlkvyqkkUBbQzZ8Q2Uu2vdtJd+gZW3snXctuD8/W+bb73G9s9yC4sHuxxS5xfVZv6IAhus6fthbxscfse1ldzlRMous6e1P5PO7xvoqgOlZF7qy6qhDjz6Mey2ls90QXCC7sljIIll2/PKtXjo7fu3+9C/bsE7r8WZT4mCbQ27uY6JIeY4t6y6THnp/HsuK89+m8U9vuCXsQXNh9Fo9dQs/IVHamU/qyMm3Nc3jc2ivYM0F0altvRMUptt69fXZDPZWSHtNXmyXYQHBht1k8lS1T0QRw6wuuH/7wh6///M///J3PLpliz9ZhW285+v0P//APX7///vsy6hIkpoZWJrpMLwTBhd1m8Ygte39YlNalP947wkvD/uWDa37wgx+8vnfvnilpLMAnv8/KhJGeLe4PEFyALF5j43G3EvRpwl/G3huhaiT15asZfvGLXxhNvcCQm62MmC8TR9ahcH+A4AIm7RGRxZs3876FSWmnjJnuMpbGTE8jtrr7xNLV8SryseXj5Vjv3L9sTNY4HHv+bm5unF/cHyC4AFm81ncBtSLOLVKdn1NEwdgwjTy/e6x2RQSUQdvYnp9DYhbnJ162tqi8rCKrIHN/gOACZPF41xcJQPq9RGOWQX1Z0wd7hwKPiISh/poELnsZqJH7rVy9cErARnSt956oud8rQ0DKZyn3hTNrefeH6jMILmyC8mCRxVt/XHVN9pvcH6dkrvVlrSO2DlXE+jbDrdqDE4gN2QfPEU9ldT9iwX2430r40JAMvczLkgq9IRoguLAp+oehLN56oqtvo8hhrzfDlNBLloHm2o1VF1IB2srerrE+re75Oaf3Y8iWKcBb551SQ69nmbjQy1yH+8NuRhBc2Ewm3cFSzy6SpZuF9zh9rPYpodfcBwlOPv3001Hh1WpiJUIr2e9y1HvIqPef/exnkw0NIrrWm2a6VtU890H/98qz4nyqIxGZSqjnBwQXmqSfbYztyEt+Xfo9KEtNLUzw03q/BbE1nkxJkPK9731v8Lomg5x+iVaa6ceEVj63zz777I3guiYoK4Nto6mXSfIce/8sua+vrG6xEtZlLVTlAsGF5iegbcVq1Hrj/xLB3jkTxRxwy9itphRbZQ9KV5U8dL0zKCdV1pr6N/O5JOAqpw6WVah/+Zd/mawHcmrhi9OfgVP6vSLO5qqwl+9fy8TroP/8r223B8EFsE2ocp0U0JzSlyXAXPZZnNrKViZTOtGcn5X/dkh4de+DTDdc2nYYsZeKWwLdoUpWOWihX/Ho39fXBmVE1/rV3mP36RwJoXJipX5mdnsQXIDq1kbJIT9Vlauz7JRT2MYsO/qy2hdbZTJlyGJ36vS4bmppqkx5R8xR/cr3TUCVCtux3+VQkF0OG8nfd23QX/58A2LW6/ea2/JcXm97KOuiP8nXmHgQXGjSvsQ2Uf90pnMDiaWCFNQltoay9Meub1f5PNZHU4qwVMESlHZibKzXJSKtE1X5txFW+dpjFazyPj1leEI/sTBFdfjS8fyYr99rruRR//vm3rQaZZ92exBcANvEjqtcpwTi59hwZOrrew4TKE7dg3KugOsPMThmO5yTLmg+V9yUOwWnCMqIrnZHzJ9qjy7vG9UtQ6VAcAGagk1nqqrRHNOIrSmuzdQVnq5SeiywnYLuHr224npuhe9S0aUyXE+/16kDgMaEcv/9mQENqlv1TipV5QLBheYCPbaJtnaQJCA9Z5RyguSlRiljfbE1R3VnKLjNz8n3DhF4p/SBdfdj/n3+/nxtxFy+19RJgGurfEtfN6y74qLs/bOLsi27vWcQBBeqpJ8FZJtor8pV67JQnEYE8FyVkr7w2XtT+diURqJrX/1epyxx/9u//Vu7KBu225tYCIILVWb/9G61fbj85V/+5eguIn1ZdTNnL1D5vfcehJwyqZHo0u8VsixbErLdiYVTVbABgguzZH1l8to8XP7qr/7qrSBSXxaxVS45thh0uJo4VUJirumSmJ9UOvsugU8//fSt6zg2aRN1kR2B/XepexsEF6qiH5TJ5LV5uCQbqy+rvab+Mqs+5bLWuexzW3vnTSlEia5tJEF++tOfSkJuwPnB3QGCC9UGfTJ57U5mElC39dyVPXdT2v3mtM5tsbJ47TJkoksSEmyFILgAdsKNkmtmFC6xdayfyLCUd5l6VH7ZH1Re4ylFHebt7epft7u7O2dNowOl2KhBcKEa+plYu7ccLlh2aMMcgfhc48+32Lcz57j8JYQ15u3xy/oN50zbzg/JJhBckMnD1ZTX0OFSt9hawmpWVm709Y1T7maa+rMiuiQhwfkBggsyeTJ5G6C/BJltad9ia4klx1tOOi1xTSRGJCGx3BLkvHfd2yC4UE0Pw83NjRe1wwULZM1DKiut9SXtoY91ruEzc47/x3zX6dWrV86YBolQnrNyDYILOO8m6r2QXrx44UXtcMEMLLUQ15Ljuic6El1tWUwlITk/AIILk9tcZPLaxnj4fYutcpS1ASr1VbmGfo4qZL2V6Ow5dLa0SwQzazUILqxOFgL2D34v6O00Cats1BnEzym2LDluR7AuKcJxuesjTgFnyzYm+NpDCIILVQSDT58+9YJunFxD2bx6e0HmtI9ZctyeJZPoqn9gRsaLO1vaJRVKFX8QXKhKcPGqb2twxlwDGVBnr05Z3dIX1MbQkXIkvYE3ddnsnSvbWpniHgfBhdUDi5TevaDZJ9Ce2LLkeN6ge85q8VKrAnD+sxuLtnOlbfJ8GSYFggtV9StoDt7WpMIE+e7x5RlacpteyaWmqlly3N5nSnSx2cMwKRBc0BwM9glcKLbmHl5iyfE2qoZDosu1XFdoc31sb5iU0fAguLB6QJED38tZNg/tiK2l+432PmFy7r64te4hsNkbJgUQXNAcDIKraiJy+vbcpQ52S47nv65LT34kutal/9nHou1M2VZvs2FSILhAcGHybB7BtUxQvlb/jSXHy1e5lnimiC42exgmBYILBBcILqwstkohMPdgDtXLZYXt0pMuQXARXADBBYILBFfVDfZLHuaWHK83KnzJahPRRXCB4ALBBYILBNduSSWrXFi71MCKNWxue6dfyVxyOAnRRXCB4ALBBYILBBextaDYsuS4jvflktPOSoEdW6NplAQXCC4QXCC4sBKPHz8muDYc/JY2RkuO1xkZvvSC6TVFPsEFggsElw8BBBeMhd+FvcuS43VZu7pIdC07+fPFixfOlA1wc3PDEQCCC+tO35LN2xZD19S9vp1eGkuO67OTrnkP2Cs07+dr8bHFxwDBBfYJvEOZgXePT0NGrvc/1zUC7fJ3ePLkiWuzUqJqzQmRa64i2JtlOJUR50r7PHjwwPoMEFyQzcN03N7eWoQ7MbUsobXkuN4+vqWtu0TXMtc2lRHnCps9QHCB4ILm4B2IrVSzLDmuq8rVF8ARP2tX2til5qkkO1e25fpgwwbBBdk8TNocLPi6fkBCDWLLkuM2evrWuDdqSQgYJgU2exBcwImZ84wT94LWHIy6LFuWHNdL/x5ZazcW0aW3GVwfILggm4eVvOpsZ+2LLUuO23p/rpXkiOgqh7p4/qcRXHd3d86WjQguEz1BcGHVHpX+4fLy5Usv6Y2MhFcJaX8YQTmC3Jj/uvtg1xzVX8PaAr3NqI04d7g+QHChCvp2lEy585Juf0Jhrql7+3qBs8YwhNqqJ2inCkl0Tf8eYLXfThJS1RcEFxwumLR/i3ViGrG15kQrS47bvXfWrEQOiS6V0esmFebZc8a0x4sXL0woBMEFhwum49WrV5rmNyS2ymdSdat+K2pNkyRru585P7D21F5JSBBcqK5JOFkhL2uZvD1O6qylImDJcXvUNk2S6OL8kISUhATBhcpI9qd7MSUr5IXdbibP6Nu2e15KAShQaLPKtWb/H9E1/bshAbyzph0yXdLAIRBccLhgUh48ePDdtUvA7p5uU2xZcryte2ptsVzb1M3WBDTnR7s8e/asquQHCC7A4SKTtzuG9hbVMEbfkuP2Ke2ga1eUiC7OD0lISUgQXKiI/qGc7JCXtkzeVsVWv4pUi22vHC+uybtNahznT3RNY+913khCguACJj1ckh3y4m4vk2eaXZtia6jfRpDQLjWO9M/9VN77Mv/nJUESyDtz6ifLqg0dAsEFhwsm4+XLl29dM0tOT++PqingLC2OhPO2LKu1VJNqTjhwfmAqHj165F0KggvtHC5ZpOvl3Y6dUCavXUuVJcfbo9aKJdF1nfPDnsq27ISSkCC4UCVl036CBC/xOikrkjJ5bYqtGnt+ML2Fr6aevPKeE5ie7vxQ5WqnuiUJCYILzdiuVLnqJddGVeS8qm2NwygsOd5PAqumqZM1rkVopVqpylUnma6scguCC81QHsRGxKtubSVQqm3xa217mzBvAqu2vWpE12XX0Yj4+sju0P4AKTsMQXChCfpZ95TovdDZJoitfQXj2IeoLqtwquXs9q1PJrTDEAQXmuHrr79+6+V1e3vrpc420WxwVJvYqt1uhn3ZRmtPTrDbQ3ULBBc2S39yWl5meal5uddV3bLouE2bVM0DFbDPwShE13kTC61Oqbe6ZYchCC40HSTkpeblzjZBbE0f3AoQ9pXAqtW2F+Ffii7Xjt2+ZvIc1TqBFgQXcNEBrMrFNkFsXY8lx/ukhete+woFQ6VwaBel5BUILjSLHSSqW60Es+Uy1/QhqnRAZZPoYrc3rRcguNBckCCjt/6gDAHQYbFV6yARS44lsFro3RsSXe7V8efYmPh1HB/9fmbJKxBc2FyQEF6+fOmlvxD5rPtWwnv37r3+z//8T/dmY2JraFqdAMEEzVor1a09W0vz2Wef6XFekcePH0sIgODC9jN6EQAJFr34l83ihb/8y798E6zvfUFp7r++gKn90LXkGN1928r+NaJr+PrFYZDE10cffcT9UUHfFscHCC5sulk4GSbe9WWzeGVWda9Zvdb6TMog2/S3fVOOF69ZxBBdb38W/STPhx9+yP2xMNkJan0BCC7srp/LEI1ls3jl2OYuQ76nA6fFpn5LjnHMXmoCaFtW0O5z+OUvf/mO+0Mich6y96z8/IktEFzYLGWwy7u+bBavzI53B0+tU/mmphSdtY/HL3sgjfNHyPPaUrV6r6Ir793+VMKhRFf5Tub+mL+XeY+iHwQX9M7wri+cxctBUwrfLmjbcsavrLC2YCex5BhjtLYiYG+iK6K4tAyGCCzuj2V7mUt7vR5YEFzY5XS4ZJ5415fN4iU4G7K5RIRsMQhqUWyVe2I0d+PQMKIWejLLd84Wp21e+m7l/piHp0+f6l0GwQWWGKJrOrFVTiQ8JYt3ThZ2K/0TrQR5lhxjixXQFpMf5yQTL3UPDLk/Yg93vl1e2Sp7mWvdXQeCC1g0EI7oYi+8zEbYr2ydm8VLkDbUZ5DDqfVAqFUbkyXH2HIVdIuia4r+2KGpjuyF55N7qbQRmkgIggsytMUhxUpxOvmsys/v0qBrbJJWq1PxWu4Z6WfJLTnGFqdYlkmeVqsPeTbHJsBeUnEcch0YpHG5tb57h+p/BcGF3TOUGby5uXHAnGmXmKISUu6KabXCUlpWQytiy5JjnBvwtzjJssUVDUOV6CFL9hTv4fL7st0fJw6Zod45CSsQXMCRrF5elA6S41OX8tlNFZjnMx+qPLYyUKPlZatlH4clx7gkadXKmoeWRdeQIyDP7lTvyKHPhu1+GbcHQHBh89MLhw6YWAEcKIftEnMIoSERnP9d80CNlsVWy/YwrE9Ly5APVehqr6iPDcZIcD91JWUs+cV2/3YCMo6Y8jPiDADBBRw5YIYGOMjqrWOXiNgdCi5qHKhRLglu7dBt1RqGOm20LU0abSVRks90KAk1d0WR7X48ATnk9pCoAsEFXDFMIwfMHi2G+ZuH+rWWtEuM2WdqOdi20A9iyTGmHETR2iqBmkXX2GCMvHOWek6HHAdZBZIptXu1EJZuj63ukQTBBSw6PKA/JncPmb38jUO+9LWy1xFXNQ7U2ILYsuQYUz2jLQ+7SbBcvl/W7ker6b03NtQoy333Yr2P06PcOdk5AgzHAMEFTDwFKpmtiJEtCq9OaJXZuxrsEjVkercmtlqvTECldM5E25rrHGqs7I/Z7jvhtVUXSO7jIaFlTyEILmDCAyYv1DHhtaX+rrHsXXeo1BKIJyga6mVY2gI0tEBVVQJ7ZgvV0rVFVwu9q/mMhqpdnQtkK8Ir1yJCcujvjPDUrwWCC5jhEBzq7eq87C0Lr/jwx4TW559/XmWWeslpXaeKrRYrQ/3PUHULc1RmWgxKh0TXEu/BWpJJp/KLX/zi9b179zbnAhnrXe7e9YQWCC5gAeF1yFIR4dXCIZPfMb/rWPbu448/fv3pp59Wbwuaex/NlsWWJceYyxWwhYmXSz7nre4fzLWN4PrRj3500H7fytLkJB/HhFbOFe9IEFzAClasMeHVLU6+vb2tylqR3yW/UznKtrRJ/PKXv2zKFjTWazeHPa4ckbxU5nuOAK/V3Ulor8rVyjLkNUTX2DCK2u29pR35n//5n0ddIJ0TJOKrpsmGXeIxImuob7l7x7Nag+ACViaBxJiXvTxo1sjy5WfmZx8SWUPZu9ZsQWMDNSIgpxJENTXUs32hdrYi6OcUXUMV+lZ2OY3ZkfO+HXoXl5WviJyIr6UdIfk9I7KGFhbX3LsMEFzA/w/Gjx0ynfjqDpo5ql/5np0tYqwvq2zEHrJJtGoLmms56JbEliXHWMOy2tIy5PJ5mXoa6Zg1vcal7pfakSMa8zkNuQ+G9lxGBM0xXj6CLt/3mLujL6gjtOwiBMEFVH44J7g/9aDpRFh6qVKJ6iwXhw6e/LfQ/ft87SkHSScU8rvlgDx2sLdqC5p6oMbQfp6WK0Jlxt6yTszZ47OFoSxTiq6hJcL5360I0kvsyHnH5Dw55gbpV8ByriVxmDOuE2Nj1bD8Tp2oyr+PgBvrTx4TWfn8iSwQXEDDlsNzDpo5yM9OcHCJYGrVFtSN87+2CT3/tgyOWm6ctuQYa/b5tNwLc63oanUwxtR25LyDIm6GkmJL0rk7WAZBcAEbo8vyLXHQdLaIaw/y1m1BQ9nkU/+OrYmt0Le9tjrwA+65NRMW5Tvh1HfJ0Hu/tR6hqe3I+TxPteNfS+fuaHWAC0BwAVccNskO5sDOwZtD59Dkw6GBEPmafG2+R77XHMFM67ag/L5Dn2v+f2N/SxlYbGEpsCXHUFWdJnF2TiKmnGw6VV9pDdWtqStzee/mPdU5Q3Kv5D19qkMkojb/Pl8b8r0MBALB5UMABOoLD9Q4JfCZo0lePw32zNyBeo2i65JED+EMgOAC2IKatwUd23mzVbFlyTG2ZEWrMRHVF5LXWJmdAQAILoAtqHkRcqh5/cMPP3ynsXoL18+SY7Q+bKGFREaEyBdffDE4uKjlqh47MkBwAWALmnSgxhwLTgW6wDaFfym6plpHwY4MgOAC2II2YQsaW0Cav/O///u/XTOAtfUon3322TvvkHv37m1iIh47MkBwAVAtmfxv6ouu1v++rVUl0T5bqpbkdx8baf7RRx9tohLEjgwQXAAcwJNmb3/7t397dKCGvjtAP1D/7zhkSd6CLZkdGSC4ALCYTN7w/qtf/WowY53AqbWpXOXfYaoYarw3W5x4N1QVT/IpgqR87vLuYEcGQHAB2J0taEhs9e12+e9l9jr/uxVxaaoYVF/n+b3LtRHdNNPuHbiV1RKqWwDBBUBAfzGnLC09NbgiiIHLKFcz1N5feE4SpnXRxY4MEFwAKg3qW7AFnSq2TrUPtVC9a3nZKrZLK5a1scEYx2zGQ6KrlcQUOzJAcAGQBV1MbB1rkK8xgDJVDGxr01Xy+8/Tuc/9Ne8c7gUABBeApmxByTaXgdO5gcRYpjuZ+VoywGUAu4U9QNh2lavWBMFQZfuSVRGtiS52ZIDgAsAWdNHvOGU/RSx6Q70ca4sbU8XQIrVNPR1bhn5N72YroosdGSC4ALAFrS62+gHU0ECNfO+1MsKmiqFV+s/SmlWVJE2GkilTCI9jk1HZkQEQXACatAWVFsCpqz5jAzWWDqRMFUPLrN03lHdYaY/uBmNM+SzXLLoiKtmRAYILAFvQVf1lCZ7myJwPZcWXtuOUf6upYmiNtXqHIniuGYyxBdHFjgwQXAAatAUlgFmz2XopsdUPWIb6PvL/m/tzMFUMW2CNKm1Z1VmqH7OsjK/9vmRHBgguAGxBVwUPS2bL1wjgTBXDVliqUrtmgmStpBA7MkBwAWAL2oxdZ2ygRoTg1J9HhJypYthSP+jc1rYaLMA1iS52ZIDgAsAW1GRvRIKmoYEaUzfhmyqGrTGXvW2pZ/KaJFU3fn5vrgQABBeABjKmZaWnliXMc2bTTRXDVqtc/URCBFFLVedL/t45VlewIwMguAC2oEktfDUvFZ1jkaqpYtgyU049XWswRu2iix0ZILgAsAVtQmwd+ky6wO+Sz8ZUMWyda6ee5t+Xe/i65ESNfUplEmVuix87MkBwAWALOqly1IrY6gvEa3f+mCqGPXBNf1G+dsjKW3uP0lIJJHZkgOACwBZUdd/DFL972ed2TvO+qWLYC5f0GA1VkpPkqKGnswbRxY4MEFwA2II2LbZKQVoGVvnfh4IrU8WwJyI+Tn3OxwZj5GtaGwZR/t1TVqHYkQGCCwBb0C7EVt8eOBQkjg3UMFUMe+OUiu4lyYvWHAJTrLko7chLjqAHQHABqMwWdGrwtcai0KUGaqQi2M8+l1PFVLewB8pezb4FbmwwRt4LW7DaTi262JEBggsAW9AuxVa/GnhooIapYtgrQza4Y8/LVnthI7ouEUrsyADBBYAtaNdi61jG/v33329qGiMw9XPRr3L9yZ/8ydGK8Jbfn5e8/9iRAYILwI5tQccoRxhfmuFtfaCGqWLYM2WlZ6ol4nsQXezIAMEFYMe2oDUax1uyYg4N1PjJT34iO43dEdHw27/92289C/fu3dtVtfdS0cWODBBcAHZqCzq2DHnPYqtfGfy93/u9pvcKAde+N4b21oUvvvhid5/FuVNa59yHCIDgAtCALWjs8B/aQ7PHfTFjgSZrEPZS5R0ajLHnXqRzRJclxwAILmCnHLO3JMgq+5f2mJUtRefPf/7zwYEaCaKMd8bWLcidwPrXf/3X3ScdThVdlhwDILiAnXJoPDGx9b+MTRUrh4h0/z09Lu4vbMFG27/3hwZj2Cf17iCikHfD2H+35BgguAAQE+/YX/ZsmTu2M2dsoEb+nYEaaHkwxtB0zr6QICZOcwMQpQAILkBvxjt2uXObwfdsu+xsRUO2q3yOBmqgNYvcufcyu9y46Hr8+LHEFQCCC8DhgRB7FlvnThU7tSoA1CoYLqnWGggxXhHf+2ARAAQXgAM9CHvvNbg0iMzXDfW95P8n2EKtXNuPaOT5+GehugWA4ALwhh/+8IdvBQc/+MEPdi0QrrVJjU12M50MtSUWpkoQWOo7LrqyKJq9GCC4fBDAQNUnwXEOzgTPQ+S/5d+03gQ9ZCn87LPPVPyutEiN7S6S6T7/c8xzNvYchlRi8m9UEc+zvw1Vti+9P48NmNl7lWsLlsJc4zxrh57F/BviEiC4gHdEVXdQJLAe6mE4lXxtvkf/4KldjA1VYvZuC5pyqlgCrCFBa6DGu6KqC+TyeeU5OrRo9xj5+lhi8/1ilyPGjj/3+byvvSfHVijs2Y5cPvc1fyb53fKs5JnJPZJnaKgCeir5HPL1eab7SUrPIAguYAeBXV781wirS4RYfmZtAXaZhc3h+P777+/aFlRObZxqaMjQQI387z0P1Mhnks93LDidgwSQ+cz3Opp7bDBGrsMUQkCV610x+5Of/KRq0ZVnIWfB0DL3ucgzn3su7wCJEBBcwIYCuxyCl2TMHz169Prp06eD5L+d+/3yO3QHTW1iq6sy7DlgmjNDf8oi2a1n/rvA7hKRlRHbY8/igwcPLkqERHztpdKYv3VI9E/9Ltrz3qkxO3IpZnLvrf175n64NPE49hyWY/DPSYTk3UB8geACGgvszsmed4fFN9988/r29vbNYfTy5cvXv/nNb04iPy9fk6/N9+i+36lZvqUPmjGxtXdb0FLZ+T0N1OgCu1NsSRFNeW6ePXv25jl68eLFm69/9erVyc9i/n3I13fP4ilBYBIhnQ14i+/DoepFrskcYijfc6/TTsfEZq7B2vsNO3fHKYnHLtHYPUd3d3dv/pZTn8M8s/n3eYbz9XmmT02MdIkQC6JBcAEV22VOsUXkMMkBkEPk1APkUvIzcuCcUg3L7z53wDe0nLPs1dqrLaicsjan0MxnvOWBGrmnTsmeRwzl+TgnwXEJCQAT/N3c3JyUCDm2e2qvgzEuTSrsoW/nmB15DdHVLbI+JfGYZyPPyDkJjkvIs57k5KmJkD2vGADBBVSXRT+0vLcTWUsEdscOmvwOxw6a/C1zZPdOEVt7tQWtsUdorPKQoKzVzzuB9TGhlcAuAVf+/rWexSRCknQ5lHFvXXiNDcZYQvzscRnyKc6AIdE1ZyX9kNDKvd8lHucWWYfcIackQnLfrm3DBwgu7No6eGjKXoTN2oHdoYMmv9sh6+GUwd45YmtvtqB8xv1q09L9FbkOQ701LWV2c3+N2QYT2C2VPb8mETJWhW4ty55nd0j0Lt0rWC5T3nKl4hxXwLnv4kveJ2O2wS7xeI49cCm6KvShREjeMaYcguACFhZaQ9m7vKhzoNQY2B06aPI7Dx0yU2TZS0FxalZ1L7agGv7OWoLkKavLCe6WsO1OLb4S8LWaZa9NvO9lGfK5duQ5RNeh6nLu6TXdHZdWoccSknkv6vECwQXMHFCMZe9aE1pjwmvM3nTJgXxN38AebEG1/Y1z7UdasrocoZVMdavPYSe8xoK9GrPstdpTy6mnW1yDcKkdeSrRdai6nHu4xmrWOeRdMlZ9nmqdAUBwAUeGDHTZuxptg9fYDafIsk/RpF3agrbmo6+xV22tQQfX9oa0WF0+Zeph7Vn2BNw1D2DZ8tTTa+3IxybGXlNdbl1olcSCP5cLBCC4gJGsf5e9a80mca7wGgv2ThFOZcb70urNVm1BZZ/a0mOaL6lYzDXK+1IBv5Xq8qVZ9jn2WF37bqxtxcCWp55OYUe+RHSNJWW2UF2+1H7f8rAhEFxAlUFnhmFsLXt3SZY9wfdYVq/MfOYwujQDuFVbUAuZ96WW1V5if9pidfnSLPvSIqK1JdpbnHo6pR35HNFV/tutVpcvcYGcUyEECC7g/wd4ZTY9h8qWs3enZNnLYC+fUXnATCm2tmoLainrPvQsLNm/MDSIIUmPLVeXL+m1XOp6RGwPifCaEyE1V5NrEZFltWxo+MaQhXBPQutUF4jdXSC4gAt7WPYc4JUHTLnHq1/xKA/tqcTR1mxBfQEz95LjOe1jQ4J77p+ZzPJeA7xTEiBz3Uv5vkMB99z3wJamgdYuIMeSZWN23j0nIPsMVbu2IOpBcAGLTXzqerUEeG9n2IcWRf7d3/3drPaKrdiC1lhyPGd1Yw6b55idN5Y6z+Db0wzL3q45bE1jVc6WEh9bmno6Z8W/fM9+/vnn7wxFidCXgHw3AXKO7R4guLBbxuwSDpNhhmxNH3744WxB3xZsQWsvOZ7qbxjq35kquBjaCZYAr7WdWksmQMqq85RCvpwUWsOwjqn+lhb/hiWq/d3znXfVvXv33nF77Klv8tx+51Ns9wDBhd0OxxgKINklLrM1ff/733/9q1/9ii1o47amOQLxoeEYqeDIpl9ma7omGJ9bWK9F61NPl7Aj53v+8Ic/ZOed0Hbf8rseBBcwy6hpdonzbU2l6JozEGjVFrTFRc6HrGbnXv8yc8/Oe9kUwyl6SZayjq5li231b1rKjsztMY/tfmt7JEFwARd54dklprU1zWWXa9UWVAYxW7GZTDFMYaiylWy6Z+t8Yr0sEyCniopcyzWGo2ypB2opO/Jc1blS1O19Ou+Utntj40FwQc+WbPokoqu0Nc3VZ9WaLWiLY6mnGhc+VGUW4E1fdT6WmFh7/P/W+qBatCPnHuD2mHeYRitTaUFwAbNk8VKdIbbmqXTNYdkpr1/ttqAyo76FxatjwvLchbjlNELWpXlE16Hsei0LrpekvO9qfiaXsCPn7y/vgfz/PEvTV7paHJYEgguYJIvHRjit6Cqz63NkY1uxBW1th9gl2fixxvHy36XK7BlaLrs+Nn4/z9ZWkwItVp3ntiOrMi8/1MaeLhBc2PwhK4u3THZ9bu96K0KmH8i00i8yVWKj3N/Tv06qzOtk17vqyNCC970kBFqaGrqEMCxFt/7Jdt0fAMGFKicSyuItl13PZz+12KjdFtTykuM5B2r8/d//vV6RBSknpn3xxRfvXJOI47019LcwOXRuO7Iq8/bcHwDBhao8+7J462XX92ILan3nz5TCswtss9+nXKaqyrx8dv3HP/7xST12e6ty1dS3NncVv0wIZeedKnP77g+A4EI1h6os3nrZ9alFUa22oC0tOZ5KHEdsffjhh299Ltkd5TlZZiFrmV3/67/+691VXVtKjMzZp1quYlBl3pb7AyC4sHqWUBZv/ez6lOKjRlvQFpcczyFCVZnXz64L9Oq0/s79O5X9ldnf5hlZz/1hiAYILjRPP0soi1fHiOqpx+LWVk0qfx+WkXftnxHhno31s+t7GpLR0tTTOatu5fJ4VeY63B9bnwwKggsbJn58B0udgd6cGds1bUF7WHI8xWhrqxjWI5ZqVa56p57OmUAqq+/s9fUM0eCEAMGFTXjzYyX0kl+XXIO5RFEttqD+cJYtLzk+t1/EcuO6+rlUuep8due2I5dizsCauqyFphaC4ELzvnwj4NenrP5MHeitbQva45LjS2y9eijrW8QqMVBHdXpOO3Ip5mJp8yyocoHgAtgm2JmaEjy19YHUaNVS3aqzysX6un7/5dyCj613n3Z7gODCYocm28R+qlxr2YL2vuR4jP6ycRNC2ZlaS9YtWXGY891VvndNCN2P3R4guKC6xc40uZ1pLVuQJcdsvexM20zYLSFE567O98VcrrnqVl1kLH//+meSpGcRBBeaOiwdLPuzMy1tC7Lk2NAaVa7t3rtLJFDmtCOz9bLbAwQXZvXAs03ss8q1pC3IkuPTdv2w9bIztVydndMiPPfPMrSG3R4guKApmJ3pDbG8tFh1Ut0ahq233ab97C90D7/dfzhnxWHOalpZ3bKLsp1lyKpcILjQRJDHNtGWnSnXrjVbkCXHpwV5qlttVbncx8tNPS0TNlOL3f73Z+ttz24v+QGCC9VRLld9+fKlF/jOD5e5rTr9RnS7jAR5LZPKx5zJj1Ype6tasz73k06SkG3w+PFjyQ8QXBDkoa3DZS5bkCXHgjzJj/31BU/5jprbjiwJKfkBEFwQ5OEdW+Ectr+5hJElx4K8LdsKJRDGe4OnmHq6hB1ZEnIbyQ99wSC4UG2Qp2ekHRKQzz3CfWpbUGlVtDNlOMjLUBT3uORH68xh/VvCjtyv7pvYK/kBgssHgUlHUAvyHC5zZ5MtORbkSX7sN5FwbdVhCTty+c7LYl33uOQHCC5AkOdwmfVwmcoWVO6X0usiyJP82EeVa6pEyxJ2ZElIyQ+A4IIgD2+Raza3vWYKW5Alx4K8PS0kTyLLfT3t1NMkaJawI/dFnSRkm/T3VEp+gOBCdYegF3X7h8tcQci1tiBLjk/vS8kCT/e15MeW3RSpcp1bnVrCjlwOXchia/e25AcILh8EBHlY5HApbUHn/BxLjgV5kh+4pv9qKTtymYR89eqV+1ryAwSXDwFX3kSCvE0eLnONWb/UFlT2gDn8BHlbJYkrttlpe7CWtCNLQkp+AAQXZs02CvLaJdduKbveubYgS47Ps1s+ffrUPd0wSVxZvDpttXtJO3L//ZYluu7pdsm71LkDggvVCS4v6O1MSLukIX0uW5Alx+dl1TXpt00pKNzf11W8l7Yj20m5zQm+qs0guCCrjuayeaeKqKWmim3JZpUgwf28nWqzkdTXWQSXtCOXvZQZL+6ebpdUKA3OAMGFqgQXr/q2BmfMnQU+NetsyfFp9INPqxnaxzTOaaaWLm1H5vpQbQYILsiqoyr7xLHMczlVbE6b45aG17AxqTbvpcp1bOrp0nbk/vCaWLTdy9tagGxYEwgurL4TRXPwtiYVLtGsf8gWZMmx4TUEF8F1zdTT0o68xOfIZq/aDBBckFVHdfaJMVuQJcdsTKrNkg2nUNqOuyrWGnZkw2sMkwIILszag5NDzsvZaPhrq1ypmpb3VoIYz5ysumZ9nDr1dC07Mpu9ajNAcEFWHVXaJ0pb0F/91V/xzRteo9qsWf8ioXPv3r03rFEhNLxm29VmyT8QXCC4MHk2b0kbX9/+Y8nx5YJLVp3g2iMZnT/0/lj6PcZmz94LEFwguHCW4Pr444/fHDBLkJ9VBkq/8zu/8/qzzz5b7HdolR/96EcE18YFl/v8OO+///4775A//uM/XvR3ILgILoDgAsGFswQX2uDP/uzPCK6NCy60B8FFcAEEFwguEFwEFwguEFwguEBwgeDCWoLrpz/96Zv+oCX48Y9/PBi0/OxnP1vsd2iV/mdHcG1TcLnPj9NPPPSTEUv+DgQXwQUQXCC4cJTHjx8v3mxejoZP75apUIZmEFyGZlx6Hq0xEt7QDIILILhAcKHasfBlZjiVNUuP7eEiuAiuS5cfr7H0uPw9Xrx44V7eAFlg3V3TL7/80vMGggvLkqpEPyB4+fKll3PjlNc0o5aXWKDdr26lolVWvGQVD9Nf8poKpXtZVn1PlHv88r+HliFbfAyLj0Fwoc0biH1CVv1KkjEcWnI8FER55lSbCS4csiP3P6u++Mm/yb9d8n1mCfk2ePDgwXfX9Ouvv/bcgeDC8nzyySeyeRsiFpglbTjlstIye7iWLaj1pa+vXr1yP8uq785OW9qPj71f2HtRq80eBBfAPiGrPsv9M5SBXssWpNqMmobXxDLqHj/NjnxqBX0uUgHpflYqI+7ltkmrRP/+WaJKCoILkM3bOLHALCVuThVTa9iCWh8aoFlfVn0PnCKmThFl7L0wvAYEFzTrY5M2plPtgmvYglSbUdPwmrmrMluw0R56LxyyHc49TEq1mesDILggm4dVmoPPHYixtC2o9Wy/Zn1Z9T0lGI5VvpeeekpwEVwAwYVZs4w52Lykt5FVnysLXAY/GbwyRa8Ge+8/qjZvhNvbW8NiJrAjj7kx5p56qtrM9QEQXJicfiCcQMFLuv0JhXNm1S+19yxpC2qRfrO+5Md2eiklF47bkU/t61xq6mm/2iz50S6Z9mo1CQguVGllcrgI8s6pVJ1j0bAMWfJDkIdr9vOVSYm5KhaSH9tMQhrYBIILVR2AdgAJ8ubqxVrSFtQiEcqmhgrytsolduS1pp5KfkhCAgQXZp3KZCS1IO+Ufr+IrzmnG0p+SH60HuSp4k5vK15qt18/+WGITfurGezCA8GF6jLrDpf2ePbs2VVZ4yUzy0vZgiQ/sPakUEHeNHbkNaaeSn60zd3dncm4ILggs462gryps8qWIUt+CPL22yt87WdTjt2fwy4m+SEJCRBcmCX72D9cEjh4aQvyOnJgXTJVbG1bUIuUfW7ucUHe1s6XS+3IS0897SeGJD8kIUFw+SAweVCdwMFLu73FjnMEeddMFVvbFiT5gSV59OiRJMJCFe0lpp72kx8J4N3jbfDy5cu33qHpP/YcguBClZl1h4sgrwtq+kMuphR0c2S9JT8gyKuLOavZZTU4/aGSH+gnIQ1mAsGF6iin0OWw8fLed5A3t23HMuTjn4vkhyBvK8mDKezIS089lfyQhAQILkxO//ByuLTVMzJ1sLGEZccy5NOSHxr269+D1+8ZEeTNa0c+NPV06n6dMvlhoFTdlFVJSTwQXGhiT4oqV72UU7SmtuQt1WM1ty1oC8mPZGzd821UtwR589uRl5x6Wgbwudbu+Xp5/PixSjMILrRxSPYrDk+fPvUSr5Rcm6WCjLn7qyxDPp65v729dd83UN1SpV3eLjz31NMy+ZR3rXu/PuIEmLuiCoILUOXasW1i6gBj6T1Zc9uCtjDdjZ2pfluvaZvrWYXnrMiX71t2+/p7tyTuQHCBnQlVV7fW2pFlGfLxa8HOtC9bb6ussfJh7qp8mYjMwCLPAFsvCC5g0mZnTfv7sU30p3ItKXwsQx7m4cOHqlwNVLfyrKhurbvuYU4bI7s9Wy8ILh8EZh/nmyqXQG/7toklporVlhlvLYBlZ9qHrXcLNtilK9VzWxnZ7VW3QHAB7Ew7rG5NOdGvnCq2hgfeMmRN+2y92zkz1hChpSia8x2ZiXiehfVtvf3qljMDBBc07aNq20QtS4gtQx4Wov3M/c3NjWdCdatqV8SaInTOxBG7vaE1ILiAySkXsKpybdM2UdMCYsuQ2ZlMQ2u/73fNkdzl7zL11NNyqJRE5DpkcAlHBAgubNbOdHd352W/ckZ9ahFSXuMI7ZrEhWXI7wpRFec6Mup2/dRhR16yl6y0TuqrXMfx0V9yzNYLggubszMl0DMSd9ksXt9KOPeOmVqyhJYhv8s//MM/vHWt9JCs20P5wx/+0H1ZqQ147n6yvqDj/li3h5KtFwQXNmsXYaNYJ4s3R0a9P3a8ptHWc9uCWiNVvlyfMtCTXV+nynzv3r3X3/ve994EenvOrNdsAe6/26ZOVJVVPe6P9ez1uc7iNBBc2GwWU3a9/Sxe7buvLEP+f4Fd/9lLoP/RRx+9dd1ub289LwtXmfv3ZoZFrG3DrcVyXtPnMHf1Pn8r98e6VeY8e6yEILiw+cNVdr3tLF7tgmbvy5AT0PUnv3X84he/eCvQk11ftso89PnvsQrbwhqHMlE4tSDk/lhvSEaewb0mOkBwYQfZ9jIANBa3zSxeTVPF1rIF1UyC9zKgT4DRDRCRXV+GjOAfEhV5Hkt7Z1f52kvGvVY78tKWR+6P5fdtWRkCggu7G6JhRHWbWbxWhlLsbRnyOYF8KZoT6Mmuz1dlHgrWy2C7e2a3Hgy2VH1eYqgH90fbvcwAwYVqrU79l5/seltZvNaWC89tC6opiB2yqh0KZsvPJn1/nqVlq8y5H8sBClu3wLbWXzl3gon7Y/kqM0BwYZeTC5OBIrquE1tLZPFaXCy8h2XIQ5WSBIaniMvSdpnsukrXdGLrlCpz7tGyyrHVgRqt2JGX/p2H3B9E17R777b47gfBBZwdJKY6o3n/spHTZWVrrixeq9Wi1qpy1w7GyPU/tWowlF1nL5zGRnjuvdaN7y8F25YGarS6I2+Jqlzp/rCjazobYe41EwlBcMHkQmOqJ8mmz7lXpPV+qK0tQ04QPhScd4Mxrs2us/qeF+CV2fRLKyG5FkN9eHmuWw8YW058LNV3VlbTOquvBMjpfcyZ9mgiIQgu4AQ7lKbh8+0S4cMPP5zNotPCVLGtWZnGKlKlDbCzy1xzTYYqXRFdbE3n23kvFb5bHqixBWvvEu/ACIM//dM/ff2Hf/iHbPdnEodM6fbIO20v02lBcAEnBcNlhp2taTybXi41Dt///vdnExNb2WnV+jLkSwZjTFF1Zms6fanxqb1zp17vrQzU2MLwmrmr/P2kRwRXEmhlAsRU32HijLnGWg0QXNjV9MIymIw1QFbv7QBvKJv+7//+7+98dlOKrtaFyhaE49hgjDkqHkN7vDLtSwLksJ13jp13YxXNljL3W1rPMJdwHKow//znPx+89mz3x+28e1t0D4ILYGtayC5RWuam8q2X37f1Bv7WrJH5/YYGY8zd0zM0wCFiPz/TcIxvBrPpS7sA8r9bsMZuaQH5HNbIoXOvfz+x3Z8+HKOVZwIEF1DFgTZka9rruOr8zUMB3lDAPYfo2tqwiZay7WsH2UNTEPecAMm9M2TnXep6rCW+2ZHnHf5RCtJc41OGaURs7NVimHdQmYA0HAMEFzCRhSov2IiPPQivTmiVh8qxoGVK0VVeg2sHAdQ6HbO2Q7omG1l+l6GpebH77kV45TMYsi2tNcTimr1r+ianeSamSkSV76JjS7KHejiTBNhL5Tnvv3IK4Vx2XoDgwm4YsjV1wmvLPvah7N051Y0yILvkMNrywuCa/7YEVTUOShiqOnfB3laz7GP9ITUsJV5igAo78rxTT88RW4fsh30XyFaF11h1ufWeQBBcQFUWsLFgb2tZ9vRpDWXvukPlnOrGJYf5nLaZrduC5qpc1DQKPL/HULVra1n2Q9XlXI9aRM1cKwKmYmt25JK+8Dm3elc+6+d+/ZDdeIsukLHqcnembe1cAsEFVCG8hoKLLWTZD2XvrgmeLhVdW5oqtoQtaIp7u6Vlt6k8D1XhtpBlP1RdTpBc4/WYcgn2XMmDrdiRp+hPm8r2nXsxP/OQ8NpidTnvHoMxQHABK2fZUyVqqaKVcdtjQmuK7F1pP0kQf65Q2+riyBqWIQ/ZZvO/W7BfHcuyt7LSIYFrhNZU1eW1rKhDVrM1dhFt2Y58rEft2H0yx2CjsUFTnQsk9vtWkiB5Z7RQXQYILuyqv2ssy97tDUoQVZO1Ir9LfqcxkTVH9u7YyOE9TBWbyxY0R5C0dm/QlFn2LuBLprq2REh+7wSi5VjpGq1519pSl76ntm5HvtQNUL5bpx7Yc8h+3001rDERkndDfq+xhEfN1WWA4MJuGMuylwfNWlm+LrAbswwuUdU4R3RtcarYHLagOaoRLQcVh7Ls/cpXxNdaiZAuez4W2E1dXa5t2NASVdM92JEvcQQMTRicq6J+yAXST4TkWVjDip9nPyIr74KhSlZr1WWA4MJuSLCXYGJsetNQlm/OgybfOz/jUPa8n33O7z53oF3afIbERQK1rU4VO8cWNOe1yGc6JLa30uOSez/31aHqc78KnWTEXBn3cwK7zm67ld6QsXH++f/NeX/vxY58joVySbFVCq+xvuehREielbkSIZ1t95C7o+/yILRAcAENBHw5zE45aLrDJtWnHAQRSTkU8j0OVcNyKOXf5N/ma/K1+R6nBHVdYJfAe+kD5djBv/WpYmtm5dcKgNfuK4r4OiUR0mXd8xzlmQoJAI8lRiLW8m8i3PI1+fpj1eS+0M21jtjd6jVYUuDvzY58io0y92b5zl0jkZXrnXv9mBukn5jsP4v5O44lRvJvOntg9yweqyb3z5t8hhYXg+ACGs08RlCcc9DMQX52lz1fO7AbE11lYLbFqWJrZebXtHjVJGrz9x6zOs1NF9jtaZz0UhbWvdmRy7Omn7DqJsKe0z+7dCLklCr0nHTuDpUsEFzABgdtLHXQdLaIGoVLDtzy9/2DP/iDXUwVW3KyWjdQovXBGHMlQk6tQk8R2O09ez73kJa92pEPTSD8/ve/X30/W679qXb8Kagl8QgQXMDCAxM6EZbDMEH2OWIs/zZfk6/N98j3yvds4TApg4O9TBVbarpaTWO6W6h+5bPOPZlrkKAsz9U5Vel81vmafH1XwWJPOq3aOsXAnr3akUvGhEsrw0PyzOTZ6Z6jPFPnirF8TZ7hfH3uq3w/VSwQXAAOHjxDbCWQGxJdn3/++a6rAKUt6NK+mdoW0baeGBlDIHeZwJ1y0fbe7ciH+tjOWTjfwvvx0LPo2QIILgAjfPrpp28FB/fu3dt1EHvNMuQEJEM2uRb3OWF/Fd0uMXBO8LynJceX9IL+n//zf17/93//t/sNILgAyMZuMyM7hS0oFa9TPot8lkMWuD1NakOblfwhG/Wp9+2elhyfK7b2tIsMAMEFYIS+reh3f/d3ia4RIXos+ByqFCSI1UOEVqxiQ5XZvAMOVWb3uOT41Mp4+T5V4QYILgA7bZ4vRUWZod2z6DplxHWCqKGG8kt7YYC1RcNQ7+GYrXaPS45PEVv5zP7jP/6D1RIAwQXsnaGpYrXujVlrsMChz+Hc4BRo5b4/JYmw5yXHx8RWV9lmtwRAcAE7ppwq1hcJRNfhDP6l9iug9YEaScx0omHPS477/W/lZ9Sf0FgOFLl06ikAggtAg/0ax6wuRNf/Zvv7n9XHH3981YABoLVexqH7/W/+5m92f/9HbJUV7qHq9jVTTwEQXAA2krkes7mUYmOvwcJQpn8o4w/saaDGnpccnyq2xuzb+jsBggvAjvqSEkhNGVhskf/8z/98/Tu/8zsGY2D3NuShtQd7q3yXDoFTKnz63QCCywcB7Lwnaeps7pZIP8ZQkPn555+7n7A7fvWrX71Z5DskuvaQfLjGaq3nDSC4AOywwfucLGs5Qj5secdUgqGxJaZsQWBH/q3d7Z27tq+1fP9ahgwQXAA2yLUZ1kPjj7cmTIcGBfz0pz9lC8Ku7cj9au9f//VfD1Z/t/pc9N+fp9ixp3IYACC4ADTCVD0EWxddQxn8/I1GYYMdeXhFQilEusmnW3o2ploIX4rWS0QbAIILQKUMLTmeSpRsQXicGjheY8sEtmpHLvf6de+F/k6qvYutsfenKacAwQVgA8yxB2bqIKTGwRgJItmCgNMquxFlZY9TJ85afTeU4miK3s1T9iACILgANFa5metwb1105XcdshDm7zhkk2QLAjvytM9UC4mqKe3TliEDBBeADTG3faVciNpKtvbabDxbENiRp6sa70lszWHzBkBwAViJJSox145KXoMp+k3YgsCOfPz9M9QXWfvC8KUGA1mGDBBcADbAUr1GrYiu/J5lRa4TS5d8NmxBYEc+v8peTv6srfK95JJ3U08BggtAwyy9ZDOBQrm7qqaMbYK7OXYGsQWBHfm099HQbrua3hFLi62h97QqF0BwAWiINTKnawQsl2bYE/xNYRNiCwI78ulJmbLqXstAjTXfXaaeAgQXgAZZUwTUJLrGBmMkwJlSgLIFgR35dIYGauR/rzVQY8gSveQ7M59t2ePmHgQILgCVU9rclhYANYiuBG9DQd0ci1hVucCOfL7IGEqGLD1Qo5b+U1NPAYILQEPUMshhqUlfpw7GSFA1p1WHLQjsyNPZfZcQHDUN+zH1FCC4ADRCeWgnmKhJ/M0tuhKkrdWYzxYEduS2ntsyMbP2+7JcV2HqKUBwAaiQGm0pS4muNTPlbEFgR26rMl1WpPNzaui9NPUUILgANFTdqsmSUgqRKYObWnpB2ILAjjzN7zDUeznl71Kr2ArpMdUPChBcACql9h6iOYKcJYIztiDsJWHTr66saa+bc7pomfypcaqoqacAwQWgQsr+obUav5cSXTXv82ELAjvyvDbhS5/xtQb5tNBHB4DgArChjGiZuT53uEQCpLUGY1xqC1prvxDQuhU24qOsYl/yvLcitlpxLAAguIBd0Vo29JpRzEMZ7wRONQ6nYAsCO/K8AzXyjJ3yu5bvyFCz2GrJtQCA4AJ2QV+8rLHkeAnRleCjL2DWHIzBFgR25PX6I89dZl7DEvYt2TwBEFzA7qhlyfEUNqYxUZJgaijIasGmxxYEduRlBmrk3VH+7i2LrdqtngAILmA3fRe1TBW7JngaC4jy9w1ZCGsZjMEWBHbk9d59x94NefbKd0uLvZTl1NND1TwABBcAdpOTRdfjx49PzmK7TsB+7MjHqt/hn//5ny/uE60RU08BggsAq8kkoqsMms7p03CtgP3Ykcvna6i/c0uVZVNPAYILgN6gSfjFL34xGCwlmGp9wh9bENiRl33GtpbgMPUUILgA6AuaxRr0+7//+830a7EFgc11XT7//PNB0bWFCaGmngIEF4AVM52tV7eGmt9LO+EWKnhsQWBxXa7q3/KwnT05GwCCC4As58x9W0ODMRJUfPHFF+8ES1uw0LAFobagfQsV5PJvyvvi3/7t35pdJ7EndwNAcAGojr5AaTlgP2WB6VAQ1bpAYQuCgH1ayuEf/Yp4iwvT92oHBQguYKck85vD7BhrBRYtThVLkJNgZ6ixfcges0XRVf79bEFgR55ObA1V7IZsy/m3LYqVNS2huV9OORNV7gGCC3jr4MrhkEM7B3KC+xxeQ8MbjpGvydfme+R75XtOefCUU8VaHLqQz2Posz1U5cnfvaV9OmxBUF1dVmz1//7+O7Tlz6EUkFNOPe1EU35GyLk2ZP0+hXxtyPeJqyHfdytDkACCCzgS7ObFP1RlmYscOPmZ12STW7eRDGWYE/yc8ndsUXSxBYEd+Tr3Qfk+OUV0jFXY89m0Vu2bKgGXzySfXd6plyQbLyG/b96B3nsguICNWQPzcr80S/f06dNBLvle+R3yu5yT5Wt5qliCmKHP/dweiq2JLsuQsWY1qNUlx937vBQG5/49+fdDPaQtfS7lNT1nGEjeP/n6SxOPjx49GjwTHzx4cJE7JO9yuwlBcAGN2mcibIYsJCU5JHJYPHv27PU333zz+sWLF2+EwqtXr17/5je/OUj+Tf7t3d3dm6/N98j3yoF0apbv2EFTVkNasWRMHdTkc7420NqLLQiYoxqyBbE1dTKopp68Q7935+44NfHYiaica7e3t2++Pt//2JkYXr58+ebf52tDvs/jx49P+rn5/HNN9YGB4AIqrqacYouIwLq5uXkjrE4RVZeS752fERF2LPPXZflKW0uL/T5z2namDLgEwtgDW7GvllXhqfqvrrE7t9CXd2riMYIowupUUXUpnRA7JSmZM0MiCgQXUNFBfGx5bgRPhE8qUXMeJofIz87vcOygiajqsnt94dLCVLElGtO3JLq2ZPUC6+qcf8ecluJLBvrUwtgZkXfJMaHVJR7nFlmHKmEReceqX7lv9XuB4AJWFlpjFa0Im2TS8lJfS2QdOmjyu40dNPmbfvazn72+d+9eM4f/kqOXk/Usf1ar068sQ8ZSz2SLz8hS/ZvnrqyoydnR/33/7u/+btQ22E88zunuuIR8/hFfEYGH7IbWaIDgAhauDIxl7yJk1srYXXrQ5Hcesh1GcP34xz+uOhBfa7nouWOhW7YFAdcG4q0OmSnfLXmvzPnzTlnKXqOw/vjjj98w1o+1prvjUjv+mBtkyH4PEFzAApa1kMxdS0JrSHjlbxgbsFHjgZ/faSg4OWdiFtHVnnUU7qklWGvxed4hQ1Wivt27tt7lMZdH/nurZ2JI1WsoGZl7OkKTIwAEFzCx0BqqonTZuxptg9cIr7Gx87V42fM7Dh3yCVKWFjylbapFW55lyFA1rUNsnTJQo4akzqHe5QitVIi2ciam4jXmAlkywQcQXNg0eZmOTVVqPXt3bJrTmPBaM4BKsDH3YIwWgzP9NtAXOM+zsObzPFTFP3fv1Rzv4KHfKYIkwmSrZ2KE15gLpMV3PgguoNos5xazd8cY87KvYW8ZEr+19De0LrosQ8YcNtvWJl/WaBPOsznksMj/b+l3zNB+w653ubZBGHO6QIaGa9RSfQQILjQ9mSrZu/i59yK0hoRXaamYYrdVawHHqX0rLYqWrexMwnq0vNut9p7MtRNOQxbCCI+We5evdYGUk35rH3ACgguohiG7RITGlvq0rhknX1a75g5KarTUnCPUW+uHsgwZexTsrQzAGRuoMecAh7GR9XtOQB6zGZr2CoILONMukQzWXqwSpx4wQ/u7prYOjTVlrzEYY0+iyzJk7M2S2toy8yXfjaniDLk9WhrzvgSxVLYwVRIEF1BddrYb9U5sDTNnVm+NLO7UAVE52KOljKdlyNhLdas1sXWs+j/l1LyhzybJNm6P82z33p8guAB2iasPmKn7qlpc/Lm1QM4yZJxbBWmxotvyM9r/7OdY/F5WursVKBKQ9dnuAYILzQ7HYJc4r3F4iqzemPBNMNHqIt6WA7qyymUZMk4dFtPCvTL07m85sTDk0Mhze0mlcczt4by7znZvCBEILuyWcpR3MlPsEpdl9coDJkHYORWVocEYW6istCq6LEPGVquhWxhuM/auuXZH4VBla09rUOa03at0geCCngPDMWbJ6p1y0A9lU7e2z6SVCWjHEhKCBbTe77dVsdX/+4b2R54yUKNMDsW5kMSL8+1y0pqgpwsEF3Y9jbCsbBFb84iusWrO2GCMrU52alF0WYaMc+7pGlc1HLM/bvWeHpq4m/899j4un/XAWj/PBMNz3B8AwYXNWLzs2JreXlj2dJXC4txggOgyfQ710drOtrLys/Vqw9BI97GBGuW/MzRqWjJwxCAiEFzY1ZCM0uMuizfPII1SWOT/NzYYI4f9XoYylAKm9qCvfGYsQ0Y3TbR/H9c+RXRvYusU23aXPCk/GwMy1nV/AAQXmqfM4qXU7zBYZmR8PvvPPvtsk4Mxth78WYaMlq2mpeDY4265iKuhgRr/8A//oJe5IvcHQHBhc0GuLN7yU5p+8pOfDGZY3Y/1i65+siLXTuO3gUMt2ExbHVgzl1DuOwzK/V0RA8TWOu4P7xUQXNik/UUWbzlKG8WPfvSjq5dybrXiWnMztWXI6PqCWpnwR2yNn4cffvjh63v37ullNrkQBBcw3ZAMWbx1veuZAmnwwnDGuaUR1a2NAMf8ldlas/NlgoB963Cyx66tdd0fElgguNA8/SBRFq8O77rx4m2KLsuQ900rVc5Wl42vVfnTy1yH+4O1EAQXNhMgOFjqGaJR+1SzNYcQ1BzMtlLhwD4rnMTWeVNHE/Q7n9Yh16KfiJTAAsGFTdgmLDden7610HjxNgNFy5D3SRIktS85jvgnts4beJLPzNlUz1JkdnsQXGjeNsGjXl+VSzDUpuiyDHl/1L6LrbV+yBqSJVnG61xav8eZ3R4EFzYTIKSy4uVeBznkDV44fchLjYKmtCUl0HXt9jPltTY7MLF1WaJEP7MqFwgugG1iJ3tITGc6Xp2tcZy1Zcj7rIrUloEnti4beGMPJbs9CC6AbUKVi+hqQHSVNjPXcfvJq9qy760tEK/lc8pn5CxitwfBBahubXw6k4z0+VauiK6apgJahryvqkhti7mJrctsyqb11j8mXgILBBeqDxD61S22iXYWPxov3mZQaRnyfu69mp5RYuuyZzQDGkzrZbcHwQWwTdhBgoaCyzJ77jpug5qrl0N2Wwkb1a0t2u3dwyC4UP1kQtWttqYzOVzaFV2WIW+7KlJT5bKF3sZaLfZ2UdZPJkfWPBEUBBfwTibPyNv2erkcLm1OYyutvHbJqG4RW/UlIVW32uvl4hgAwYXqM3le3O2Nw+VZb1d0WYa8zSC9lhHVLeynk4QE5wcILmyefiAqk9fm4WL/SLuiq/Z9TbisilTDeOoIh/69ZWz2+VNO0y/rvGnTVqiKC4IL1Y4vvru78+J2uOxmGmctAahlyO2L+dpEM7E1TRJSTzPnBwguHwRk8hwuDpeNBKI12tHQpi20FIDeD5KQnB8AwQWZPEywkyvX0j3druiyDHkbVdO1lxzX3K/YWhIyOGfa3sll8isILlRhg+m/mF68eOGF3RjJvjpcLiOTHcthAmvbMi1Dbo+aRvsTW9cTwdx9djc3N86ZBunvqYyAdl+D4EJVfSP2jDhc9v4MrD0uu5yOpsrV1jS7ta9XX7DXUG2ThATnBwguyOTJ5G2CXDsT7rYjuixDboeaKpI1L/iWhATnBwgu7PcmksnbBLl2/WspyLp+6MGawXNtPUGov+eO2Jr+c3z69KnzpVEilE3nBMGFKq0wOZy9qLdxuFhq2n7Qahly/dQyVbK8V4itaYZI2UnZNhHMrNkguFBddtYLejt9XLJ57Ysuy5Dbsp6t9czVZofdkusjlWZnyzbGw3t/guBCFVlR1gnZPAz3Nq55WFuGXO9ghb4YXqspn9iad2BGFss7W9rl9vbW4AwQXCC4MN9UJmOgtzNa2zLk+vv91rB7EltcHzhvH5d7HAQXVp+uxavOPoE6RVe5K0z1cl3KgSZrPGs1Lu3emk00Fm3nStukQmmYFAguVNUcnNK7F/R2JhUmGHOPTyO6+hWmtQSPZcj19vgtPW6a2OL6wOkYPASCC5qDwT7RyDTPtQPcmsaPm+y6XsWT2FpOTMei7Vxpn0ePHnlWQHBhXVuM5uBtj4bXz7GtQNcy5Lps2EtXGocsroQ3mz0MkwLBBc3BYJ8gumZKkliGvO47c8ngraYhLlum/3zf3d05UzY2TMo7EwQXCC5MwuPHjwmuDU+Gswy5jp7X9PUtVd0ittjsYZgUCC4QXKjUPiEY357osgy5jmu+ZGWzlp1wBBcILhBcAMEFgmsXouvJkydv/eyMjXdNlptUueQC1bJvLz/bhEqCCwQXCC4QXCC4djdCeulg2DLk9a7zUs8VsUVwgeACwQWCCwSXMdIrBcXlMuRUvVyP7Vg4S5Fn9xrBBYILBBcILhiaQXQtLLosQ17+2i4xin/twSwEF8FFcAEEFwguGAtf9QS7pcYPW4Y8L+UY/iUmAxJb69KvZr548cKZsrGx8KZ7guDCKlYZi48tPkbbo7stQ95OBbEU0J7hda+5xccWHwMEF9gn8A5lRt49vn3RtUYVZo8OgLkDtbWXauPdBEYqI86V9nnw4IFnCgQX6rFB3d7eejk3TiwwJtfVNWRhiWDdMuR5341zLzkmtuqcSJnKiHOFzR4guMA+Ac3BFbJ0AG0Z8rx9VHNeu1Qoia166E//TGXEudI2aZXoP1sGC4Hggmwerubm5oa1bKeiq6xyWYZ8uXhdasfZWn1/MEyKzR4guLCS4Mo4cS9ozcGYVnSVQxDmtLRYhtyOPZPYMkwKy7o+8ry5x0FwQTYPkzYHq3DUaU+bc8x3+bMsQ67TmklsGSYFNnsQXNhxBj6BgJf0NkbCaw7ep+iyDHmaCXVzjmRfa1E29DZzfbi/QXBhJfoZXZMKtzGhUHNwfaTaVIquOXZmWYZ8+fCKJSpOxFZbwpvVfjtJSMNoQHBhVR4+fGhwxsYGZuSaurfrr6DMFWz3n2nLkM//zOYSw8RWe5MKOT8kIQGCC7PYnZIV8rJue9eITN6+RZdlyPVVBZeqcGL6wRkJ3J0x7ZHF1fq3QHDB4YLJuLu7U9Egug5O25urH2lrPTtz9L0t2cOH6SuecQ84Z9oeImWAEAguVBdwOFzazuQZfdtGkmPuKXWWIV8mhqauDhNbnB+QhATBBbxjd0lWyAtbJg/ti66ldkq1zJy7y5bew4b5nB8J4J01kpAguIBJez4cLu1QXjvZc6JrKUHROnMK0jyH/Qqj3sr26D+bCeCdN+3w6NEjk1pBcMHhgnkWO37ve99703uQwM5EpnaSHXMG5nNb5loWu3NZLomttsn1S+Lj888/5/xokJcvX0pCguBCG9leh0ubmbzPPvvsrV6RBA0sTG0EeHMG6JYhLzdUpBRyMuztJD5ix+5XhJPA4vxoOwmpqg+CC1UGff3DJVkiL++2MnkffvjhOz0j3aGToE/j8D5Fl2XIhy3UU9k4l7CIYtoqZ56xfkKi5P333//u/04g79ypnyyr9q4DwYVmGsjZCtvK5CVYPxY8dA3EyeSqctRHuXB1ysrLEot9Dwm+Yyz5+8zxWRBbbT1n5WqGsSTVz3/+87ecH6YVttXTnGvtngfBheptNgkivMTrpJyi1Q/ucujkWvYF9BBdv5d7v95x1FONEZ9zGXK+d0RThHzuu9xXx4T/oYRAvjbfJ3SCbErxN0e1r/x78xm4n+uqIB97J3Y27H6QXjo/VLnq5unTp29dT/c+CC400Uiel5eXeP1jbw/tGekawEu72lCgobl426Jryr6lLoAtqzpz0Q+Gr6nOztHPtsQia1zel3XsHj02aKhfEU2VSyKyjd1bVqSA4EJTVa4cWl7mddsmTs3SJ1jtBw/6vdp5DqcQB9dO5uusWMcqp0MkUE0Cp6Q/9OUcuiD5nPu0FLJTBGTEVp19Wae853L9T7l/yvctu339A6QMywDBBVUuTG6bODfA64KSY5nf/Hcj5tdjjmD+nN1T3X1yrELakYAn92ZsVyEZ51MTNvlZ+be3t7dvvrYTZKfaEE8JnqfeSVZ+lsTWeuQ+PqWSn2t2SWW3fBZVuerixYsX1jCA4EL7lqa8zLzU265uHcrentLvVfY2oE3Rla89JjwSvB6rEHQCqxNWc/crRoj1p48dq9CWn1Epjq69l+eyfaLOd1eZiLy5uXEeVUIGmaSCPsdOPYDgwqITCxNYebFv3zYxd5YY10/VmyKgGFuGnGt6bNhFRE9E1lprIxJcJQGUgPeY8Or+rqmXHBNb6zowTunLmqM6z25f/7TeY1V7gOBC9SOqk2H2ct+PbWLqPgjUNXK8//0++uijg2OyI7Ly/Ndmo4r4SnUtPTX9DHd5j/7TP/3TZAEZsbXeebR2/ym7veoWCC5gFvrZbjtI6qpuJWCuadJX7hX9Xu2IroiOe/fuvf7ss89G7YIR+C098xFfY31fH3/88Ruu+czmXE6NNias5l3Y//lz22lxXnVL8g8EF5ptRLaDhG2iHAV+7i4bTCe6ys/+kh6+fJ983VAgm8RK7rWWkysJusaEV6oklwRlxFZdfVm5jmu9Y9jt699FCRBcaL5/hG99edIvM2UPz1QWn2PZ587iw3I1rei9JvDPvx0LZlsXWkMW3LGx87l3T63GElvLjHI/1j/YTaNcu4pe2kqNiV/HSlgO0VHdAsGF5jOOZQZ8rYZ5HvX6moJbC5b2KrryuY/1wCRg3PKY6/SfDfV4ndJ/NVVVEeNJmxb3ApbvO5N8lyXvLM8kCC5sfkx8Mkv6udbJ4k2xrHXufq9T7EAqBMuJrvzboR682O72kjzJs5QK3pDwGvvc5hhW4r79dtTOWtqSa542l3dd+Tdwf6xjr1+qnxkElw8Ci1COxLWHZPksXkvB3lYCq5YSIUMVm3y25TWIiN9rcBgRNTRSvny2iK31EjGtVMHzrJXuDwuRl53Um3uKawIEFzY9tdAQDVm8lkY671F0lf+tq2qpTr8buHW9kV3wNvXus732ZR177jurcavPPffHsr3M/Qq1lQwguLCr0dS867J45wZhaywt3ZvoGuqNkSB5d5phaTHMvffFF1+88/9zLxqmM0b5rHF/zGMJLgfgmIQLggu76x0xREMWb4vjn1u1/H7/+99/53OUGBm3GJZ9ktlP9oMf/IDYmvhZ3vK6CO6PeSmfUUMyQHBhF5T7uSxFlsW79n6qbcFpi6Qy80d/9Eemil7w3A31df3FX/wFsXWgWm0hOveHXmYQXMDM5LDlXZ93IuEes3in9H0kk95y38dSlefcT5r4L++blEn3fF77DN7d3Xm2Ju5llgQBwYXdUXrXZdOnsRHK4smgn/tZlYFeKjYSINMM09j7CgMV6MvdH+yF01Wdc48RWyC4sFuGAmJWivMCvKHGfQeLHpFLrUwCvOkTIHsTEnospxti0y0XlwC5vK/SREIQXMBApUvQd7mFKZ8lsXXdFLT8ty1NQTvn2Utg59maZoJheU9t3SJniui0omvI4kt0nZ/siOgntkBwASM9XWxNh+0SZSNwyGfoXjovONz6np9z+yg9X/PZC7daebYnb76errJCyHZ/+W48gOACev71oayeA+a4XYIt5zr7U8THKfanrWTmc7+YFLr8hLTcQ1sRAxFQp/Rl5b3uPTOd5TfPKtv94edMHzMILuCEg3zogElQzC7BLiGQnH4amqy5HUBzJCa8T9jul3B7PH361KAaEFzApVm9chFkd8DsMQufv3moX8twjGX6vbZklcr9UgbMsuXL78drJSDsrLdD7+Mh66330bK2+4iNva5uyDu3fK6SSFJRBcEFnEkC2fKASTb+9vZ211MI2SUEnZdS/g2y5OtUp2ufmnZOskGFfdnrMlR9j6VuL8IrQmuoqpX3rx5BEFzAhCNyQzJbW87MZ+Flmb1jlzDuesoERobSEEPLPtOlYKnRTnvo3u7stHpG67Ldd8nILbtAIijL3Vr9963qKgguYIIgd2wKVjJdW+rvGsvedROXZPDqCnxaWehaLjc2YnodUp2vabJo15d1bJT7lgbGbKXqPtZr2gmvrU/l7ZIWEpAguIAZphiO2boiUlpu/D+UvcvfzJduNPaUTfd77fuogX5CJQHzGiLmlJUIuV+3uhJhS8JrzPrZuguk610estTnubEGBQQXsEBwO2Z7SSasJeGV31X2blsB0CkVgyWXv5ZLeC03rmsp8lJTC5O0sfR7uy6QMeGVanaEVysV7bwTUwkeE1q5P1VaQXABC2dpx4RXXtYJLNM3UWMvR363sR4t2bt99XvN3RPTr2TkuVDdWp9+NTvP+1xVpFruQazvAun6NiO+ansHJPEYkVWuUCjvUdVWEFxAhV72oYNmjSxffmZ+dn6Hoayd7N0+AqE1qgv5uaYS1pnFn2vqaI1VViz/vjkmsiNuInLWcoREPOV9NJZ41LsMgguoWHgdO2S6fq8cNHNm+TpbxFhf1lBvj8BnP5XZpfpn+tnuiH2DMuqhtBJfe61r7yPEOu+aY8K76/eK+JlbfHXujkOJx/6gFr3LILiAyqfHJag45aDpMn0RYTlwQoKRUw6e/JsuSxfyPQ5ZIsrssl4JlsM5J8QlAO9/nz3tr2tlKEA/8Iw43vKkTKybkDwl0dMXYDnPIo5ytkUo5X11LGGTn5N/F0dHvi4Jx3yfUwSWlQMguIANBLWnHjRzkoDK1C8cShJMuQOp/70SQBE59ZGgtH+NT8not7wLDvUMnjom1JfA8mwQXMDGs3xLHDT5GfbX4NJg6JpApVwYvuUl4XuocnXvrkMDEbrKeZI63jc4p9/rVDv+FHT3KJEFggvYUVUhh01e/jlwEsycakMsD5B8bb5HyPd0mGCqBMElQXY/eIqlh7ipl4jhsSrXOeJb5RxTOEJy/+W9k3sqCcO8f85NUOaezNfl3s33yX2sHwsEF4DBYDcHxCFkkbG0NfYUG1n+XTmMgbCpm/6kti+++OLo5NXOXiqIxdLVsENINAIEFwBspjJ7qP/iRz/6kd6txshAk+6a3bt3b/IBKgAAggsAcGG/VzkQ5nvf+569W42Riaf9a/jpp5++YxllGQQAggsAsHK/19/+7d+yE27AVvg3f/M3prcBAMEFAKiNfv9Wpt8RMm2OiE+vnvsZAAguAEBl9KdsZmkpIdMOqUb2q5OqWwBAcAEAKqIM2O/u7giZxujv5Eq10n0NAAQXAKASymXHWapLxLRFqpL9YRnuawAguAAAldCfVnhzc0PANEiqkuXQE/c2ABBcAICVyZTCfqD+4sULAqZR+tcxVUv3NwAQXACAlck+LnbCbZDqZH/RsfsbAAguAMDKZGdTF6Q/fvyYcGmYVCeNhwcAggsAUBFffvmlcfAbHQ/v/gYAggsAsDL379//LkDPAl3CpV1iB7WPCwAILgBARbz33nv2b210cMbz58/d4wBAcAEAVn2ZF6PEiZa2SR9edz3Tn+ceBwCCCwCwErGcmVC4LZ4+fUpwAQDBBQCogVjO+oKLYGmf9OF11zP9ee5zACC4AAAr0R8Jn8oIwbItwfXJJ5+4zwGA4AIAEFwwGh4AQHABwIYFl5HwBBcAgOACABBcILgAgOACABBcILgAAAQXABBcBBfBBQAguAAABBcILgAguAAABBcILgAAwQUABJex8AQXAIDgAgDMKrgeP35MsFh8DAAguAAAU/H8+fO3qiEEy7YE1/37993nAEBwAQDW4ttvv31LcL169YpoaZxYQ7vrmQqm+xwACC4AwJov857gSv8P0dI2sYZ21/PJkyfucQAguAAAa/Lee+99F6C/ePGCaGmcvoCOZdQ9DgAEFwBgRdLnYzT8NogltC+4Yhl1jwMAwQUAWJEvv/zyuwD92bNnhIuR8AAAggsAMBVGw2+HWEK7a/nBBx+4vwGA4AIArM3XX3/9VlXk17/+NfHSKDc3N99dx4cPH7q/AYDgAgBU8ULvCS6DM7bRv/XVV1+5twGA4AIA1ECqIV2gnioJAdMed3d371Qq3dsAQHABACog1RALkNsmA0+66/fJJ5+4rwGA4AIA1EKqIWyFbfPgwQMLjwGA4AIA1EqqIsbDb8NOmPHw7mkAILgAABWRqkgXsKdaQsi0QxZWGwcPAAQXAKBiyqW5qZoQM23w6NGj765b9qq5nwGA4AIAVG4rTNWEmKmfly9fviWUv/32W/cyABBcAIAaSXWkC9xTNSFo2AkBAAQXAGAiUh0phy8QNe3YCb/88kv3MQAQXACAmkmVRJWrvepWeP78uXsYAAguAEDNlEuQ7eSqkyyn7u/eun//vvsXAAguAEBrwzNUuVS3AAAEFwBgQhK894N5Ewvr4te//vVb1S29WwBAcAEAGiMWtf4i5FjYiJ06ePbs2TvDTdyzAEBwAQBUuTBBdat/XVS3AIDgAgA0SoL5fnCfYJ/oWZenT59+dz3ee++9N9fEvQoABBcAoEFiVesLrljZiJ71KK9HFlW7TwGA4AIANEyC+n6Q//LlS+JHdQsAQHABAKYgQX2C+y7Qf/z4sQEaFYyBz7409ycAEFwAgA1WuW5uboigBcny6f7n/8EHH7gvAYDgAgBsif6YeFMLlyMWzv7OrVQbv/32W/ckABBcAICtWQs/+eSTt0RXKi9E0XzEutkXW+Hrr792PwIAwQUA2CKprPT7uQzRmJf0y/U/6ydPnrgPAYDgAgBsmXIhciow9nNNT0bwW3AMAASXDwIAdkgm5PXFgMmF03J7e/vW5xsrpxHwAEBwAQB2RCouliJPz93d3Vufq31bAEBwAQB2SjlEg+i6jv/6r/8ykRAAQHABAP4fqbxkJ1RfdD19+pS9cIJdW5YbAwAILgDA4OTC9HSZXnj5gIyQZdPuLwAguHwQAIA3oqu0F8YaF4scQXV4z1YqgipbAACCCwBw1F748OHDd8RDJu4RV++SCuCjR4/eGZChZwsAQHABAEaJFa4UXYZpvDuJsD8coxv9noqgewgAQHABAA5S7umyq2t8x1ZIZdDodwAAwQUAuGqYRix0qe7sUWhFUN3c3BiOAQAguAAA0xCLXDlMoxsdv5eBGqnqffPNN+98BhGjhmMAAAguAMDVwzS+/PLLdwRHJ7zy37cstMpeLcMxAAAEFwBglr6ucklyf6jGloRXlhgPCa3OQqhfCwBAcAEAZhNeZW9Xt7crFaGWB2ukP60c9d6RKp8phAAAggsAsIjNMJWeQ8KrpYpXhNbQAuNw//59QgsAQHABAOrq7+pGyUd8ZUlwbf1ZsQ0OTR3sC63nz5+7zgAAggsAsC6pAGUX1Zh46UbKR3ytNd0w4jA7tMYqWR3pUzN9EABAcAEAqiMVoQivIathaTvMoI1Y+ebs+UplLSIvlbZDv0/I+HtCCwBAcAEAmuDrr79+Yzc8Jr46AZbKUyx+EUix+6USdkofWP5dhFu+LuT7jA2+KIk4fPLkiR4tAADBBQBol+ysypCNsbHySxHxFxGYSpbR7gAAggsAsMl+r1SVYuFbQmRF5EVkpeLm8wcAEFwAgN2QKlP6viKGUgGLMMp0wEsqYfm6WATzfSLo8n1ZBQEABBcAAAesiBFOh/A5AQAILgAAAAAguAAAAAAABBcAAAAAEFwAAAAAQHABAAAAAAguAAAAACC4AAAAAIDgAgAAAAAQXAAAAABAcAEAAAAAwQUAAAAAILgAAAAAgOACAAAAAIILAAAAAEBwAQAAAADBBQAAAAAElw8CAAAAAAguAAAAACC4AAAAAIDg8iEAAAAAAMEFAAAAAAQXAAAAAIDgAgAAAACCCwAAAAAILgAAAAAAwQUAAAAABBcAAAAAEFwAAAAAAIILAAAAAAguAAAAACC4AAAAAAAEFwAAAAAQXAAAAABAcAEAAAAACC4AAAAAILgAAAAAgOACAAAAABBcAAAAAEBwAQAAAADBBQAAAAAY4v8CErKT16ZLtdIAAAAASUVORK5CYII=;" vertex="1" parent="1">
          <mxGeometry x="551.1800000000001" y="110" width="140" height="113.15" as="geometry" />
        </mxCell>
      </root>
    </mxGraphModel>
  </diagram>
</mxfile>
